<svg width="1000" height="1000" viewBox="0 0 1000 1000" fill="none" xmlns="http://www.w3.org/2000/svg">
<path d="M476.954 251.387C522.73 234.034 571.56 253.752 598.398 290.882C608.231 304.489 614.737 319.563 617.923 335.976C618.735 340.157 618.945 345.035 617.575 348.936C615.443 355.015 609.905 357.009 603.509 356.936C563.271 356.478 523.037 356.125 482.795 355.726C463.187 355.533 443.583 355.313 423.971 355.125C410.3 354.992 404.83 348.711 407.641 335.366C416.035 295.499 438.724 267.245 476.954 251.387Z" fill="#EFA81A"/>
<path d="M349.921 651.779C341.018 647.892 332.056 647.768 323.194 651.752C303.201 660.738 294.605 686.425 304.778 706.5C312.301 721.34 326.632 729.68 340.674 727.396C356.707 724.788 369.25 712.011 371.803 695.681C374.788 676.673 366.834 660.293 349.921 651.779ZM358.783 616.928C388.11 628.573 404.138 650.473 407.187 680.836C410.024 709.136 399.494 732.742 376.186 749.686C370.639 753.721 363.936 756.265 357.532 758.956C354.666 760.162 353.241 761.248 353.112 764.591C352.865 771.05 352.585 777.601 351.246 783.891C348.908 794.908 338.997 800.18 330.24 794.949C326.948 792.987 323.881 788.939 322.864 785.244C321.025 778.587 320.663 771.495 319.994 764.554C319.732 761.867 319.045 760.423 316.221 759.479C288.636 750.269 272.255 730.693 266.914 702.654C261.339 673.4 270.078 648.116 293.115 628.93C312.328 612.93 334.449 609.052 358.783 616.928Z" fill="#EFA81A"/>
<path d="M648.21 647.455H603.621V671.538H623.55C629.863 671.538 636.171 671.487 642.484 671.551C651.97 671.638 659.309 678.685 659.433 687.73C659.575 697.38 652.653 704.491 642.787 704.587C631.527 704.697 620.268 704.619 609.008 704.619H603.695V726.767H608.893C624.417 726.767 639.94 726.735 655.463 726.776C667.153 726.808 674.658 733.818 674.732 744.67C674.8 755.425 667.163 762.788 655.688 762.82C633.338 762.879 610.989 762.875 588.644 762.82C576.389 762.792 569.425 755.792 569.402 743.326C569.334 708.695 569.425 674.068 569.315 639.437C569.297 634.357 568.756 629.236 568.018 624.202C566.89 616.505 569.228 613.268 577.104 613.112C586.824 612.92 596.552 613.044 606.28 613.039C623.335 613.039 640.394 613.08 657.457 613.03C664.815 613.012 669.84 616.606 672.595 623.134C675.474 629.951 674.855 636.759 669.629 642.169C667.328 644.544 663.72 646.181 660.428 646.951C656.687 647.822 652.634 647.345 648.21 647.455Z" fill="#EFA81A"/>
<path d="M835.809 762.837C822.821 762.471 816.127 755.805 816.1 743.307C816.031 708.328 816.118 673.352 816.017 638.377C816.004 633.802 815.499 629.19 814.793 624.66C813.496 616.353 815.848 613.18 824.37 613.089C837.675 612.947 850.988 613.038 864.297 613.038C877.262 613.038 890.232 612.988 903.197 613.057C913.622 613.116 920.682 620.039 920.787 630.143C920.907 640.513 914.36 647.276 903.522 647.39C886.972 647.574 870.422 647.45 853.867 647.468C852.859 647.468 851.85 647.606 850.461 647.711V671.537C863.412 671.537 876.322 671.491 889.228 671.555C897.603 671.596 903.499 676.263 905.562 684.268C908.175 694.418 900.955 704.33 890.452 704.545C879.027 704.779 867.589 704.609 856.155 704.619H850.369V726.766H855.609C871.137 726.766 886.665 726.734 902.188 726.78C913.865 726.812 921.351 733.84 921.42 744.71C921.48 755.461 913.837 762.792 902.33 762.819C880.32 762.874 858.31 762.837 835.809 762.837Z" fill="#EFA81A"/>
<path d="M455.638 679.757C455.968 689.962 455.23 699.833 456.881 709.286C459.21 722.636 472.509 731.044 486.423 729.632C501.598 728.087 513 716.892 513.078 702.886C513.215 679.51 513.101 656.142 512.94 632.766C512.917 629.396 511.991 626.031 511.597 622.653C510.918 616.894 513.234 613.699 519.024 613.378C523.581 613.135 528.28 613.268 532.75 614.098C542.254 615.858 547.008 621.534 547.077 631.143C547.26 655.203 547.695 679.271 547.141 703.313C546.219 743.464 510.355 771.984 470.974 764.484C442.779 759.12 421.575 732.763 421.355 702.441C421.195 680.78 421.456 659.109 421.36 637.442C421.346 633.22 420.755 628.965 420.095 624.78C418.834 616.748 421.273 613.502 429.305 613.181C431.859 613.08 434.426 613.149 436.975 613.346C449.312 614.323 455.496 620.796 455.602 633.183C455.735 648.537 455.638 663.89 455.638 679.757Z" fill="#EFA81A"/>
<path d="M142.548 689.964C152.753 685.728 157.961 677.646 157.159 667.331C156.297 656.277 149.485 646.966 139.362 645.096C131.811 643.697 123.94 644.041 116.031 643.601V691.908C124.88 691.321 133.31 690.762 142.548 689.964ZM101.489 611.968C116.641 612.339 131.454 611.409 145.872 613.38C169.267 616.575 189.076 639.526 190.626 662.806C192.354 688.745 177.478 711.534 153.226 719.104C146.826 721.107 139.912 721.68 133.173 722.313C127.795 722.817 122.331 722.414 116.105 722.414C116.105 730.611 116.384 738.391 116.045 746.138C115.504 758.599 103.667 766.315 92.4945 761.501C84.8705 758.223 82.0281 751.805 82.0373 743.764C82.0831 711.195 82.1519 678.622 81.9822 646.058C81.941 637.916 81.1891 629.774 80.5014 621.655C79.9788 615.471 81.9731 612.633 88.1988 612.193C92.4395 611.895 96.7169 612.028 101.489 611.968Z" fill="#EFA81A"/>
<path d="M393.765 401.606C387.063 388.352 394.274 376.107 408.651 376.098C477.401 376.015 546.146 376.034 614.895 376.093C625.187 376.103 632.124 382.791 632.211 392.29C632.293 402.014 625.274 408.928 614.785 408.937C546.04 408.996 477.291 408.964 408.546 408.974C402.536 408.974 397.566 406.906 393.765 401.606Z" fill="#EFA81A"/>
<path d="M695.345 645.968C694.96 637.647 694.712 629.826 694.157 622.023C693.607 614.335 695.239 611.649 702.868 611.497C708.392 611.387 714.224 612.011 719.414 613.78C727.652 616.591 729.871 623.798 729.866 631.876C729.862 660.689 729.866 689.503 729.871 718.321V724.932H755.251C762.586 724.937 769.917 724.863 777.247 724.955C787.617 725.083 795.636 732.859 795.498 743.032C795.356 753.342 788.676 761.539 777.279 761.37C756.654 761.058 736.019 761.31 715.388 761.269C703.001 761.246 695.391 753.631 695.368 741.111C695.304 709.569 695.345 678.023 695.345 645.968Z" fill="#EFA81A"/>
<path d="M425.633 480.066C431.758 479.598 435.888 476.88 438.988 472.066C448.115 457.886 457.284 443.72 466.724 429.742C473.335 419.949 486.35 420.559 491.966 430.659C494.479 435.179 494.79 440.061 491.943 444.284C478.236 464.634 464.51 484.985 450.151 504.868C447.872 508.027 442.44 509.916 438.217 510.447C429.113 511.598 419.852 511.626 410.646 511.846C404.374 511.992 399.593 514.445 395.82 519.451C389.461 527.882 382.992 536.24 376.377 544.474C371.687 550.305 365.177 551.882 359.061 549.099C351.708 545.748 347.944 539.788 349.172 532.494C349.608 529.936 350.878 527.268 352.478 525.2C362.591 512.121 372.906 499.206 383.153 486.232C386.568 481.904 391.006 479.979 396.517 480.048C406.066 480.162 415.616 480.075 425.633 480.066Z" fill="#EFA81A"/>
<path d="M590.018 549.586C569.365 514.088 548.909 478.911 528.485 443.716C524.863 437.476 525.656 431.241 530.46 427.042C536.145 422.067 542.614 421.348 547.634 425.598C549.642 427.294 551.15 429.719 552.512 432.039C569.475 460.976 586.364 489.955 603.29 518.915C603.707 519.64 604.271 520.281 605.014 521.295C613.055 516.394 621.037 511.557 628.995 506.688C637.174 501.678 643.441 503.145 648.383 511.268C653.27 519.305 651.657 525.641 643.427 530.601C631.471 537.808 619.505 544.997 607.54 552.19C600.746 556.279 596.033 555.656 590.018 549.586Z" fill="#EFA81A"/>
<path d="M210.89 682.828C210.89 668.158 211.018 653.991 210.821 639.834C210.748 634.411 210.124 628.974 209.386 623.596C208.529 617.343 210.716 613.923 216.955 613.441C220.838 613.143 224.832 613.23 228.678 613.794C239.58 615.399 244.866 621.515 244.912 632.531C245.003 655.738 244.944 678.945 244.944 702.152C244.944 716.313 244.962 730.475 244.93 744.632C244.912 752.288 241.836 758.321 234.725 761.539C223.635 766.564 211.326 758.45 210.986 745.787C210.67 734.193 210.895 722.585 210.89 710.986C210.886 701.771 210.89 692.556 210.89 682.828Z" fill="#EFA81A"/>
<path d="M274.604 389.065C277.061 379.171 280.866 376.086 290.407 376.063C307.287 376.026 324.167 375.981 341.043 376.095C348.309 376.141 353.274 380.093 354.92 386.626C356.263 391.976 353.733 398.275 348.511 400.952C346.054 402.209 342.996 402.809 340.204 402.841C323.493 403.006 306.787 402.965 290.077 402.91C280.546 402.873 276.273 399.091 274.604 389.065Z" fill="#EFA81A"/>
<path d="M321.636 356.083C317.207 356.079 313.287 356.207 309.372 356.042C300.969 355.689 294.821 349.312 294.922 341.239C295.013 333.33 300.959 327.063 309.239 326.917C322.69 326.674 336.155 326.687 349.61 326.912C358.041 327.049 364.281 333.651 364.143 341.619C364.01 349.596 357.665 355.881 349.234 356.037C340.207 356.202 331.176 356.083 321.636 356.083Z" fill="#EFA81A"/>
<path d="M295.14 454.448C291.179 453.87 287.461 453.884 284.288 452.587C278.874 450.372 276.174 444.38 277.178 438.686C278.209 432.846 282.606 428.073 288.469 427.908C300.884 427.551 313.327 427.473 325.732 427.904C332.871 428.151 337.469 434.34 337.12 441.694C336.781 448.837 331.293 454.242 323.72 454.393C314.358 454.586 304.992 454.448 295.14 454.448Z" fill="#EFA81A"/>
<path d="M247.629 384.445C248.189 396.31 242.1 402.77 230.635 402.903C225.871 402.958 221.094 403.081 216.34 402.852C207.327 402.407 200.849 395.618 200.982 387.026C201.12 378.472 207.799 371.902 216.803 371.627C221.562 371.485 226.334 371.554 231.102 371.609C239.845 371.71 244.938 375.583 247.629 384.445Z" fill="#EFA81A"/>
<path d="M235.725 562.525C242.712 562.988 246.792 566.637 248.617 572.813C250.34 578.658 247.865 583.33 243.454 586.773C239.191 590.106 234.652 593.246 229.82 595.639C224.172 598.431 218.313 596.955 214.852 592.87C211.212 588.579 211.06 583.508 215.044 577.801C220.105 570.562 226.033 564.258 235.725 562.525Z" fill="#EFA81A"/>
<path d="M527.133 220.559C524.753 230.498 517.542 236.105 508.836 235.146C500.547 234.23 494.092 227.38 493.762 219.137C493.427 210.894 499.332 203.495 507.474 201.959C518.335 199.91 527.183 208.061 527.133 220.559Z" fill="#EFA81A"/>
</svg>
