<svg width="1000" height="1000" viewBox="0 0 1000 1000" fill="none" xmlns="http://www.w3.org/2000/svg">
<path opacity="0.1" d="M742.85 284.518C766.937 308.604 778.979 320.647 785.325 335.961C791.667 351.275 791.667 368.306 791.667 402.369V708.333C791.667 786.9 791.667 826.183 767.258 850.592C742.85 875 703.567 875 625 875H375C296.432 875 257.149 875 232.741 850.592C208.333 826.183 208.333 786.9 208.333 708.333V291.667C208.333 213.099 208.333 173.815 232.741 149.408C257.149 125 296.432 125 375 125H514.296C548.358 125 565.392 125 580.704 131.343C596.021 137.687 608.062 149.73 632.15 173.815L742.85 284.518Z" fill="#EFA81A"/>
<path d="M742.85 284.518C766.937 308.604 778.979 320.647 785.325 335.961C791.666 351.275 791.667 368.306 791.667 402.369V708.333C791.667 786.9 791.667 826.183 767.258 850.592C742.85 875 703.567 875 625 875H375C296.432 875 257.149 875 232.741 850.592C208.333 826.183 208.333 786.9 208.333 708.333V291.667C208.333 213.099 208.333 173.815 232.741 149.408C257.149 125 296.432 125 375 125H514.296C548.358 125 565.392 125 580.704 131.343C596.021 137.687 608.062 149.73 632.15 173.815L742.85 284.518Z" stroke="#EFA81A" stroke-width="66.6667" stroke-linejoin="round"/>
<path d="M487.585 371.967C511.251 362.995 536.496 373.19 550.371 392.386C555.455 399.421 558.819 407.214 560.466 415.699C560.886 417.861 560.995 420.383 560.286 422.4C559.184 425.543 556.321 426.574 553.014 426.536C532.211 426.299 511.41 426.116 490.605 425.91C480.467 425.81 470.332 425.697 460.193 425.599C453.125 425.531 450.297 422.283 451.75 415.384C456.09 394.773 467.82 380.165 487.585 371.967Z" fill="#EFA81A"/>
<path d="M421.909 578.97C417.306 576.96 412.673 576.896 408.091 578.956C397.755 583.601 393.311 596.882 398.57 607.261C402.459 614.933 409.869 619.244 417.129 618.064C425.417 616.715 431.902 610.11 433.222 601.667C434.765 591.84 430.653 583.371 421.909 578.97ZM426.491 560.952C441.653 566.972 449.939 578.294 451.515 593.992C452.983 608.623 447.538 620.828 435.488 629.588C432.62 631.674 429.155 632.989 425.844 634.38C424.362 635.004 423.625 635.565 423.559 637.293C423.431 640.633 423.286 644.02 422.594 647.272C421.385 652.967 416.261 655.693 411.734 652.989C410.032 651.974 408.447 649.881 407.92 647.971C406.97 644.53 406.783 640.863 406.437 637.274C406.302 635.885 405.946 635.139 404.486 634.651C390.225 629.889 381.756 619.768 378.995 605.272C376.112 590.148 380.63 577.076 392.54 567.157C402.474 558.885 413.91 556.88 426.491 560.952Z" fill="#EFA81A"/>
<path d="M576.125 576.734H553.072V589.185H563.375C566.639 589.185 569.901 589.159 573.164 589.192C578.068 589.237 581.863 592.88 581.927 597.556C582 602.546 578.421 606.222 573.321 606.271C567.5 606.328 561.678 606.288 555.857 606.288H553.11V617.738H555.798C563.823 617.738 571.849 617.722 579.874 617.743C585.918 617.76 589.798 621.384 589.836 626.994C589.872 632.555 585.923 636.361 579.991 636.378C568.436 636.408 556.881 636.406 545.329 636.378C538.993 636.363 535.393 632.744 535.381 626.3C535.346 608.395 535.393 590.493 535.336 572.589C535.327 569.962 535.047 567.315 534.665 564.712C534.082 560.733 535.291 559.06 539.363 558.979C544.388 558.879 549.417 558.943 554.447 558.941C563.264 558.941 572.084 558.962 580.905 558.936C584.71 558.927 587.307 560.785 588.732 564.16C590.22 567.685 589.9 571.204 587.198 574.001C586.008 575.229 584.143 576.075 582.441 576.473C580.507 576.924 578.412 576.677 576.125 576.734Z" fill="#EFA81A"/>
<path d="M673.113 636.387C666.398 636.197 662.938 632.751 662.924 626.29C662.888 608.205 662.933 590.123 662.881 572.041C662.874 569.675 662.613 567.291 662.248 564.949C661.577 560.654 662.793 559.014 667.199 558.967C674.078 558.893 680.961 558.941 687.841 558.941C694.544 558.941 701.25 558.915 707.953 558.95C713.342 558.981 716.992 562.56 717.047 567.784C717.109 573.145 713.724 576.641 708.121 576.701C699.564 576.795 691.008 576.731 682.449 576.741C681.928 576.741 681.406 576.812 680.688 576.867V589.184C687.384 589.184 694.058 589.161 700.731 589.194C705.061 589.215 708.109 591.628 709.176 595.766C710.527 601.014 706.793 606.138 701.363 606.25C695.457 606.371 689.543 606.283 683.632 606.288H680.641V617.738H683.35C691.378 617.738 699.406 617.722 707.431 617.745C713.468 617.762 717.338 621.395 717.374 627.015C717.405 632.573 713.454 636.363 707.505 636.377C696.125 636.406 684.746 636.387 673.113 636.387Z" fill="#EFA81A"/>
<path d="M476.565 593.434C476.736 598.71 476.354 603.813 477.207 608.701C478.411 615.603 485.287 619.95 492.481 619.22C500.326 618.421 506.221 612.633 506.261 605.392C506.332 593.306 506.273 581.225 506.19 569.14C506.178 567.398 505.699 565.658 505.496 563.911C505.145 560.934 506.342 559.282 509.335 559.116C511.691 558.991 514.121 559.059 516.432 559.488C521.345 560.398 523.803 563.333 523.839 568.301C523.933 580.739 524.158 593.183 523.872 605.612C523.395 626.37 504.853 641.115 484.493 637.238C469.917 634.465 458.954 620.838 458.841 605.162C458.758 593.963 458.893 582.759 458.843 571.557C458.836 569.374 458.53 567.175 458.189 565.011C457.537 560.858 458.798 559.18 462.951 559.014C464.271 558.962 465.598 558.998 466.916 559.1C473.294 559.604 476.492 562.951 476.546 569.355C476.615 577.293 476.565 585.231 476.565 593.434Z" fill="#EFA81A"/>
<path d="M314.697 598.711C319.974 596.521 322.666 592.343 322.251 587.01C321.806 581.295 318.284 576.481 313.05 575.514C309.146 574.791 305.077 574.969 300.988 574.742V599.716C305.563 599.413 309.922 599.124 314.697 598.711ZM293.47 558.387C301.304 558.579 308.962 558.098 316.416 559.117C328.511 560.769 338.753 572.634 339.554 584.67C340.447 598.081 332.756 609.863 320.218 613.776C316.909 614.812 313.335 615.108 309.85 615.435C307.07 615.696 304.245 615.488 301.026 615.488C301.026 619.725 301.171 623.748 300.995 627.753C300.716 634.195 294.596 638.184 288.82 635.696C284.878 634.001 283.409 630.683 283.413 626.526C283.437 609.688 283.473 592.847 283.385 576.012C283.364 571.802 282.975 567.593 282.619 563.395C282.349 560.198 283.38 558.731 286.599 558.503C288.791 558.349 291.003 558.418 293.47 558.387Z" fill="#EFA81A"/>
<path d="M444.577 449.63C441.111 442.778 444.84 436.447 452.273 436.442C487.816 436.4 523.357 436.409 558.9 436.44C564.222 436.445 567.808 439.903 567.853 444.814C567.895 449.841 564.267 453.415 558.844 453.42C523.303 453.451 487.759 453.434 452.218 453.439C449.111 453.439 446.541 452.37 444.577 449.63Z" fill="#EFA81A"/>
<path d="M600.493 575.966C600.294 571.664 600.166 567.62 599.879 563.586C599.595 559.611 600.439 558.222 604.383 558.144C607.239 558.087 610.254 558.41 612.937 559.324C617.196 560.777 618.343 564.503 618.341 568.68C618.339 583.576 618.341 598.473 618.343 613.372V616.79H631.465C635.257 616.792 639.047 616.754 642.837 616.802C648.198 616.868 652.344 620.888 652.273 626.147C652.199 631.478 648.746 635.716 642.853 635.628C632.19 635.467 621.522 635.597 610.856 635.576C604.452 635.564 600.517 631.627 600.505 625.154C600.472 608.847 600.493 592.538 600.493 575.966Z" fill="#EFA81A"/>
<path d="M461.052 490.194C464.219 489.952 466.354 488.547 467.956 486.058C472.675 478.727 477.416 471.403 482.296 464.176C485.714 459.113 492.443 459.429 495.346 464.65C496.645 466.987 496.806 469.512 495.335 471.694C488.248 482.216 481.151 492.737 473.728 503.017C472.55 504.65 469.741 505.626 467.558 505.901C462.851 506.496 458.063 506.51 453.304 506.624C450.061 506.7 447.589 507.968 445.639 510.556C442.351 514.915 439.007 519.236 435.587 523.493C433.162 526.508 429.796 527.323 426.634 525.884C422.833 524.152 420.887 521.07 421.522 517.299C421.747 515.977 422.404 514.597 423.231 513.528C428.46 506.766 433.792 500.089 439.09 493.382C440.856 491.144 443.15 490.149 445.999 490.184C450.936 490.244 455.873 490.199 461.052 490.194Z" fill="#EFA81A"/>
<path d="M546.039 526.136C535.361 507.784 524.786 489.597 514.226 471.401C512.354 468.175 512.764 464.952 515.248 462.781C518.187 460.209 521.531 459.837 524.127 462.034C525.165 462.911 525.945 464.165 526.649 465.364C535.418 480.325 544.15 495.307 552.901 510.279C553.117 510.654 553.408 510.986 553.792 511.509C557.949 508.976 562.076 506.475 566.191 503.958C570.419 501.367 573.659 502.126 576.214 506.326C578.741 510.481 577.906 513.756 573.652 516.321C567.47 520.047 561.284 523.763 555.098 527.482C551.585 529.596 549.149 529.274 546.039 526.136Z" fill="#EFA81A"/>
<path d="M350.03 595.022C350.03 587.437 350.097 580.113 349.995 572.794C349.957 569.99 349.634 567.179 349.253 564.399C348.81 561.166 349.94 559.398 353.166 559.149C355.174 558.995 357.238 559.04 359.227 559.331C364.863 560.161 367.596 563.323 367.619 569.018C367.667 581.016 367.636 593.014 367.636 605.012C367.636 612.334 367.646 619.655 367.629 626.974C367.619 630.933 366.029 634.052 362.353 635.716C356.619 638.313 350.255 634.118 350.08 627.572C349.917 621.577 350.033 615.576 350.03 609.58C350.028 604.815 350.03 600.051 350.03 595.022Z" fill="#EFA81A"/>
<path d="M382.97 443.147C384.241 438.032 386.208 436.437 391.14 436.425C399.867 436.406 408.594 436.382 417.319 436.441C421.076 436.465 423.643 438.508 424.494 441.886C425.188 444.652 423.88 447.908 421.18 449.292C419.91 449.942 418.329 450.252 416.885 450.269C408.246 450.354 399.609 450.333 390.97 450.305C386.042 450.286 383.833 448.33 382.97 443.147Z" fill="#EFA81A"/>
<path d="M407.286 426.095C404.996 426.093 402.97 426.159 400.945 426.074C396.601 425.891 393.422 422.595 393.475 418.421C393.522 414.332 396.596 411.092 400.877 411.016C407.831 410.891 414.792 410.898 421.749 411.014C426.107 411.085 429.333 414.498 429.262 418.617C429.193 422.741 425.913 425.991 421.554 426.072C416.887 426.157 412.218 426.095 407.286 426.095Z" fill="#EFA81A"/>
<path d="M393.587 476.95C391.539 476.651 389.617 476.658 387.977 475.987C385.178 474.842 383.782 471.745 384.301 468.801C384.834 465.781 387.107 463.314 390.139 463.228C396.557 463.044 402.99 463.003 409.404 463.226C413.094 463.354 415.471 466.554 415.291 470.356C415.116 474.048 412.279 476.843 408.363 476.921C403.523 477.021 398.681 476.95 393.587 476.95Z" fill="#EFA81A"/>
<path d="M369.025 440.758C369.314 446.892 366.166 450.232 360.238 450.3C357.776 450.329 355.306 450.393 352.848 450.274C348.188 450.044 344.839 446.534 344.908 442.092C344.979 437.67 348.432 434.273 353.087 434.131C355.548 434.057 358.015 434.093 360.48 434.121C365 434.174 367.633 436.176 369.025 440.758Z" fill="#EFA81A"/>
<path d="M362.87 532.825C366.482 533.065 368.591 534.951 369.535 538.144C370.426 541.166 369.146 543.581 366.866 545.361C364.662 547.084 362.315 548.708 359.817 549.945C356.897 551.389 353.868 550.625 352.078 548.513C350.196 546.295 350.118 543.674 352.178 540.723C354.794 536.98 357.859 533.721 362.87 532.825Z" fill="#EFA81A"/>
<path d="M513.528 356.029C512.298 361.167 508.569 364.066 504.068 363.571C499.783 363.097 496.446 359.556 496.275 355.294C496.102 351.032 499.155 347.207 503.364 346.413C508.979 345.353 513.554 349.568 513.528 356.029Z" fill="#EFA81A"/>
</svg>
