<svg width="1000" height="1000" viewBox="0 0 1000 1000" fill="none" xmlns="http://www.w3.org/2000/svg">
<g clip-path="url(#clip0_53026_18489)">
<path d="M572.047 108.358C575.071 93.1818 581.555 78.9072 590.995 66.6448C641.115 2.4872 733.049 40.6792 781.756 85.9392C860.67 159.248 901.912 269.459 896.754 377.116C891.595 484.773 841.797 588.387 765.463 664.399C689.128 740.411 587.547 789.218 481.453 807.867C363.157 828.699 205.305 826.393 128.871 717.174C72.3273 636.4 75.5017 518.054 138.047 441.447C150.876 425.704 166.019 411.999 182.96 400.8C249.201 357.127 329.776 361.393 405.019 348.373C456.38 339.47 513.222 318.464 544.023 273.973C577.999 225.142 560.168 163.018 572.047 108.358Z" fill="#EDA91A"/>
<path opacity="0.9" d="M572.047 108.358C575.071 93.1818 581.555 78.9072 590.995 66.6448C641.115 2.4872 733.049 40.6792 781.756 85.9392C860.67 159.248 901.912 269.459 896.754 377.116C891.595 484.773 841.797 588.387 765.463 664.399C689.128 740.411 587.547 789.218 481.453 807.867C363.157 828.699 205.305 826.393 128.871 717.174C72.3273 636.4 75.5017 518.054 138.047 441.447C150.876 425.704 166.019 411.999 182.96 400.8C249.201 357.127 329.776 361.393 405.019 348.373C456.38 339.47 513.222 318.464 544.023 273.973C577.999 225.142 560.168 163.018 572.047 108.358Z" fill="white"/>
<path d="M659.12 360.376C659.12 360.376 659.814 352.266 657.681 349.489C655.549 346.711 630.401 330.591 629.137 332.352C627.872 334.113 622.664 347.232 622.961 351.076C623.259 354.92 642.454 371.883 645.281 369.8C648.109 367.717 659.12 360.376 659.12 360.376Z" fill="#B97964"/>
<path d="M777.738 324.193C758.642 326.152 725.782 384.531 716.457 384.035C707.133 383.539 653.664 354.126 653.664 354.126L644.24 368.337C644.24 368.337 703.76 410.72 719.905 409.753C736.049 408.786 782.202 352.167 782.202 352.167L777.738 324.193Z" fill="#B97964"/>
<path d="M801.893 792.367C817.716 812.207 831.926 830.311 844.326 843.455C856.726 856.773 863.124 865.031 863.124 865.031L875.376 857.988C875.376 857.988 864.042 840.058 848.666 815.332C835.596 794.351 819.6 768.46 805.068 744.478C786.269 713.478 769.926 685.678 765.611 675.733C762.536 668.665 770.868 641.509 780.069 615.915C789.419 589.85 799.686 565.373 799.686 565.373L766.231 508.705C766.231 508.705 752.616 546.426 740.513 586.23C732.552 612.27 725.311 639.227 722.856 657.133C719.433 682.156 762.61 743.04 801.893 792.367Z" fill="#B97964"/>
<path opacity="0.2" d="M801.77 792.367C817.592 812.207 832.794 830.311 844.103 843.455C845.715 835.37 847.352 825.798 848.642 815.357C835.572 794.376 819.576 768.485 805.043 744.503C805.352 760.523 804.256 776.539 801.77 792.367Z" fill="black"/>
<path opacity="0.2" d="M740.514 586.254L780.07 616.014C789.419 589.95 799.686 565.472 799.686 565.472L766.231 508.804C766.231 508.804 752.616 546.45 740.514 586.254Z" fill="black"/>
<path d="M809.606 893.998L823.866 895.858C823.866 895.858 844.326 795.145 843.706 712.04C851.304 684.539 857.233 656.605 861.463 628.39C866.423 594.364 868.903 556.47 862.306 528.198L812.706 550.518L811.69 624.918L810.846 686.918L809.606 893.998Z" fill="#B97964"/>
<path opacity="0.2" d="M811.689 624.918L861.463 628.39C866.423 594.364 868.903 556.47 862.306 528.198L812.706 550.518L811.689 624.918Z" fill="black"/>
<path d="M874.557 850.201C873.094 849.134 860.744 867.561 860.744 867.561C860.744 867.561 863.497 886.83 857.942 899.28C852.386 911.73 863.199 910.663 872.177 898.858L894.497 869.718C900.845 861.435 889.76 861.212 874.557 850.201Z" fill="#263238"/>
<path d="M856.181 881.647C855.837 881.607 855.506 881.5 855.205 881.331C854.904 881.161 854.639 880.934 854.427 880.662C854.215 880.389 854.059 880.077 853.968 879.744C853.877 879.411 853.854 879.063 853.899 878.721C854.312 877.088 855.17 875.603 856.379 874.43C854.519 875.298 852.634 875.844 851.667 875.174C850.7 874.505 850.824 873.984 851.072 872.893C851.156 872.404 851.349 871.941 851.636 871.538C851.924 871.134 852.299 870.8 852.733 870.562C855.561 868.925 860.769 870.562 861.041 870.562L861.24 870.686V870.834V871.008V871.231C860.893 872.843 859.082 880.829 856.28 881.498L856.181 881.647ZM860 872.719C858.041 874.381 855.288 877.059 855.04 878.87C855.008 879.043 855.014 879.221 855.057 879.392C855.099 879.563 855.178 879.723 855.288 879.862C855.833 880.556 856.181 880.482 856.305 880.457C857.52 880.134 859.107 876.166 860 872.719ZM856.106 871.008C855.179 870.965 854.257 871.161 853.428 871.578C853.139 871.742 852.89 871.967 852.697 872.236C852.505 872.506 852.373 872.815 852.312 873.141C852.312 873.463 852.163 874.034 852.312 874.207C853.155 874.778 856.453 873.314 859.429 871.454C858.342 871.182 857.227 871.033 856.106 871.008Z" fill="#EDA91A"/>
<path d="M828.925 886.88C828.925 885.07 806.605 886.483 806.605 886.483C806.605 886.483 792.965 900.371 779.697 903.496C766.429 906.621 773.845 914.582 788.675 914.582H825.354C835.944 914.458 829.372 905.48 828.925 886.88Z" fill="#263238"/>
<path d="M794.999 892.038C794.314 892.088 793.633 891.904 793.065 891.518C792.737 891.233 792.508 890.851 792.41 890.428C792.312 890.005 792.35 889.562 792.519 889.162C792.594 888.837 792.739 888.533 792.945 888.272C793.151 888.01 793.412 887.798 793.71 887.649C795.281 887.012 796.998 886.823 798.67 887.103C796.884 886.136 795.297 884.97 795.222 883.805C795.222 883.036 795.669 882.416 796.686 881.945C797.136 881.736 797.627 881.628 798.124 881.628C798.621 881.628 799.112 881.736 799.562 881.945C802.563 883.21 804.522 888.343 804.522 888.616C804.545 888.689 804.545 888.767 804.522 888.839C804.533 888.905 804.533 888.972 804.522 889.038C804.529 889.087 804.529 889.137 804.522 889.186C804.474 889.256 804.404 889.308 804.324 889.335C801.397 890.774 798.241 891.689 794.999 892.038ZM796.909 888.17C796.005 888.122 795.104 888.292 794.28 888.666C794.127 888.741 793.992 888.848 793.885 888.981C793.777 889.114 793.701 889.269 793.66 889.434C793.437 890.302 793.66 890.526 793.809 890.6C794.85 891.468 798.918 890.253 802.191 888.864C800.459 888.451 798.689 888.218 796.909 888.17ZM798.198 882.738C797.846 882.753 797.501 882.837 797.182 882.986C796.884 883.135 796.388 883.433 796.388 883.73C796.388 884.722 799.637 886.458 802.91 887.698C802.191 885.744 800.86 884.074 799.116 882.937C798.826 882.813 798.514 882.746 798.198 882.738Z" fill="#EDA91A"/>
<path d="M789.667 601.978L736 573.879C752.889 522.593 768.091 493.527 768.091 493.527C820.816 502.554 816.005 544.218 816.005 544.218C816.005 544.218 802.588 572.044 789.667 601.978Z" fill="#263238"/>
<path opacity="0.1" d="M793.04 594.066C791.899 596.67 790.734 599.324 789.593 601.978L736 573.879C752.864 522.593 768.066 493.527 768.066 493.527C800.604 499.107 811.218 517.112 814.591 530.082C815.839 534.684 816.308 539.462 815.98 544.218C815.98 544.218 804.894 567.332 793.04 594.066Z" fill="white"/>
<path opacity="0.2" d="M793.04 594.066C804.82 567.332 815.955 544.218 815.955 544.218C816.283 539.462 815.814 534.684 814.566 530.082C812.89 528.996 811.034 528.216 809.086 527.776C809.086 527.776 794.826 550.27 793.04 594.066Z" fill="black"/>
<path d="M806.283 613.559L808.118 527.776L765.611 515.376C765.611 515.376 768.959 476.018 773.919 456.625C773.919 456.625 842.987 439.438 853.502 462.85C853.502 462.85 853.502 463.222 853.651 463.346L853.824 463.544C853.824 463.544 873.664 498.462 867.737 613.584L806.283 613.559Z" fill="#263238"/>
<path opacity="0.1" d="M806.283 613.559L808.118 527.776L765.611 515.376C765.611 515.376 768.959 476.018 773.919 456.625C773.919 456.625 842.987 439.438 853.502 462.85C853.502 462.85 853.502 463.222 853.651 463.346L853.824 463.544C853.824 463.544 873.664 498.462 867.737 613.584L806.283 613.559Z" fill="white"/>
<path d="M854.246 450.946V462.651L774.886 456.526V442.662L854.246 450.946Z" fill="#263238"/>
<path d="M826.41 466.132L830.373 466.335L831.407 446.125L827.445 445.922L826.41 466.132Z" fill="#263238"/>
<path d="M791.558 458.745L809.046 460.312L810.235 447.048L792.747 445.481L791.558 458.745Z" fill="white"/>
<path d="M775.768 460.997L779.736 461.195L780.748 440.959L776.78 440.76L775.768 460.997Z" fill="#263238"/>
<path opacity="0.1" d="M827.463 446.054L826.428 466.265L830.391 466.468L831.425 446.257L827.463 446.054Z" fill="white"/>
<path opacity="0.1" d="M778.49 440.623L777.459 460.834L781.422 461.036L782.453 440.825L778.49 440.623Z" fill="white"/>
<path d="M773.919 444.076L853.874 450.995C855.784 421.235 857.668 402.09 875.276 349.117C876.814 344.471 878.467 339.552 880.236 334.361C869.396 330.92 858.324 328.259 847.104 326.4C835.237 324.295 823.237 323.027 811.193 322.606C795.619 322.606 777.763 324.242 777.763 324.242C777.763 324.242 775.283 324.862 773.621 341.33C772.133 356.78 770.72 387.755 773.919 444.076Z" fill="#EDA91A"/>
<path opacity="0.6" d="M880.262 334.361C878.451 339.544 876.79 344.479 875.302 349.117C873.814 353.754 872.127 358.764 870.738 363.178C867.465 373.594 864.886 382.572 862.827 390.458C857.712 410.23 854.719 430.49 853.899 450.896L773.944 443.977C770.72 387.656 772.158 356.681 773.622 341.181C775.234 324.714 777.763 324.094 777.763 324.094C777.763 324.094 782.5 323.622 789.245 323.201C795.569 322.779 803.654 322.407 811.194 322.457C823.233 322.926 835.225 324.244 847.079 326.4C853.949 327.541 860.769 328.88 867.489 330.715C871.788 331.806 876.046 333.022 880.262 334.361Z" fill="white"/>
<path d="M872.846 610.038L802.786 609.418L804.026 619.958L869.746 619.338L872.846 610.038Z" fill="#EDA91A"/>
<path d="M794.106 601.358L735.826 569.738L732.726 579.038L789.146 606.938L794.106 601.358Z" fill="#EDA91A"/>
<path d="M817.84 340.238C837.556 337.758 843.483 329.277 843.483 329.277C835.423 321.688 836.886 310.478 838.944 303.485C839.584 301.268 840.414 299.111 841.424 297.037L817.567 301.6C818.114 304.88 818.421 308.195 818.484 311.52C818.573 314.018 818.348 316.518 817.815 318.96C816.203 326.053 812.16 326.152 812.16 326.152C807.92 333.84 817.84 340.238 817.84 340.238Z" fill="#B97964"/>
<path opacity="0.2" d="M818.484 311.52C818.573 314.018 818.348 316.518 817.815 318.96C827.239 317.72 834.381 310.181 838.87 303.634C839.51 301.417 840.339 299.26 841.35 297.186L817.567 301.6C818.114 304.88 818.421 308.195 818.484 311.52Z" fill="black"/>
<path d="M853.006 239.997C853.006 239.997 866.696 227.894 880.286 234.094C893.877 240.294 895.166 250.14 889.958 260.928C884.75 271.716 880.51 281.19 886.214 285.108C891.918 289.026 890.281 297.88 884.726 300.484C879.17 303.088 875.55 306.411 881.774 309.189C881.774 309.189 880.782 309.734 875.55 306.411C870.317 303.088 874.582 299.467 876.219 297.037C877.856 294.606 874.905 297.632 869.994 290.539C865.084 283.446 868.358 275.659 870.986 267.5C873.615 259.341 855.486 260.432 855.486 260.432L853.006 239.997Z" fill="#263238"/>
<path d="M843.037 229.68C843.037 229.68 828.38 220.058 813.277 221.918C798.174 223.778 783.963 241.435 788.303 253.885C792.643 266.334 797.206 272.187 792.966 276.775C788.725 281.363 786.914 289.721 792.643 293.342C791.631 292.209 791.071 290.744 791.071 289.225C791.071 287.706 791.631 286.24 792.643 285.108C796.239 280.694 809.706 282.975 813.277 273.006C816.848 263.036 834.158 260.432 834.158 260.432L844.475 293.441C844.475 293.441 860.645 288.952 862.282 265.541C863.918 242.13 856.478 227.398 843.037 229.68Z" fill="#263238"/>
<path d="M822.403 235.756C801.769 236.525 795.544 247.834 794.825 269.162C793.908 295.797 800.504 314.471 826.098 307.825C860.868 298.822 856.676 234.491 822.403 235.756Z" fill="#B97964"/>
<path d="M808.118 267.5C806.574 270.644 804.659 273.591 802.414 276.279C803.05 277.109 803.903 277.748 804.879 278.124C805.855 278.501 806.916 278.6 807.944 278.412L808.118 267.5Z" fill="#A24E3F"/>
<path d="M820.692 265.342C820.692 267.054 821.634 268.418 822.775 268.393C823.916 268.368 824.809 266.979 824.784 265.293C824.759 263.606 823.817 262.242 822.676 262.242C821.535 262.242 820.667 263.656 820.692 265.342Z" fill="#263238"/>
<path d="M823.172 262.317L819.452 260.928C819.452 260.928 821.336 264.003 823.172 262.317Z" fill="#263238"/>
<path d="M799.587 265.293C799.587 266.979 800.529 268.343 801.67 268.318C802.811 268.294 803.704 266.93 803.679 265.218C803.654 263.507 802.712 262.168 801.596 262.193C800.48 262.218 799.562 263.582 799.587 265.293Z" fill="#263238"/>
<path d="M802.067 262.267L798.347 260.854C798.347 260.854 800.232 263.929 802.067 262.267Z" fill="#263238"/>
<path d="M820.32 251.082C821.943 250.824 823.603 250.943 825.173 251.428C826.742 251.914 828.179 252.755 829.372 253.885" stroke="#263238" stroke-width="0.707962" stroke-linecap="round" stroke-linejoin="round"/>
<path d="M805.44 250.76C804.017 250.456 802.543 250.479 801.129 250.827C799.716 251.175 798.4 251.839 797.281 252.769" stroke="#263238" stroke-width="0.707962" stroke-linecap="round" stroke-linejoin="round"/>
<path d="M811.268 286.422C812.331 288.719 813.226 291.089 813.946 293.515L815.261 293.342C821.238 292.498 823.742 290.142 824.71 287.762C825.171 286.648 825.366 285.442 825.28 284.24C825.23 283.536 825.079 282.843 824.834 282.182C821.363 284.327 817.473 285.705 813.426 286.224C812.062 286.348 811.268 286.422 811.268 286.422Z" fill="#263238"/>
<path d="M813.301 286.1L814.144 288.183C819.774 287.39 823.643 286.075 825.156 284.116C825.105 283.412 824.955 282.719 824.709 282.058C821.238 284.203 817.349 285.581 813.301 286.1Z" fill="white"/>
<path d="M815.36 293.342C821.337 292.498 823.841 290.142 824.809 287.762C822.536 288.133 820.346 288.896 818.336 290.018C817.027 290.796 815.989 291.956 815.36 293.342Z" fill="#DE5753"/>
<path d="M846.261 269.707C846.261 269.707 835.969 253.116 836.961 239.947C836.961 239.947 795.445 224.745 794.949 266.334C794.949 266.334 789.593 229.63 825.032 227.498C860.471 225.365 862.232 277.271 844.5 293.416C844.5 293.441 852.56 280.098 846.261 269.707Z" fill="#263238"/>
<path d="M843.036 274.32C843.152 271.925 844.211 269.673 845.981 268.056C847.752 266.439 850.09 265.589 852.485 265.69C858.908 266.136 862.405 279.156 846.657 282.901C844.376 283.322 843.012 281.14 843.036 274.32Z" fill="#B97964"/>
<path d="M836.96 239.972C834.999 243.558 833.936 247.566 833.86 251.653C833.86 258.126 842.888 270.55 843.036 274.196C843.185 277.842 840.556 284.116 843.408 287.762C842.953 286.077 843.014 284.294 843.585 282.644C844.155 280.995 845.208 279.555 846.608 278.511C851.568 275.138 855.982 264.822 850.476 257.555C844.971 250.289 850.228 240.865 850.228 240.865C850.228 240.865 842.64 232.16 836.96 239.972Z" fill="#263238"/>
<path d="M880.261 334.361C904.913 355.342 846.434 414.738 818.261 428.601C790.089 442.464 692.451 459.229 692.451 459.229L690.492 442.662C690.492 442.662 792.172 419.078 805.291 406.107C818.41 393.137 875.401 330.219 880.261 334.361Z" fill="#B97964"/>
<path d="M690.467 442.662C690.467 442.662 683.597 438.273 680.15 438.868C676.703 439.463 650.737 454.318 651.705 456.228C652.672 458.138 661.997 468.901 665.444 470.389C668.891 471.877 692.922 462.75 692.426 459.229C691.93 455.707 690.467 442.662 690.467 442.662Z" fill="#B97964"/>
<path d="M867.44 330.666C859.231 339.147 841.251 351.101 814.517 349.042C790.833 347.232 788.849 330.07 789.171 323.3C795.495 322.878 803.58 322.506 811.119 322.556C823.181 322.989 835.198 324.274 847.079 326.4C853.949 327.491 860.769 328.88 867.44 330.666Z" fill="#B97964"/>
<path d="M353.014 895.411L373.771 897.594L377.665 852.83L356.907 850.647L353.014 895.411Z" fill="#EBB376"/>
<path d="M249.474 893.898H269.586L271.248 847.324H251.11L249.474 893.898Z" fill="#EBB376"/>
<path d="M272.364 891.567H247.936C247.535 891.57 247.147 891.708 246.836 891.961C246.525 892.213 246.309 892.564 246.225 892.956L242.257 910.862C242.177 911.241 242.172 911.633 242.244 912.014C242.315 912.395 242.461 912.758 242.673 913.083C242.885 913.408 243.159 913.687 243.479 913.906C243.799 914.125 244.159 914.279 244.538 914.358C244.761 914.383 244.985 914.383 245.208 914.358C253.094 914.234 258.848 913.738 268.793 913.738C274.894 913.738 293.345 914.383 301.777 914.383C310.209 914.383 311.325 906.051 307.878 905.282C292.378 901.909 280.598 897.222 275.638 892.758C274.726 891.978 273.563 891.555 272.364 891.567Z" fill="#263238"/>
<path d="M273.753 894.32C273.658 894.3 273.571 894.252 273.504 894.181C273.437 894.11 273.394 894.02 273.381 893.923C273.371 893.832 273.386 893.739 273.426 893.656C273.465 893.573 273.527 893.502 273.604 893.452C274.323 893.006 280.821 889.013 283.053 890.154C283.306 890.271 283.519 890.461 283.665 890.699C283.811 890.938 283.883 891.214 283.871 891.493C283.921 891.956 283.857 892.424 283.684 892.856C283.511 893.288 283.235 893.672 282.879 893.973C281.745 894.746 280.379 895.105 279.011 894.99C277.238 894.966 275.474 894.742 273.753 894.32ZM275.117 893.675C277.469 894.45 280.025 894.317 282.284 893.303C282.524 893.093 282.709 892.827 282.822 892.529C282.934 892.23 282.971 891.908 282.929 891.592C282.929 891.195 282.755 891.022 282.631 891.022C282.441 890.921 282.226 890.878 282.011 890.898C279.554 891.378 277.213 892.33 275.117 893.7V893.675Z" fill="#EDA91A"/>
<path d="M273.604 894.444C273.536 894.397 273.48 894.334 273.441 894.26C273.403 894.187 273.382 894.105 273.381 894.022C273.381 893.75 273.902 887.946 276.233 886.062C276.509 885.828 276.829 885.653 277.174 885.546C277.519 885.44 277.882 885.404 278.242 885.442C278.605 885.441 278.957 885.567 279.238 885.797C279.519 886.028 279.71 886.35 279.779 886.706C280.201 888.839 276.183 893.254 274.1 894.37H273.877C273.839 894.4 273.795 894.423 273.748 894.436C273.701 894.449 273.652 894.451 273.604 894.444ZM276.828 886.632C275.414 888.44 274.591 890.639 274.472 892.931C276.53 891.369 279.085 887.971 278.837 886.706C278.837 886.582 278.837 886.21 278.142 886.21H277.919C277.516 886.212 277.127 886.362 276.828 886.632Z" fill="#EDA91A"/>
<path d="M375.953 890.922H351.6C351.199 890.925 350.811 891.063 350.5 891.316C350.189 891.568 349.973 891.92 349.889 892.311L345.921 910.217C345.766 910.989 345.921 911.791 346.353 912.45C346.784 913.109 347.457 913.571 348.227 913.738H348.872C356.783 913.614 362.537 913.118 372.457 913.118C378.557 913.118 397.009 913.763 405.441 913.763C413.873 913.763 414.989 905.43 411.541 904.662C396.041 901.289 384.261 896.602 379.301 892.262C378.393 891.411 377.198 890.933 375.953 890.922Z" fill="#263238"/>
<path d="M377.342 893.725C377.245 893.7 377.157 893.647 377.091 893.572C377.024 893.497 376.982 893.403 376.97 893.303C376.963 893.209 376.982 893.115 377.026 893.032C377.07 892.948 377.137 892.879 377.218 892.832C377.938 892.386 384.435 888.393 386.642 889.534C386.896 889.651 387.109 889.841 387.255 890.079C387.4 890.318 387.472 890.594 387.461 890.873C387.522 891.337 387.463 891.808 387.289 892.243C387.115 892.677 386.833 893.059 386.469 893.353C385.336 894.13 383.968 894.489 382.6 894.37C380.83 894.341 379.067 894.125 377.342 893.725ZM378.731 893.055C381.071 893.853 383.629 893.72 385.874 892.683C386.114 892.473 386.299 892.207 386.411 891.909C386.524 891.61 386.56 891.288 386.518 890.972C386.518 890.6 386.345 890.402 386.221 890.402C386.027 890.311 385.815 890.268 385.601 890.278C383.152 890.746 380.818 891.69 378.731 893.055Z" fill="#EDA91A"/>
<path d="M377.218 893.824C377.144 893.775 377.082 893.709 377.039 893.632C376.996 893.554 376.972 893.467 376.97 893.378C376.97 893.105 377.491 887.326 379.822 885.417C380.093 885.177 380.414 884.999 380.761 884.897C381.108 884.794 381.473 884.768 381.831 884.822C382.192 884.815 382.544 884.935 382.825 885.162C383.106 885.389 383.299 885.707 383.369 886.062C383.79 888.194 379.773 892.609 377.689 893.75H377.466C377.392 893.797 377.306 893.823 377.218 893.824ZM380.442 885.987C378.986 887.781 378.12 889.981 377.962 892.286C380.021 890.724 382.575 887.326 382.327 886.062C382.327 885.938 382.327 885.59 381.633 885.59H381.409C381.053 885.615 380.714 885.754 380.442 885.987Z" fill="#EDA91A"/>
<path opacity="0.2" d="M356.907 850.647L377.665 852.83L375.631 875.918L354.874 873.736L356.907 850.647Z" fill="black"/>
<path opacity="0.2" d="M251.11 847.349H271.248L270.38 871.355H250.242L251.11 847.349Z" fill="black"/>
<path d="M259.418 438.744H366.058C376.202 494.147 407.97 690.241 385.179 864.957L349.12 860.493C349.12 860.493 352.468 628.538 320.575 542.78C316.905 588.685 312.54 637.516 308.77 663.482C299.52 727.441 279.68 867.189 279.68 867.189H242.827C242.827 867.189 250.267 733.418 253.814 670.574C257.608 602.35 259.27 452.88 259.418 438.744Z" fill="#263238"/>
<path opacity="0.2" d="M259.418 438.744H366.058C376.202 494.147 407.97 690.241 385.179 864.957L349.12 860.493C349.12 860.493 352.468 628.538 320.575 542.78C316.905 588.685 312.54 637.516 308.77 663.482C299.52 727.441 279.68 867.189 279.68 867.189H242.827C242.827 867.189 250.267 733.418 253.814 670.574C257.608 602.35 259.27 452.88 259.418 438.744Z" fill="white"/>
<path d="M370.696 268.467C370.696 268.467 435.176 329.302 464.936 339.47C494.696 349.638 571.204 387.309 571.204 387.309L582.934 378.058C582.934 377.538 591.49 384.159 591.589 388.747C591.589 392.07 583.182 419.921 581.421 419.896C573.237 419.896 564.185 401.147 564.185 401.147C564.185 401.147 466.225 375.628 448.642 367.94C431.059 360.252 358.742 303.807 358.742 303.807L370.696 268.467Z" fill="#EBB376"/>
<path d="M356.386 253.86C371.118 253.414 448.816 321.614 454.842 328.483C460.869 335.353 521.232 355.937 528.077 366.254C534.922 376.57 524.654 388.747 507.964 390.235C491.274 391.723 376.202 340.065 358.693 314.893C341.184 289.721 356.386 253.86 356.386 253.86Z" fill="#EDA91A"/>
<path opacity="0.2" d="M356.386 253.86C371.118 253.414 448.816 321.614 454.842 328.483C460.869 335.353 521.232 355.937 528.077 366.254C534.922 376.57 524.654 388.747 507.964 390.235C491.274 391.723 376.202 340.065 358.693 314.893C341.184 289.721 356.386 253.86 356.386 253.86Z" fill="black"/>
<path d="M394.256 309.561L402.762 482.367H518.281L606.569 461.238V298.798L483.04 298.103L394.256 309.561Z" fill="#EDA91A"/>
<path opacity="0.6" d="M394.256 309.561L402.762 482.367H518.281L606.569 461.238V298.798L483.04 298.103L394.256 309.561Z" fill="white"/>
<path opacity="0.2" d="M394.256 309.561L511.411 313.504L518.281 482.367H402.762L394.256 309.561Z" fill="white"/>
<path opacity="0.4" d="M511.411 313.504L606.569 298.798L483.04 298.103L394.256 309.561L511.411 313.504Z" fill="white"/>
<path opacity="0.2" d="M438.028 311.024L453.032 308.693L471.681 309.561L454.842 311.594V321.093L438.797 319.977L438.028 311.024Z" fill="black"/>
<path opacity="0.2" d="M526.465 298.351L521.554 299.368H538.22L544.271 298.45L526.465 298.351Z" fill="black"/>
<path opacity="0.2" d="M518.281 327.491L519.595 344.182L551.314 338.775V322.358L518.281 327.491Z" fill="black"/>
<path opacity="0.2" d="M567.98 445.068V465.33L602.65 457.17V438.744L567.98 445.068Z" fill="black"/>
<path opacity="0.2" d="M479.37 438.744C479.37 438.744 482.643 448.887 488.843 452.037V469.595L484.106 474.555H500.4L491.77 469L491.447 452.111C493.907 450.771 496.007 448.855 497.566 446.527C499.125 444.2 500.097 441.529 500.4 438.744H491.472L489.885 444.076L492.762 444.398L489.885 450.4V447.325H487.529L489.885 438.843L479.37 438.744Z" fill="black"/>
<path opacity="0.2" d="M320.575 542.805C325.832 557.829 329.823 573.267 332.504 588.958C335.48 548.137 323.551 504.811 323.551 504.811L320.575 542.805Z" fill="black"/>
<path d="M356.387 253.86C356.387 253.86 288.509 250.562 237.917 263.334C237.917 263.334 253.343 401.42 254.31 471.009C254.335 472.492 254.656 473.954 255.253 475.312C255.85 476.669 256.712 477.894 257.788 478.915C258.864 479.935 260.133 480.731 261.52 481.256C262.907 481.78 264.385 482.023 265.867 481.97L367.77 478.424C369.24 478.373 370.686 478.032 372.023 477.42C373.361 476.808 374.565 475.938 375.565 474.859C376.565 473.781 377.343 472.515 377.852 471.135C378.361 469.755 378.593 468.287 378.533 466.818C377.045 429.593 371.192 309.263 356.387 253.86Z" fill="#EDA91A"/>
<path d="M257.137 478.226V489.857L376.797 484.054L375.879 474.506L257.137 478.226Z" fill="#263238"/>
<path d="M313.482 281.76C313.482 281.76 336.298 384.283 332.975 479.54" stroke="#263238" stroke-miterlimit="10"/>
<path d="M236.057 319.332C236.057 319.332 257.261 377.835 263.535 390.111C269.809 402.387 393.313 414.49 393.313 414.49C393.313 414.49 420.593 432.147 425.553 431.329C430.513 430.51 441.872 407.347 436.912 404.867C431.952 402.387 416.873 385.325 408.714 385.598C400.555 385.87 393.413 394.947 393.413 394.947C393.413 394.947 291.733 365.807 286.252 363.65C282.333 362.087 266.263 305.444 266.263 305.444L236.057 319.332Z" fill="#EBB376"/>
<path d="M237.942 263.334C221.152 263.755 214.977 290.936 236.057 351.349C249.598 390.235 282.086 410.869 332.975 419.896C383.865 428.923 384.807 399.61 374.193 389.466C363.578 379.323 305.224 364.294 295.825 355.788C286.426 347.282 273.182 262.466 237.942 263.334Z" fill="#EDA91A"/>
<path d="M374.193 389.466L371.019 417.044L379.575 419.896L382.551 389.466H374.193Z" fill="#263238"/>
<path opacity="0.2" d="M237.942 263.334C221.152 263.755 214.977 290.936 236.057 351.349C249.598 390.235 282.086 410.869 332.975 419.896C383.865 428.923 384.807 399.61 374.193 389.466C363.578 379.323 305.224 364.294 295.825 355.788C286.426 347.282 273.182 262.466 237.942 263.334Z" fill="black"/>
<path d="M276.505 253.86C276.505 253.86 310.283 285.207 315.987 281.859C321.691 278.511 323.427 255.869 323.427 255.869L276.505 253.86Z" fill="white"/>
<path d="M276.53 256.489C286.45 265.392 310.333 262.094 310.333 262.094C310.333 262.094 325.213 258.002 322.162 253.314C313.333 251.851 309.068 247.734 307.282 242.477C306.313 239.206 306.009 235.774 306.389 232.383C306.529 230.494 306.778 228.614 307.134 226.754L277.374 204.781C281.366 219.289 286.128 245.974 276.53 256.489Z" fill="#EBB376"/>
<path opacity="0.2" d="M284.342 218.768C285.508 236.55 300.14 241.46 307.307 242.477C306.338 239.206 306.034 235.774 306.414 232.383L284.342 218.768Z" fill="black"/>
<path d="M335.728 163.836C335.728 163.836 340.192 184.197 336.596 198.804C333 213.411 328.71 214.924 324.196 215.891C319.682 216.858 319.831 165.597 319.831 165.597L335.728 163.836Z" fill="#EDA91A"/>
<path opacity="0.5" d="M331.537 166.713C331.537 166.713 338.407 186.801 334.811 201.433C331.215 216.065 326.924 217.553 322.262 218.52C317.599 219.487 317.922 168.226 317.922 168.226L331.537 166.713Z" fill="black"/>
<path d="M329.106 157.14C329.106 157.14 337.811 183.8 325.039 196.82C312.267 209.84 303.835 158.851 303.835 158.851L329.106 157.14Z" fill="#263238"/>
<path d="M286.549 225.464C290.331 229.468 295.321 232.121 300.754 233.017C306.188 233.912 311.765 233.002 316.632 230.424C322.984 227.192 327.862 221.656 330.272 214.949C330.594 214.056 330.892 213.089 331.14 212.122C335.505 194.216 332.901 164.63 313.433 156.619C309.138 154.827 304.456 154.163 299.832 154.69C295.208 155.218 290.796 156.92 287.015 159.634C283.235 162.348 280.211 165.985 278.233 170.197C276.254 174.41 275.386 179.058 275.712 183.701C276.803 203.491 276.481 215.246 286.549 225.464Z" fill="#EBB376"/>
<path d="M305.918 189.306C305.794 190.918 306.762 192.257 307.828 192.257C308.894 192.257 309.762 190.918 309.762 189.306C309.762 187.694 308.919 186.379 307.853 186.379C306.786 186.379 305.943 187.669 305.918 189.306Z" fill="#263238"/>
<path d="M324.32 189.38C324.32 190.992 325.188 192.331 326.229 192.331C327.271 192.331 328.164 191.017 328.189 189.405C328.213 187.793 327.321 186.454 326.254 186.454C325.188 186.454 324.32 187.842 324.32 189.38Z" fill="#263238"/>
<path d="M318.418 190.174C320.332 195.133 322.919 199.806 326.106 204.062C324.992 204.857 323.717 205.397 322.372 205.646C321.026 205.895 319.643 205.845 318.318 205.5L318.418 190.174Z" fill="#D58745"/>
<path d="M300.264 183.354C300.436 183.375 300.611 183.352 300.771 183.287C300.932 183.222 301.073 183.117 301.182 182.982C301.884 182.018 302.801 181.232 303.86 180.685C304.919 180.139 306.091 179.846 307.283 179.832C307.535 179.846 307.783 179.76 307.973 179.593C308.163 179.426 308.28 179.191 308.299 178.939C308.309 178.815 308.295 178.691 308.257 178.573C308.219 178.454 308.157 178.345 308.077 178.25C307.996 178.156 307.898 178.078 307.787 178.022C307.676 177.966 307.555 177.932 307.431 177.922C305.921 177.91 304.43 178.256 303.08 178.933C301.731 179.61 300.561 180.598 299.669 181.816C299.515 182.015 299.444 182.266 299.472 182.516C299.5 182.766 299.624 182.995 299.818 183.155C299.953 183.249 300.104 183.316 300.264 183.354Z" fill="#263238"/>
<path d="M332.157 183.106C332.343 183.156 332.54 183.156 332.727 183.106C332.84 183.053 332.941 182.978 333.025 182.885C333.109 182.792 333.173 182.684 333.215 182.567C333.256 182.449 333.274 182.324 333.267 182.2C333.26 182.075 333.228 181.953 333.173 181.841C332.552 180.462 331.608 179.254 330.421 178.317C329.234 177.381 327.839 176.743 326.353 176.459C326.23 176.442 326.103 176.449 325.982 176.481C325.861 176.513 325.748 176.569 325.649 176.645C325.549 176.721 325.466 176.816 325.404 176.925C325.342 177.034 325.302 177.153 325.287 177.278C325.259 177.527 325.328 177.777 325.481 177.976C325.633 178.175 325.857 178.307 326.105 178.344C327.271 178.602 328.36 179.129 329.285 179.883C330.211 180.636 330.948 181.595 331.437 182.684C331.523 182.799 331.631 182.896 331.754 182.968C331.878 183.04 332.015 183.087 332.157 183.106Z" fill="#263238"/>
<path d="M288.385 213.337C289.438 217.329 291.502 220.982 294.378 223.945C297.253 226.907 300.844 229.079 304.802 230.25C315.863 233.276 320.997 227.572 320.997 227.572C318.16 230.493 314.462 232.428 310.445 233.093C306.428 233.758 302.304 233.118 298.677 231.267C292.21 227.981 286.803 222.934 283.078 216.71L288.385 213.337Z" fill="#263238"/>
<path d="M290.443 158.826L291.881 167.556C290.434 168.334 289.33 169.627 288.789 171.178C288.247 172.73 288.306 174.428 288.955 175.938C292.105 183.18 288.409 194.811 282.953 199.622C282.953 199.622 282.656 196.423 279.977 197.291C277.299 198.159 278.787 214.8 284.392 222.488C284.392 222.488 276.109 215.668 270.876 198.382C265.916 182.411 264.924 168.97 267.949 162.571L290.443 158.826Z" fill="#263238"/>
<path d="M266.933 199.92C269.131 204.44 273.027 207.907 277.77 209.567C284.045 211.7 287.69 206.145 286.153 200.019C284.838 194.563 280.002 186.726 273.53 187.297C267.057 187.867 264.329 194.34 266.933 199.92Z" fill="#EBB376"/>
<path d="M336.373 167.829C336.373 167.829 295.353 166.514 293.047 174.525C290.741 182.535 292.898 199.002 293.469 210.435C293.865 218.272 287.467 222.116 281.267 222.488C280.607 222.538 279.943 222.538 279.283 222.488C277.265 222.412 275.293 221.86 273.529 220.876C266.089 216.412 257.211 209.493 252.177 189.182C245.605 162.67 258.203 134.076 296.122 133.729C334.041 133.382 336.373 167.829 336.373 167.829Z" fill="#EDA91A"/>
<path opacity="0.5" d="M334.017 168.3C334.017 168.3 295.353 166.514 293.047 174.525C290.741 182.535 292.898 199.002 293.469 210.435C293.865 218.272 287.467 222.116 281.267 222.488C283.871 222.042 286.599 220.008 286.822 215.048C287.095 208.823 282.929 181.444 286.822 176.186C290.716 170.929 303.91 166.787 317.475 165.746C331.041 164.704 334.017 168.3 334.017 168.3Z" fill="black"/>
<path d="M282.16 166.862C282.16 166.862 278.142 172.02 280.101 175.17C282.061 178.319 343.614 173.161 344.358 171.623C345.102 170.086 337.439 167.382 336.298 166.663C335.157 165.944 334.835 159.223 332.603 158.578C330.371 157.934 299.52 155.801 282.16 166.862Z" fill="#263238"/>
<path d="M287.12 170.16C287.155 170.367 287.149 170.579 287.102 170.783C287.055 170.988 286.968 171.181 286.846 171.352C286.723 171.523 286.569 171.667 286.39 171.778C286.211 171.888 286.013 171.962 285.805 171.995C285.599 172.029 285.387 172.023 285.183 171.975C284.979 171.927 284.786 171.84 284.615 171.718C284.445 171.596 284.3 171.442 284.19 171.264C284.079 171.086 284.004 170.888 283.97 170.681C283.936 170.474 283.943 170.262 283.99 170.058C284.038 169.854 284.125 169.661 284.247 169.491C284.369 169.321 284.524 169.176 284.702 169.065C284.88 168.954 285.078 168.88 285.285 168.846C285.491 168.81 285.703 168.816 285.908 168.863C286.113 168.91 286.306 168.997 286.477 169.12C286.647 169.242 286.792 169.397 286.902 169.575C287.013 169.754 287.087 169.953 287.12 170.16Z" fill="#EDA91A"/>
<path d="M319.36 209.27C318.485 211.696 317.789 214.182 317.277 216.71H315.913C309.737 216.412 306.96 214.23 305.769 211.923C305.213 210.772 304.932 209.507 304.951 208.228C304.946 207.506 305.047 206.788 305.249 206.095C308.983 207.965 313.078 209.006 317.252 209.146C318.467 209.245 319.36 209.27 319.36 209.27Z" fill="#263238"/>
<path d="M317.177 209.121L316.508 211.328C310.68 211.03 306.588 210.063 304.877 208.203C304.872 207.482 304.972 206.763 305.174 206.07C308.909 207.941 313.003 208.981 317.177 209.121Z" fill="white"/>
<path d="M315.839 216.685C309.663 216.387 306.886 214.205 305.695 211.898C308.041 212.045 310.342 212.608 312.49 213.56C313.915 214.212 315.09 215.308 315.839 216.685Z" fill="#DE5753"/>
<path d="M270.231 257.382L273.505 246.048C273.505 246.048 307.853 258.82 313.482 281.859C313.482 281.859 311.002 253.91 319.509 246.048L325.361 253.488C325.361 253.488 326.105 281.388 315.987 284.81C305.869 288.233 270.231 257.382 270.231 257.382Z" fill="#EDA91A"/>
<path opacity="0.2" d="M270.231 257.382L273.505 246.048C273.505 246.048 307.853 258.82 313.482 281.859C313.482 281.859 311.002 253.91 319.509 246.048L325.361 253.488C325.361 253.488 326.105 281.388 315.987 284.81C305.869 288.233 270.231 257.382 270.231 257.382Z" fill="black"/>
<path d="M389.395 873.389L344.681 866.742L346.045 854.342L392.545 860.443L389.395 873.389Z" fill="#EDA91A"/>
<path opacity="0.6" d="M389.395 873.389L344.681 866.742L346.045 854.342L392.545 860.443L389.395 873.389Z" fill="white"/>
<path d="M284.02 867.486H240.645V854.516L285.657 853.673L284.02 867.486Z" fill="#EDA91A"/>
<path opacity="0.6" d="M284.02 867.486H240.645V854.516L285.657 853.673L284.02 867.486Z" fill="white"/>
</g>
<defs>
<clipPath id="clip0_53026_18489">
<rect width="1000" height="1000" fill="white"/>
</clipPath>
</defs>
</svg>
