<svg width="1000" height="1000" viewBox="0 0 1000 1000" fill="none" xmlns="http://www.w3.org/2000/svg">
<g clip-path="url(#clip0_53026_17866)">
<path d="M768.41 290.283C763.576 263.651 750.946 237.371 729.833 213.313C704.942 184.941 665.087 154.864 609.675 158.605C507.352 165.532 500.13 235.704 433.161 216.462C357.303 194.664 266.074 198.423 235.479 267.855C177.363 399.736 444.236 584.954 601.286 550.674C699.053 529.339 794.097 431.646 768.41 290.283Z" fill="#EDA91A"/>
<path opacity="0.9" d="M768.41 290.283C763.576 263.651 750.946 237.371 729.833 213.313C704.942 184.941 665.087 154.864 609.675 158.605C507.352 165.532 500.13 235.704 433.161 216.462C357.303 194.664 266.074 198.423 235.479 267.855C177.363 399.736 444.236 584.954 601.286 550.674C699.053 529.339 794.097 431.646 768.41 290.283Z" fill="white"/>
<path d="M278.63 674.721C293.446 650.941 278.464 635.44 260.74 622.309C243.016 609.178 219.774 603.771 198.068 607.715C207.569 610.179 212.773 621.439 211.106 631.106C209.44 640.774 202.513 648.756 194.735 654.738C189.512 658.756 183.734 662.164 179.252 666.998C174.77 671.832 171.696 678.647 173.381 685.018C175.066 691.389 182.993 696 188.66 692.648C175.955 699.408 166.992 712.761 165.584 727.095C164.177 741.411 170.233 755.061 188.753 761.746L294.132 762.672C314.392 759.709 330.912 740.3 330.616 719.817C330.32 699.334 308.762 673.572 278.612 674.739L278.63 674.721Z" fill="#EDA91A"/>
<g opacity="0.8">
<path d="M278.63 674.721C293.446 650.941 278.464 635.44 260.74 622.309C243.016 609.178 219.774 603.771 198.068 607.715C207.569 610.179 212.773 621.439 211.106 631.106C209.44 640.774 202.513 648.756 194.735 654.738C189.512 658.756 183.734 662.164 179.252 666.998C174.77 671.832 171.696 678.647 173.381 685.018C175.066 691.389 182.993 696 188.66 692.648C175.955 699.408 166.992 712.761 165.584 727.095C164.177 741.411 170.233 755.061 188.753 761.746L294.132 762.672C314.392 759.709 330.912 740.3 330.616 719.817C330.32 699.334 308.762 673.572 278.612 674.739L278.63 674.721Z" fill="white"/>
</g>
<path opacity="0.3" d="M198.92 607.734C196.161 607.586 267.667 633.366 240.998 659.608C214.644 685.536 188.679 692.648 188.679 692.648C188.679 692.648 223.626 684.647 244.479 665.85C264.703 647.626 255.61 610.79 198.902 607.734H198.92Z" fill="#EDA91A"/>
<path d="M182.789 686.259C177.456 678.98 183.512 668.739 190.957 665.831C185.215 671.165 180.363 678.24 182.789 686.259Z" fill="white"/>
<path d="M173.214 730.429C167.881 723.151 173.937 712.909 181.382 710.001C175.641 715.335 170.788 722.41 173.214 730.429Z" fill="white"/>
<path d="M256.869 764.395C256.869 764.395 263.611 718.669 262.111 681.203C260.944 651.978 259.11 594.251 260.981 557.526C262.851 520.801 264.148 470.871 265.703 466.593C267.148 462.611 477.739 446.314 594.73 430.46C606.712 428.831 778.133 473.427 778.541 476.612C779.282 482.613 757.539 679.703 757.539 702.186C757.539 724.669 753.039 764.395 753.039 764.395H256.869Z" fill="#EDA91A"/>
<path opacity="0.7" d="M256.869 764.395C256.869 764.395 263.611 718.669 262.111 681.203C260.944 651.978 259.11 594.251 260.981 557.526C262.851 520.801 264.148 470.871 265.703 466.593C267.148 462.611 477.739 446.314 594.73 430.46C606.712 428.831 778.133 473.427 778.541 476.612C779.282 482.613 757.539 679.703 757.539 702.186C757.539 724.669 753.039 764.395 753.039 764.395H256.869Z" fill="white"/>
<path d="M714.499 694.389C704.016 687.148 661.291 694.296 639.53 694.389C617.769 694.482 579.08 691.63 554.893 693.63C530.706 695.63 266.315 692.963 262.314 693.63C262.314 693.63 262.185 702.038 261.24 716.724C260.277 731.633 256.869 751.745 256.869 751.745C256.869 751.745 712.517 752.486 717.74 751.745C722.999 751.005 724.999 701.649 714.517 694.407L714.499 694.389Z" fill="#EDA91A"/>
<g opacity="0.3">
<path d="M705.313 542.784C704.016 540.303 700.646 537.506 697.905 538.08H697.608C694.164 538.099 690.497 539.025 688.163 541.58C685.83 544.136 685.459 548.6 688.052 550.877C689.756 552.378 692.219 552.6 694.497 552.729C697.849 552.896 701.59 552.822 704.035 550.526C706.072 548.599 706.628 545.284 705.313 542.803V542.784Z" fill="black"/>
</g>
<g opacity="0.3">
<path d="M696.219 557.878C695.627 556.767 694.108 555.489 692.867 555.748H692.738C691.182 555.748 689.534 556.174 688.478 557.322C687.422 558.471 687.256 560.489 688.422 561.526C689.2 562.212 690.293 562.304 691.33 562.36C692.849 562.434 694.534 562.397 695.645 561.36C696.571 560.489 696.812 558.989 696.219 557.878Z" fill="black"/>
</g>
<path d="M619.787 448.832C619.787 448.832 618.861 451.221 619.787 452.277C620.713 453.333 622.825 456.777 626.14 456.518C629.455 456.259 627.603 451.499 627.603 451.499C627.603 451.499 628.399 450.184 626.14 449.518C623.88 448.851 620.065 447.888 619.787 448.851V448.832Z" fill="#EDA91A"/>
<path d="M674.088 468.315C674.088 468.315 674.607 465.815 673.514 464.926C672.421 464.037 669.773 461 666.55 461.815C663.328 462.63 665.958 467.019 665.958 467.019C665.958 467.019 665.402 468.463 667.717 468.741C670.051 469.019 673.977 469.334 674.088 468.334V468.315Z" fill="#EDA91A"/>
<path d="M641.345 449.369C640.807 449.48 636.974 450.036 636.455 451.61C635.918 453.203 637.381 453.999 638.9 454.518C640.418 455.055 643.067 453.999 642.937 452.462C642.808 450.944 642.4 449.147 641.345 449.351V449.369Z" fill="#EDA91A"/>
<path d="M613.305 436.276C610.657 435.739 609.064 436.813 608.286 437.591C607.49 438.387 606.434 440.628 608.286 441.295C610.138 441.961 613.583 441.165 614.102 439.98C614.639 438.794 613.305 436.276 613.305 436.276Z" fill="#EDA91A"/>
<path d="M626.306 443.461L624.473 444.425C624.473 444.425 624.51 445.869 624.917 445.943C625.325 446.017 626.751 445.943 626.751 445.943C626.751 445.943 627.399 444.462 627.103 444.202C626.806 443.943 626.325 443.461 626.325 443.461H626.306Z" fill="#EDA91A"/>
<path d="M659.939 455.24L658.105 456.203C658.105 456.203 658.142 457.648 658.55 457.722C658.957 457.796 660.383 457.722 660.383 457.722C660.383 457.722 661.031 456.24 660.735 455.981C660.439 455.722 659.957 455.24 659.957 455.24H659.939Z" fill="#EDA91A"/>
<path d="M651.419 470.26L649.586 471.223C649.586 471.223 649.623 472.668 650.03 472.742C650.438 472.816 651.864 472.742 651.864 472.742C651.864 472.742 652.512 471.26 652.216 471.001C651.919 470.741 651.438 470.26 651.438 470.26H651.419Z" fill="#EDA91A"/>
<path d="M707.85 468.797L706.016 469.76C706.016 469.76 706.053 471.204 706.461 471.279C706.868 471.353 708.294 471.279 708.294 471.279C708.294 471.279 708.943 469.797 708.646 469.538C708.35 469.278 707.868 468.797 707.868 468.797H707.85Z" fill="#EDA91A"/>
<path d="M614.824 446.61C614.694 446.702 612.898 447.999 612.898 447.999L614.824 449.258L615.787 448.425L616.306 447.128L614.824 446.61Z" fill="#EDA91A"/>
<path d="M560.394 450.629C560.264 450.721 558.468 452.018 558.468 452.018L560.394 453.277L561.357 452.444L561.875 451.147L560.394 450.629Z" fill="#EDA91A"/>
<path d="M518.65 454.073C518.52 454.166 516.724 455.462 516.724 455.462L518.65 456.722L519.613 455.888L520.131 454.592L518.65 454.073Z" fill="#EDA91A"/>
<path d="M581.414 445.406C581.321 445.48 579.988 446.443 579.988 446.443L581.414 447.388L582.136 446.758L582.525 445.795L581.414 445.406Z" fill="#EDA91A"/>
<path d="M533.225 468.889C533.132 468.945 531.799 469.927 531.799 469.927L533.225 470.871L533.947 470.241L534.336 469.278L533.225 468.889Z" fill="#EDA91A"/>
<path d="M633.325 461.722C633.325 461.722 631.233 463.963 631.547 463.963C631.862 463.963 633.325 465.982 633.325 465.982H635.492L637.029 464.593L636.326 462.574L633.307 461.722H633.325Z" fill="#EDA91A"/>
<path d="M610.731 464.741C610.731 464.741 608.638 466.982 608.953 466.982C609.268 466.982 610.731 469.001 610.731 469.001H612.898L614.435 467.612L613.731 465.593L610.713 464.741H610.731Z" fill="#EDA91A"/>
<path d="M683.2 466.963C683.2 466.963 681.107 469.204 681.422 469.204C681.737 469.204 683.2 471.223 683.2 471.223H685.367L686.904 469.834L686.2 467.815L683.181 466.963H683.2Z" fill="#EDA91A"/>
<path d="M601.101 445.739L596.767 447.666C596.767 447.666 595.693 449.684 595.915 449.684C596.137 449.684 599.156 451.851 599.397 451.851C599.638 451.851 602.341 449.462 602.341 449.462L602.879 446.98L601.101 445.739Z" fill="#EDA91A"/>
<path d="M574.08 445.425C573.728 445.536 570.969 446.128 570.561 447.24C570.154 448.351 570.154 454.481 570.969 454.981C571.765 455.481 574.395 454.777 575.098 454.37C575.802 453.962 577.302 451.147 577.302 451.147C577.302 451.147 575.006 445.11 574.08 445.406V445.425Z" fill="#EDA91A"/>
<path d="M527.854 451.166C527.502 451.277 524.743 451.87 524.335 452.981C523.928 454.092 523.928 460.222 524.743 460.722C525.539 461.222 528.169 460.518 528.873 460.111C529.576 459.704 531.077 456.888 531.077 456.888C531.077 456.888 528.78 450.851 527.854 451.147V451.166Z" fill="#EDA91A"/>
<path d="M697.09 460.333C696.738 460.444 693.979 461.037 693.571 462.148C693.164 463.259 693.164 469.389 693.979 469.89C694.793 470.39 697.405 469.686 698.109 469.278C698.812 468.871 700.312 466.056 700.312 466.056C700.312 466.056 698.016 460.018 697.09 460.315V460.333Z" fill="#EDA91A"/>
<path d="M717.499 474.019C717.795 474.242 719.888 476.149 721.018 475.834C722.147 475.52 727.148 471.964 727.092 471.001C727.037 470.056 724.944 468.334 724.203 468C723.462 467.667 720.295 468.075 720.295 468.075C720.295 468.075 716.721 473.464 717.499 474.019Z" fill="#EDA91A"/>
<path d="M582.599 455.888C581.951 455.944 580.599 457.574 580.469 458.092C580.34 458.611 581.117 460.278 582.025 460.537C582.932 460.796 584.488 460.018 584.544 459.518C584.599 459 584.858 456.926 584.544 456.74C584.229 456.555 582.599 455.907 582.599 455.907V455.888Z" fill="#EDA91A"/>
<path d="M678.681 455.37C678.033 455.425 676.681 457.055 676.551 457.574C676.421 458.092 677.199 459.759 678.107 460.018C679.014 460.278 680.57 459.5 680.625 459C680.681 458.481 680.94 456.407 680.625 456.222C680.311 456.037 678.681 455.388 678.681 455.388V455.37Z" fill="#EDA91A"/>
<path d="M567.524 458.555C566.413 458.759 563.505 461.278 563.505 461.278L564.82 464.093C564.82 464.093 569.857 464.797 570.154 464.704C570.45 464.611 572.061 463.185 572.061 463.185L569.95 459.166L567.542 458.555H567.524Z" fill="#EDA91A"/>
<path d="M515.094 460.722C513.983 460.926 511.075 463.445 511.075 463.445L512.39 466.26C512.39 466.26 517.427 466.963 517.724 466.871C518.02 466.778 519.631 465.352 519.631 465.352L517.52 461.333L515.112 460.722H515.094Z" fill="#EDA91A"/>
<path d="M493.314 462.463C493.185 462.556 491.388 463.852 491.388 463.852L493.314 465.111L494.277 464.278L494.796 462.982L493.314 462.463Z" fill="#EDA91A"/>
<path d="M478.646 451.647C478.294 451.74 475.535 452.184 475.128 453.055C474.72 453.907 474.72 458.648 475.535 459.037C476.331 459.426 478.961 458.889 479.665 458.574C480.369 458.259 481.869 456.092 481.869 456.092C481.869 456.092 479.572 451.425 478.646 451.666V451.647Z" fill="#EDA91A"/>
<path d="M471.386 460.667C470.775 460.778 469.146 462.185 469.146 462.185L469.868 463.759C469.868 463.759 472.664 464.148 472.831 464.093C472.998 464.037 473.887 463.241 473.887 463.241L472.72 461L471.386 460.667Z" fill="#EDA91A"/>
<path d="M607.435 457.796C607.323 457.87 605.731 459.037 605.731 459.037L607.435 460.167L608.286 459.426L608.749 458.277L607.435 457.814V457.796Z" fill="#EDA91A"/>
<path d="M594.915 463.519C594.6 463.611 592.156 464.148 591.785 465.13C591.415 466.111 591.433 471.556 592.137 472.001C592.859 472.445 595.174 471.816 595.804 471.464C596.434 471.112 597.767 468.612 597.767 468.612C597.767 468.612 595.73 463.259 594.915 463.519Z" fill="#EDA91A"/>
<path d="M623.454 468.482C622.473 468.667 619.88 470.89 619.88 470.89L621.047 473.39C621.047 473.39 625.51 474.019 625.788 473.927C626.066 473.834 627.492 472.575 627.492 472.575L625.621 469.019L623.473 468.482H623.454Z" fill="#EDA91A"/>
<path d="M504.111 451.573C503.13 451.758 500.537 453.981 500.537 453.981L501.704 456.481C501.704 456.481 506.167 457.111 506.445 457.018C506.704 456.926 508.149 455.666 508.149 455.666L506.278 452.11L504.13 451.573H504.111Z" fill="#EDA91A"/>
<path d="M440.143 458.629C439.162 458.815 436.569 461.037 436.569 461.037L437.736 463.537C437.736 463.537 442.199 464.167 442.477 464.074C442.736 463.982 444.181 462.722 444.181 462.722L442.31 459.166L440.162 458.629H440.143Z" fill="#EDA91A"/>
<path d="M271.074 468.093C427.976 478.427 586.044 483.113 743.279 481.835L774.781 481.539L743.279 482.279C586.044 485.298 427.846 480.613 271.074 468.075V468.093Z" fill="white"/>
<path d="M565.82 517.023C578.173 506.133 596.841 508.393 613.176 510.411C622.528 511.56 632.918 511.967 641.9 509.615C645.66 508.633 649.549 508.281 653.42 508.633C655.901 508.856 658.661 509.022 661.809 509.133C686.978 509.911 722.092 505.429 723.888 519.579C725.222 530.024 727.185 575.842 716.462 575.639C695.867 575.25 668.68 577.602 594.711 573.657C520.742 569.731 325.541 553.452 288.927 552.933C262.185 552.563 261.24 552.044 261.24 552.044L263.611 485.372C281.168 493.928 301.28 496.151 320.893 496.484C341.617 496.836 362.452 495.318 383.028 497.966C414.641 502.04 445.495 515.93 477.165 512.226C488.11 510.948 498.778 507.578 509.778 506.837C520.779 506.115 532.817 508.578 540.059 516.893C540.059 516.893 545.04 523.598 551.985 523.598C557.838 523.598 565.82 517.041 565.82 517.041V517.023Z" fill="#EDA91A"/>
<path d="M722.629 613.197C721.184 604.53 714.11 604.826 704.905 604.956C700.386 605.011 695.868 605.66 691.515 606.919C672.755 612.345 650.901 610.79 630.751 608.641C587.859 604.03 544.911 598.567 501.704 598.492C472.868 598.437 444.014 600.789 415.197 599.715C389.51 598.752 363.934 595.048 338.228 595.603C324.282 595.9 310.355 597.455 296.428 596.807C283.668 596.233 270.611 593.603 260.184 587.177C259.925 606.549 260.462 631.31 261.259 657.905C261.259 657.905 306.355 654.997 336.079 657.775C365.804 660.553 676.755 667.905 698.127 668.831C719.499 669.757 724.462 624.328 722.61 613.197H722.629Z" fill="#EDA91A"/>
<g opacity="0.3">
<path d="M627.714 451.036C626.547 449.962 624.825 449.814 623.25 449.74C613.064 449.258 602.823 450.24 592.915 452.61L587.637 453.407C585.155 453.814 583.451 456.481 583.618 458.981C583.784 461.5 585.451 463.722 587.544 465.111C589.637 466.5 592.118 467.204 594.563 467.76C600.656 469.167 607.045 469.927 613.176 468.63C619.306 467.334 625.158 463.704 627.992 458.129C629.14 455.851 629.621 452.74 627.732 451.036H627.714Z" fill="black"/>
</g>
<g opacity="0.3">
<path d="M570.783 448.314C569.617 447.24 567.894 447.091 566.32 447.017C556.134 446.536 545.892 447.517 535.984 449.888L530.706 450.684C528.224 451.092 526.521 453.759 526.687 456.259C526.854 458.778 528.521 461 530.613 462.389C532.706 463.778 535.188 464.482 537.633 465.037C543.726 466.445 550.115 467.204 556.245 465.908C562.375 464.611 568.228 460.981 571.061 455.407C572.209 453.129 572.691 450.018 570.802 448.314H570.783Z" fill="black"/>
</g>
<g opacity="0.3">
<path d="M721.61 514.949C713.165 506.485 683.718 509.8 661.809 509.115C658.661 509.022 655.901 508.837 653.42 508.615C649.549 508.263 645.66 508.615 641.9 509.596C632.918 511.948 622.528 511.541 613.176 510.393C596.841 508.393 578.173 506.115 565.82 517.004C565.82 517.004 557.838 523.56 551.986 523.56C545.041 523.56 540.059 516.856 540.059 516.856C532.818 508.541 520.779 506.078 509.779 506.8C498.778 507.522 488.11 510.893 477.165 512.189C445.496 515.893 414.641 501.985 383.028 497.929C362.471 495.28 341.636 496.818 320.893 496.447C301.299 496.114 281.168 493.891 263.611 485.335L263.444 489.965C270.908 496.799 281.557 503.244 289.242 504.448C299.725 506.096 310.411 505.003 320.986 504.411C343.562 503.133 366.267 504.114 388.658 507.355C413.289 510.911 437.569 517.208 462.404 518.616C480.869 519.671 492.555 513.56 511.056 513.689C524.076 513.782 536.336 530.283 549.337 530.654C566.579 531.135 565.561 515.504 608.583 518.93C643.567 521.708 678.737 516.615 713.795 515.449C716.388 515.356 718.999 515.264 721.573 514.967L721.61 514.949Z" fill="black"/>
</g>
<g opacity="0.3">
<path d="M721.203 609.16C718.388 604.641 712.35 604.863 704.905 604.956C700.386 605.011 695.867 605.66 691.515 606.919C672.754 612.345 650.901 610.79 630.751 608.641C587.859 604.03 544.911 598.567 501.704 598.492C472.868 598.437 444.014 600.789 415.197 599.715C389.51 598.752 363.933 595.048 338.228 595.603C324.282 595.9 310.355 597.455 296.428 596.807C283.668 596.233 270.611 593.603 260.184 587.177C260.166 589.232 260.147 591.362 260.129 593.529C278.556 608.234 331.32 607.197 362.878 606.234C455.163 603.4 547.596 606.808 639.53 616.438C665.921 619.198 693.441 622.328 718.184 611.586C719.351 611.086 720.629 610.327 721.203 609.178V609.16Z" fill="black"/>
</g>
<g opacity="0.3">
<path d="M714.499 694.389C704.016 687.148 661.291 694.296 639.53 694.389C617.769 694.482 579.08 691.63 554.893 693.63C531.891 695.537 291.52 693.204 264.722 693.556C284.353 702.723 306.725 708.26 328.116 706.408C351.321 704.39 374.49 699.964 397.733 701.371C413.363 702.316 428.717 705.853 444.329 707.149C464.479 708.816 484.703 706.705 504.871 705.26C540.448 702.704 576.154 702.241 611.824 701.76C641.011 701.371 670.199 700.982 699.368 700.612C704.961 700.538 710.721 700.427 715.888 698.26C716.277 698.093 716.666 697.889 717.054 697.686C716.351 696.241 715.517 695.111 714.499 694.407V694.389Z" fill="black"/>
</g>
<g opacity="0.3">
<path d="M695.145 538.895C692.182 539.765 689.515 541.488 688.126 544.377C687.515 545.636 687.274 547.062 687.422 548.433C687.941 552.841 691.737 554.433 695.275 554.544C697.942 554.637 700.664 553.952 702.812 552.378C704.961 550.803 706.461 548.266 706.516 545.618C706.572 543.414 705.572 540.043 701.201 538.784C699.238 538.21 697.127 538.321 695.164 538.914L695.145 538.895Z" fill="black"/>
</g>
<g opacity="0.3">
<path d="M503.352 611.03C500.389 611.901 497.722 613.623 496.333 616.512C495.722 617.772 495.481 619.198 495.629 620.568C496.148 624.976 499.944 626.569 503.482 626.68C506.149 626.772 508.871 626.087 511.019 624.513C513.168 622.939 514.668 620.402 514.723 617.753C514.779 615.549 513.779 612.179 509.408 610.919C507.445 610.345 505.334 610.456 503.371 611.03H503.352Z" fill="black"/>
</g>
<g opacity="0.1">
<path d="M507.112 527.394C505.797 527.783 504.611 528.542 504 529.82C503.722 530.376 503.611 531.006 503.685 531.617C503.926 533.561 505.593 534.265 507.167 534.321C508.352 534.358 509.556 534.061 510.501 533.358C511.445 532.654 512.112 531.543 512.149 530.357C512.168 529.376 511.723 527.894 509.797 527.339C508.927 527.079 507.982 527.135 507.112 527.394Z" fill="black"/>
</g>
<g opacity="0.1">
<path d="M518.131 536.173C515.501 536.95 513.131 538.469 511.89 541.043C511.353 542.155 511.13 543.432 511.279 544.655C511.742 548.562 515.112 549.988 518.261 550.081C520.631 550.155 523.057 549.563 524.965 548.155C526.872 546.747 528.206 544.507 528.261 542.136C528.298 540.173 527.409 537.191 523.539 536.061C521.798 535.561 519.909 535.654 518.168 536.173H518.131Z" fill="black"/>
</g>
<g opacity="0.1">
<path d="M642.178 640.088C639.548 640.866 637.178 642.385 635.937 644.959C635.4 646.07 635.178 647.348 635.326 648.57C635.789 652.478 639.159 653.904 642.308 653.997C644.678 654.071 647.104 653.478 649.012 652.071C650.919 650.663 652.253 648.422 652.308 646.052C652.346 644.089 651.457 641.107 647.586 639.977C645.845 639.477 643.956 639.57 642.215 640.088H642.178Z" fill="black"/>
</g>
<g opacity="0.1">
<path d="M400.177 731.133C397.547 731.91 395.177 733.429 393.936 736.003C393.399 737.115 393.177 738.392 393.325 739.615C393.788 743.522 397.158 744.948 400.307 745.041C402.677 745.115 405.103 744.523 407.011 743.115C408.919 741.708 410.252 739.467 410.308 737.096C410.345 735.133 409.456 732.151 405.585 731.022C403.844 730.521 401.955 730.614 400.214 731.133H400.177Z" fill="black"/>
</g>
<g opacity="0.1">
<path d="M291.854 622.217C289.224 622.994 286.853 624.513 285.612 627.087C285.075 628.198 284.853 629.476 285.001 630.699C285.464 634.606 288.835 636.032 291.983 636.125C294.354 636.199 296.78 635.606 298.687 634.199C300.595 632.791 301.928 630.551 301.984 628.18C302.021 626.217 301.132 623.235 297.261 622.105C295.521 621.605 293.632 621.698 291.891 622.217H291.854Z" fill="black"/>
</g>
<g opacity="0.3">
<path d="M671.458 551.822C672.106 553.267 673.106 554.507 674.514 555.007C675.125 555.23 675.792 555.248 676.403 555.063C678.348 554.47 678.737 552.415 678.496 550.6C678.311 549.229 677.773 547.896 676.885 546.914C675.996 545.933 674.718 545.359 673.514 545.525C672.514 545.673 671.088 546.433 670.884 548.748C670.791 549.803 671.014 550.859 671.458 551.822Z" fill="black"/>
</g>
<g opacity="0.3">
<path d="M620.658 657.59C621.306 659.034 622.306 660.275 623.713 660.775C624.325 660.997 624.991 661.016 625.603 660.831C627.547 660.238 627.936 658.182 627.695 656.367C627.51 654.997 626.973 653.663 626.084 652.682C625.195 651.7 623.917 651.126 622.713 651.293C621.713 651.441 620.287 652.2 620.084 654.515C619.991 655.571 620.213 656.627 620.639 657.59H620.658Z" fill="black"/>
</g>
<g opacity="0.3">
<path d="M355.229 518.43C355.877 519.875 356.877 521.116 358.285 521.616C358.896 521.838 359.563 521.857 360.174 521.671C362.119 521.079 362.508 519.023 362.267 517.208C362.082 515.838 361.544 514.504 360.656 513.523C359.767 512.541 358.489 511.967 357.285 512.134C356.285 512.282 354.859 513.041 354.655 515.356C354.562 516.412 354.785 517.467 355.211 518.43H355.229Z" fill="black"/>
</g>
<g opacity="0.3">
<path d="M384.916 727.966C384.916 727.966 384.861 727.966 384.843 727.947H384.916V727.966Z" fill="black"/>
</g>
<g opacity="0.3">
<path d="M386.398 728.058C387.972 728.058 389.51 727.632 390.547 726.54C390.991 726.058 391.287 725.466 391.362 724.836C391.602 722.817 389.88 721.613 388.121 721.113C386.787 720.724 385.343 720.687 384.102 721.113C382.842 721.539 381.805 722.465 381.472 723.632C381.194 724.595 381.305 726.225 383.361 727.336C384.287 727.836 385.361 728.058 386.398 728.058Z" fill="black"/>
</g>
<path d="M635.27 391.642C645.567 372.53 646.752 348.75 638.4 328.712C637.4 326.304 636.177 323.859 634.066 322.341C629.825 319.285 623.88 321.137 619.232 323.544C601.452 332.786 587.525 349.139 581.229 368.159C574.95 387.179 575.654 410.866 584.433 428.868C605.749 424.812 624.954 410.737 635.251 391.624L635.27 391.642Z" fill="#EDA91A"/>
<g opacity="0.4">
<path d="M635.27 391.642C645.567 372.53 646.752 348.75 638.4 328.712C637.4 326.304 636.177 323.859 634.066 322.341C629.825 319.285 623.88 321.137 619.232 323.544C601.452 332.786 587.525 349.139 581.229 368.159C574.95 387.179 575.654 410.866 584.433 428.868C605.749 424.812 624.954 410.737 635.251 391.624L635.27 391.642Z" fill="white"/>
</g>
<path d="M583.469 435.757C593.618 405.181 605.786 375.012 622.473 347.38C621.602 349.195 620.713 351.01 619.806 352.806C606.434 379.901 595.193 407.94 583.469 435.757Z" fill="#263238"/>
<path d="M562.838 368.937C554.134 352.139 537.577 339.601 519.038 335.768C516.816 335.305 514.445 334.971 512.316 335.768C508.019 337.323 506.445 342.509 505.889 347.046C503.815 364.381 508.76 382.475 519.372 396.347C529.984 410.218 547.393 421.349 564.69 423.867C572.246 406.514 571.543 385.772 562.838 368.955V368.937Z" fill="#EDA91A"/>
<g opacity="0.4">
<path d="M562.838 368.937C554.134 352.139 537.577 339.601 519.038 335.768C516.816 335.305 514.445 334.971 512.316 335.768C508.019 337.323 506.445 342.509 505.889 347.046C503.815 364.381 508.76 382.475 519.372 396.347C529.984 410.218 547.393 421.349 564.69 423.867C572.246 406.514 571.543 385.772 562.838 368.955V368.937Z" fill="white"/>
</g>
<path d="M562.838 416.941C545.929 397.439 530.576 376.382 517.149 354.325C532.169 374.271 548.411 396.569 562.838 416.941Z" fill="#263238"/>
<path d="M661.865 429.053C673.292 423.923 682.2 413.459 685.422 401.347C685.811 399.902 686.126 398.347 685.682 396.902C684.811 394.013 681.44 392.772 678.477 392.235C667.087 390.216 654.957 392.791 645.401 399.291C635.844 405.792 627.825 416.885 625.51 428.201C636.696 433.85 650.438 434.164 661.865 429.034V429.053Z" fill="#EDA91A"/>
<g opacity="0.4">
<path d="M661.865 429.053C673.292 423.923 682.2 413.459 685.422 401.347C685.811 399.902 686.126 398.347 685.682 396.902C684.811 394.013 681.44 392.772 678.477 392.235C667.087 390.216 654.957 392.791 645.401 399.291C635.844 405.792 627.825 416.885 625.51 428.201C636.696 433.85 650.438 434.164 661.865 429.034V429.053Z" fill="white"/>
</g>
<path d="M630.14 427.256C643.4 416.478 657.957 407.07 673.236 399.402C659.272 409.237 644.845 418.552 630.14 427.256Z" fill="#263238"/>
<path d="M634.918 437.517C634.918 436.998 634.844 436.498 634.807 435.998C635.622 435.461 636.474 435.016 637.4 434.72C640.141 433.813 643.604 434.498 645.067 436.961C644.067 432.998 641.159 429.553 637.418 427.905C639.27 425.312 641.122 422.701 642.974 420.108C640.159 420.441 637.326 420.793 634.511 421.126C635.788 417.145 636.103 412.848 635.418 408.718C633.974 412.959 630.751 416.533 626.751 418.552C621.565 413.385 614.361 410.237 606.471 410.44C591.137 410.811 579.006 423.552 579.395 438.906C579.765 454.24 592.507 466.371 607.86 465.982C623.213 465.593 635.325 452.87 634.937 437.517H634.918Z" fill="#263238"/>
<g opacity="0.1">
<path d="M600.693 415.644C598.971 416.256 596.156 417.848 594.637 418.848C589.896 421.96 585.729 426.293 584.006 431.701C582.284 437.109 583.432 443.628 587.748 447.295C589.822 449.055 593.026 450.036 595.23 448.443C596.378 447.628 597.008 446.295 597.6 445.017C601.026 437.646 604.471 430.257 607.897 422.886C608.508 421.552 609.138 420.163 609.49 418.737C609.935 416.941 608.638 415.144 606.805 414.996C605.064 414.848 602.804 414.904 600.712 415.644H600.693Z" fill="white"/>
</g>
<path d="M545.929 404.255C545.411 404.255 544.911 404.31 544.411 404.329C543.892 403.514 543.466 402.643 543.189 401.717C542.355 398.958 543.114 395.513 545.615 394.106C541.633 395.013 538.114 397.828 536.373 401.532C533.817 399.625 531.262 397.699 528.706 395.791C528.984 398.625 529.243 401.458 529.521 404.273C525.576 402.884 521.279 402.477 517.149 403.051C521.353 404.607 524.854 407.903 526.761 411.959C521.465 417.015 518.149 424.127 518.149 432.035C518.149 447.369 530.595 459.815 545.929 459.815C561.264 459.815 573.709 447.369 573.709 432.035C573.709 416.7 561.264 404.255 545.929 404.255Z" fill="#263238"/>
<g opacity="0.1">
<path d="M523.205 437.943C523.779 439.683 525.298 442.536 526.261 444.091C529.261 448.906 533.484 453.185 538.836 455.037C544.189 456.889 550.745 455.907 554.523 451.684C556.338 449.666 557.393 446.48 555.856 444.239C555.06 443.073 553.745 442.406 552.485 441.776C545.189 438.165 537.892 434.553 530.613 430.942C529.298 430.294 527.928 429.627 526.52 429.238C524.743 428.757 522.909 429.997 522.705 431.831C522.52 433.572 522.502 435.831 523.205 437.943Z" fill="white"/>
</g>
<path d="M255.703 711.279C255.128 711.279 254.554 711.335 253.999 711.372C253.425 710.446 252.943 709.483 252.628 708.446C251.702 705.353 252.536 701.501 255.351 699.926C250.887 700.945 246.961 704.093 244.998 708.223C242.146 706.075 239.275 703.945 236.423 701.797C236.72 704.964 237.034 708.131 237.331 711.298C232.904 709.742 228.108 709.279 223.478 709.946C228.182 711.687 232.108 715.391 234.238 719.928C228.311 725.595 224.608 733.559 224.608 742.393C224.608 759.561 238.535 773.488 255.703 773.488C272.871 773.488 286.798 759.561 286.798 742.393C286.798 725.225 272.871 711.298 255.703 711.298V711.279Z" fill="#263238"/>
<g opacity="0.1">
<path d="M230.275 748.986C230.923 750.931 232.627 754.116 233.701 755.857C237.053 761.246 241.794 766.024 247.776 768.117C253.776 770.21 261.11 769.08 265.333 764.358C267.37 762.098 268.537 758.542 266.815 756.024C265.926 754.727 264.462 753.968 263.036 753.264C254.869 749.227 246.702 745.171 238.553 741.133C237.09 740.411 235.534 739.67 233.96 739.244C231.96 738.707 229.923 740.096 229.7 742.152C229.497 744.097 229.478 746.634 230.256 748.986H230.275Z" fill="white"/>
</g>
<path d="M542.392 763.394H125.581C125.581 763.394 162.01 799.471 201.346 806.75C209.551 808.268 229.2 809.157 255.128 809.602L267.648 817.954H714.591L726.759 809.824C761.539 809.491 788.634 808.583 798.653 806.731C837.99 799.453 874.419 763.376 874.419 763.376H542.411L542.392 763.394Z" fill="#263238"/>
<path opacity="0.3" d="M542.392 763.394H125.581C125.581 763.394 162.01 799.471 201.346 806.75C209.551 808.268 229.2 809.157 255.128 809.602L267.648 817.954H714.591L726.759 809.824C761.539 809.491 788.634 808.583 798.653 806.731C837.99 799.453 874.419 763.376 874.419 763.376H542.411L542.392 763.394Z" fill="white"/>
<path d="M241.812 809.695C398.77 808.602 574.858 808.657 731.833 809.843C574.876 810.935 398.788 810.88 241.812 809.695Z" fill="#263238"/>
<path d="M183.067 773.655C251.721 772.432 328.042 772.451 396.732 773.655C328.023 774.858 251.739 774.877 183.067 773.655Z" fill="white"/>
<path d="M431.18 773.655C444.625 772.395 458.089 772.377 471.535 773.655C458.089 774.932 444.625 774.914 431.18 773.655Z" fill="white"/>
<path d="M116.319 338.205L80.5944 337.903C36.4718 345.298 3.02148 380.947 3.02148 423.819H192.167C192.167 381.519 159.579 346.236 116.319 338.215V338.205Z" fill="#EDA91A"/>
<path d="M106.218 272.22H90.7815V449.411H106.218V272.22Z" fill="#EDA91A"/>
<path opacity="0.8" d="M90.7815 353.124L106.218 338.905V315.879L90.7815 329.311V351.572" fill="white"/>
<path opacity="0.8" d="M90.7815 397.57L106.218 383.362V360.336L90.7815 373.768V396.029" fill="white"/>
<path opacity="0.8" d="M90.7815 442.016L106.218 427.808V404.782L90.7815 418.214V434.017V440.475" fill="white"/>
<path opacity="0.8" d="M90.7815 311.028L106.218 296.82V273.783L90.7815 287.215V309.476" fill="white"/>
<path opacity="0.8" d="M116.125 338.205L80.4003 337.903C36.2777 345.298 2.82739 380.947 2.82739 423.819H191.973C191.973 381.519 159.385 346.236 116.125 338.215V338.205Z" fill="white"/>
<path d="M101.227 429.059H93.5735H2.67651L12.5402 516.333L19.5795 528.299L32.9468 660.634L39.9861 667.674V675.414H93.5735H101.227H154.804V667.674L161.843 660.634L175.221 528.299L182.261 516.333L192.113 429.059H101.227Z" fill="#EDA91A"/>
<path opacity="0.8" d="M101.227 429.059H93.5735H2.67651L12.5402 516.333L19.5795 528.299L32.9468 660.634L39.9861 667.674V675.414H93.5735H101.227H154.804V667.674L161.843 660.634L175.221 528.299L182.261 516.333L192.113 429.059H101.227Z" fill="white"/>
<path d="M46.2601 669.151V665.076L38.962 657.778L25.6703 526.305L18.6202 514.307L9.69434 435.322H185.096L176.181 514.307L169.12 526.305L155.839 657.778L148.541 665.076V669.151H46.2601Z" fill="#EDA91A"/>
<path opacity="0.3" d="M46.2601 669.151V665.076L38.962 657.778L25.6703 526.305L18.6202 514.307L9.69434 435.322H185.096L176.181 514.307L169.12 526.305L155.839 657.778L148.541 665.076V669.151H46.2601Z" fill="white"/>
<path opacity="0.1" d="M32.9468 600.256L38.423 608.556L40.6868 609.818V621.385C40.6868 621.385 43.1986 624.651 44.9665 624.91C46.7236 625.158 50.0007 627.626 50.7553 626.02C51.5099 624.414 51.7687 624.414 52.5233 623.907C53.2779 623.4 55.5416 626.02 55.5416 626.02C55.5416 626.02 57.2988 630.903 57.2988 631.679C57.2988 632.456 56.0375 633.458 57.2988 634.471C58.5601 635.474 57.0509 636.487 60.0693 636.735C63.0877 636.983 63.0877 637.242 64.5969 636.735C66.1061 636.229 68.3699 635.226 68.3699 635.226C68.3699 635.226 68.1219 632.671 68.3699 631.679C68.6178 630.698 70.6336 628.435 70.6336 628.435C70.6336 628.435 76.1638 629.189 76.6705 628.435C77.1771 627.68 79.9584 624.414 80.3249 622.646C80.6914 620.889 82.4485 620.673 82.2006 618.646C81.9527 616.62 80.9932 615.359 82.2221 614.356C83.4511 613.353 85.4669 613.095 86.9761 612.847C88.4853 612.599 90.5012 612.847 90.7491 611.586C90.9971 610.324 90.7491 609.57 90.7491 608.319C90.7491 607.069 89.9622 608.071 90.8569 605.807C91.7517 603.544 91.9996 604.805 92.7542 602.282C93.5088 599.771 89.9838 601.021 92.7542 598.509C95.5247 595.998 94.7701 596.246 97.4112 594.984C100.052 593.723 105.83 593.723 105.83 593.723L109.097 595.232C109.097 595.232 110.099 595.739 111.113 595.987C112.115 596.235 112.622 609.311 112.622 609.311L116.901 608.308C116.901 608.308 121.677 607.047 121.677 605.29C121.677 603.533 123.186 602.024 122.938 600.762C122.69 599.501 121.483 599.005 122.971 596.989C124.447 594.974 126.215 593.723 127.218 593.723C128.22 593.723 131.562 596.235 131.53 593.723C131.498 591.211 131.562 587.934 131.53 586.177C131.498 584.42 132.759 582.404 132.759 582.404C132.759 582.404 137.286 582.156 137.912 580.647C138.537 579.138 138.041 576.119 139.798 574.362C141.555 572.605 142.493 571.096 144.293 570.341C146.083 569.587 150.492 570.341 150.492 570.341L151.872 574.621L150.492 580.151C150.492 580.151 154.383 582.167 155.386 581.908C156.389 581.66 157.65 583.417 157.65 583.417C157.65 583.417 155.386 588.7 155.893 589.454C156.399 590.209 158.911 592.72 158.911 592.72L161.876 593.982L155.86 657.789L148.562 665.087V669.161H46.2816V665.087L38.9836 657.789L32.9683 598.305" fill="black"/>
<path opacity="0.3" d="M12.5403 516.333H182.261L175.221 528.299H19.5796L12.5403 516.333Z" fill="black"/>
<path opacity="0.3" d="M32.9468 660.634H161.843L154.804 667.674H39.9861L32.9468 660.634Z" fill="black"/>
<path d="M19.2024 516.527C68.8012 515.816 123.941 515.827 173.583 516.527C123.941 517.228 68.8227 517.239 19.2024 516.527Z" fill="white"/>
<path d="M52.5125 660.634C83.9793 659.923 118.971 659.934 150.46 660.634C118.96 661.335 83.9901 661.346 52.5125 660.634Z" fill="white"/>
<path d="M183.759 428.433C183.382 426.655 182.26 421.663 182.26 421.663L177.442 417.567L173.583 414.214L167.018 405.461C167.018 405.461 161.434 403.424 158.663 405.461C155.893 407.499 153.251 403.424 150.654 403.79C148.045 404.168 148.045 401.181 146.643 400.815C145.231 400.438 146.643 398.206 146.643 398.206L145.08 396.341L137.89 391.134L132.435 390.391L127.595 390.013L123.132 387.405L117.548 384.429V380.117C117.548 380.117 113.085 379.223 111.22 380.117C109.355 381.012 107.124 380.117 107.124 380.117H102.661L98.4999 373.272L93.7351 372.528L88.5284 370.652L81.834 373.272C81.834 373.272 79.6025 376.625 78.4814 378.878C77.3603 381.131 75.1288 382.575 75.1288 382.575H70.2886C70.2886 382.575 66.5695 383.319 63.2169 384.807C59.8644 386.294 63.2169 384.807 59.4978 386.672C59.4978 386.672 59.8644 388.903 59.4978 390.024C59.1205 391.145 59.4978 392.633 59.4978 392.633L56.8891 394.994L49.8174 395.985C49.8174 395.985 41.2581 393.754 38.2828 395.985L34.9302 398.594C34.9302 398.594 33.0653 397.473 32.3215 398.594C31.5776 399.715 31.5776 400.459 30.4565 401.947C29.3354 403.434 30.4565 407.154 30.4565 407.154C30.4565 407.154 26.3601 408.641 23.3848 410.506C20.4096 412.371 23.3848 410.506 22.2637 412.781C21.1426 415.055 20.7761 414.225 19.1591 415.346C17.5421 416.467 19.1591 418.699 19.1591 418.699V423.819C19.1591 423.819 17.4235 423.162 15.9359 423.819C14.4482 424.477 14.8147 426.137 13.7044 429.069V433.079L9.65112 435.332H185.053C185.053 435.332 184.082 430.234 183.716 428.444L183.759 428.433Z" fill="#EDA91A"/>
<path opacity="0.3" d="M183.759 428.433C183.382 426.655 182.26 421.663 182.26 421.663L177.442 417.567L173.583 414.214L167.018 405.461C167.018 405.461 161.434 403.424 158.663 405.461C155.893 407.499 153.251 403.424 150.654 403.79C148.045 404.168 148.045 401.181 146.643 400.815C145.231 400.438 146.643 398.206 146.643 398.206L145.08 396.341L137.89 391.134L132.435 390.391L127.595 390.013L123.132 387.405L117.548 384.429V380.117C117.548 380.117 113.085 379.223 111.22 380.117C109.355 381.012 107.124 380.117 107.124 380.117H102.661L98.4999 373.272L93.7351 372.528L88.5284 370.652L81.834 373.272C81.834 373.272 79.6025 376.625 78.4814 378.878C77.3603 381.131 75.1288 382.575 75.1288 382.575H70.2886C70.2886 382.575 66.5695 383.319 63.2169 384.807C59.8644 386.294 63.2169 384.807 59.4978 386.672C59.4978 386.672 59.8644 388.903 59.4978 390.024C59.1205 391.145 59.4978 392.633 59.4978 392.633L56.8891 394.994L49.8174 395.985C49.8174 395.985 41.2581 393.754 38.2828 395.985L34.9302 398.594C34.9302 398.594 33.0653 397.473 32.3215 398.594C31.5776 399.715 31.5776 400.459 30.4565 401.947C29.3354 403.434 30.4565 407.154 30.4565 407.154C30.4565 407.154 26.3601 408.641 23.3848 410.506C20.4096 412.371 23.3848 410.506 22.2637 412.781C21.1426 415.055 20.7761 414.225 19.1591 415.346C17.5421 416.467 19.1591 418.699 19.1591 418.699V423.819C19.1591 423.819 17.4235 423.162 15.9359 423.819C14.4482 424.477 14.8147 426.137 13.7044 429.069V433.079L9.65112 435.332H185.053C185.053 435.332 184.082 430.234 183.716 428.444L183.759 428.433Z" fill="white"/>
<path d="M-1.86182 433.069L2.55799 423.809H192.803L198.862 433.069H-1.86182Z" fill="#EDA91A"/>
<path opacity="0.7" d="M-1.86182 433.069L2.55799 423.809H192.803L198.862 433.069H-1.86182Z" fill="white"/>
<path opacity="0.4" d="M16.6152 394.153C16.6152 394.153 31.7935 353.749 79.3441 344.694H112.73C112.73 344.694 98.8343 376.948 81.112 385.453C63.3897 393.959 16.6152 394.164 16.6152 394.164V394.153Z" fill="white"/>
<path d="M33.0222 466.562C34.4452 464.417 35.9113 462.304 37.4097 460.223C38.1858 460.482 38.9943 460.687 39.8028 460.816C40.6868 460.892 41.9157 461.172 42.3793 460.342C42.9183 459.145 44.0286 458.348 45.2683 457.97L44.891 458.348L46.066 453.82L46.1199 453.637L46.2816 453.529L49.6234 451.168L49.8606 450.996C52.243 452.085 54.593 453.217 56.9538 454.37L56.7382 454.348C59.1314 453.853 61.5353 453.411 63.95 453.012C61.6108 453.723 59.25 454.381 56.8891 455.006C56.7813 455.049 56.7706 455.028 56.6735 454.984C54.3451 454.025 52.0166 453.055 49.6989 452.052L50.2055 451.998L46.8853 454.402L47.0901 454.1L45.8935 458.617L45.8181 458.898C45.1066 459.081 44.352 459.426 43.813 459.965C43.3387 460.364 43.274 460.957 42.7781 461.355C41.8726 462.045 40.5898 461.787 39.6519 461.614C38.8865 461.442 38.1535 461.226 37.4205 460.935L37.8085 460.827C36.2454 462.768 34.65 464.686 33.0222 466.573V466.562Z" fill="white"/>
<path d="M72.1106 481.514C73.5767 479.822 76.3795 476.577 77.8671 474.906L78.0396 474.96L82.6642 476.297L82.2654 476.415C83.5051 474.863 84.7232 473.289 85.9844 471.758C85.9844 471.758 86.006 471.737 86.006 471.726L88.4207 469.225L88.6148 469.031L88.8843 469.095L95.9236 470.723L96.2254 470.788C96.8183 472.771 97.3574 474.777 97.9179 476.771L97.4867 476.404L101.842 476.976H101.95L102.036 477.04L106.585 479.778L106.693 479.843L106.747 479.94L108.31 482.948L107.986 482.754L114.206 482.883H114.368C115.392 485.136 116.449 487.357 117.451 489.621C116.265 487.508 115.144 485.362 113.98 483.239L114.196 483.379L107.976 483.508H107.76L107.641 483.314L105.96 480.371L106.121 480.533L101.529 477.87L101.712 477.935L97.3466 477.418L97.0124 477.375C96.441 475.369 95.8266 473.386 95.2768 471.37L95.6649 471.737L88.6471 470.023L89.1106 469.893C86.9223 471.995 84.8094 474.55 82.8259 476.868L82.6642 477.062L82.4378 476.986L77.8671 475.477L78.1582 475.402C76.6705 476.933 73.6198 479.994 72.1106 481.503V481.514Z" fill="white"/>
<path d="M110.39 452.527C111.123 450.92 111.878 449.336 112.676 447.773C114.498 448.473 116.341 449.152 118.152 449.896L117.494 450.198C117.926 448.657 118.411 447.137 118.874 445.606C119.941 445.045 121.052 445.142 122.022 445.261C124.728 445.681 127.272 446.727 129.73 447.88L129.827 447.924L129.87 447.999C130.721 449.487 131.53 451.007 132.306 452.527C131.282 451.147 130.29 449.756 129.331 448.322L129.471 448.441C127.013 447.525 124.469 446.684 121.882 446.296C121.052 446.199 120.157 446.188 119.575 446.457L119.834 446.145C119.37 447.589 118.928 449.045 118.432 450.478L118.26 450.996L117.775 450.78C116.071 450.036 114.39 449.217 112.708 448.43L113.096 448.301C112.234 449.724 111.328 451.125 110.39 452.516V452.527Z" fill="white"/>
<path d="M151.15 489.836C150.977 488.09 150.837 486.333 150.74 484.576C152.67 484.263 154.599 483.918 156.54 483.659L156.119 484.252C155.72 482.7 155.375 481.147 154.998 479.595C155.634 478.582 156.658 478.097 157.542 477.719C160.097 476.728 162.814 476.35 165.519 476.113H165.627L165.703 476.146C167.179 477.008 168.646 477.913 170.079 478.841C168.505 478.161 166.942 477.45 165.401 476.695L165.584 476.728C162.997 477.17 160.377 477.719 157.941 478.679C157.176 479.013 156.399 479.455 156.022 479.983L156.087 479.584C156.41 481.072 156.755 482.549 157.057 484.037L157.165 484.576L156.637 484.64C154.782 484.845 152.928 484.985 151.074 485.158L151.344 484.845C151.311 486.516 151.225 488.176 151.117 489.847L151.15 489.836Z" fill="white"/>
<path d="M52.5125 554.883C53.5474 554.031 55.283 552.64 56.0268 552.101L58.808 547.003L58.8619 546.895C60.5112 545.978 62.1498 545.051 63.8099 544.157C67.1086 544.124 70.4073 544.157 73.706 544.221C74.1911 546.043 74.6546 547.876 75.1181 549.698L74.8271 549.482C76.6489 549.547 78.4707 549.654 80.2925 549.784C79.387 549.859 78.4707 549.902 77.5652 549.956C76.5842 550.01 75.6033 550.075 74.6223 550.086C74.0509 548.328 73.458 546.571 72.9082 544.814L73.3502 545.148C70.2132 545.202 67.087 545.235 63.9501 545.213L64.198 545.148C62.6133 546 61.0179 546.808 59.4225 547.639L59.595 547.466L56.4795 552.371C55.2075 553.255 53.8384 554.063 52.5017 554.883H52.5125Z" fill="white"/>
<path d="M109.625 574.19C112.74 576.475 115.802 578.836 118.842 581.207L118.432 581.175C120.135 580.205 121.828 579.192 123.542 578.254L129.643 575.677L129.331 576.152C129.32 574.244 129.298 572.336 129.331 570.427C129.762 569.349 130.193 568.261 130.905 567.312C131.077 567.118 131.207 566.902 131.584 566.73C133.826 566.32 136.068 566.665 138.311 566.73L137.858 567.096C138.429 563.895 138.947 560.682 139.561 557.491C141.006 556.586 142.439 555.68 143.905 554.807C142.569 555.821 141.21 556.791 139.852 557.783L139.938 557.642C139.572 560.844 139.119 564.035 138.72 567.226L138.677 567.603H138.267C136.187 567.592 134.02 567.355 131.972 567.635C131.228 568.304 130.743 569.727 130.344 570.708L130.377 570.524C130.398 572.508 130.376 574.502 130.366 576.497L130.053 576.626L123.909 579.116C122.378 579.968 120.286 581.024 118.562 581.93C115.554 579.386 112.557 576.82 109.625 574.179V574.19Z" fill="white"/>
<path d="M97.4005 641.651C98.6186 643.828 99.7936 646.038 100.915 648.259L100.602 648.065C102.844 647.99 105.097 647.936 107.34 647.903L106.855 648.248C107.814 645.284 108.806 642.341 109.819 639.398C112.654 639.053 115.479 638.73 118.324 638.449L118.012 638.73C118.799 635.539 119.618 632.369 120.513 629.211C119.963 632.531 119.327 635.83 118.669 639.128C115.877 639.581 113.064 639.991 110.261 640.39L110.681 640.045C109.711 643.02 108.709 645.974 107.685 648.927C105.238 648.906 102.801 648.841 100.354 648.755C99.3193 646.416 98.3275 644.044 97.3789 641.662L97.4005 641.651Z" fill="white"/>
<path d="M110.39 414.506C111.533 413.083 113.128 411.207 114.12 410.053L115.834 406.259L115.931 406.043H116.19C118.001 405.979 119.801 405.946 121.612 405.925L121.731 405.989L124.987 407.736L124.286 407.919L126.711 403.93L126.938 403.564L127.347 403.704C129.449 404.459 131.552 405.224 133.654 406.011C134.742 407.046 135.842 408.091 136.888 409.169C137.481 410.215 138.095 411.498 138.893 412.339C140.574 412.08 142.256 411.595 143.938 411.239C142.278 411.821 140.639 412.425 138.914 412.835C138.871 412.856 138.731 412.824 138.634 412.781C137.707 412.069 136.672 410.226 136.306 409.611C135.228 408.663 134.128 407.725 133.072 406.755C131.886 406.507 128.803 405.289 126.992 404.707L127.628 404.48L125.191 408.469L124.933 408.9L124.491 408.652L121.257 406.841L121.494 406.906C119.726 406.884 117.958 406.852 116.201 406.798L116.546 406.582L114.638 410.28C113.258 411.703 111.835 413.104 110.412 414.484L110.39 414.506Z" fill="white"/>
<path d="M49.4941 404.782C49.893 403.262 50.1086 401.656 51.4884 400.589C52.933 400.136 54.8303 400.287 56.1239 400.308C57.2234 400.244 58.3445 400.19 59.4441 400.147V400.696C59.4657 402.055 59.4657 403.424 59.4441 404.782L59.0344 404.275C62.0313 404.944 64.9742 405.752 67.7663 407.046L67.8525 407.078C68.1651 407.833 68.4885 408.598 68.7796 409.363C68.3484 408.684 67.9495 407.994 67.5399 407.304L67.6477 407.402C66.3541 407.078 65.0928 406.668 63.8208 406.302C62.3439 406.054 60.4251 405.644 58.8081 405.289L58.4092 405.202V404.782C58.3876 403.424 58.3876 402.055 58.4092 400.696L58.9482 401.225C58.0103 401.257 57.0617 401.268 56.1239 401.278C54.8842 401.225 52.9653 400.934 51.7579 401.16C50.5937 401.947 50.0763 403.531 49.4941 404.793V404.782Z" fill="white"/>
<path d="M82.2437 395.446C82.5024 394.358 82.5994 393.312 83.2031 392.331C83.5265 392.072 83.7421 392.051 84.0008 391.932C84.4643 391.76 85.7795 391.35 86.2754 391.188L85.9843 391.512C86.0813 390.811 86.1029 390.013 86.2646 389.302C86.6419 388.386 87.3749 387.954 88.205 387.588L91.2881 386.92C92.7326 387.07 94.1987 387.426 95.6324 387.685V388.095C95.6109 389.42 95.557 390.757 95.4923 392.083L95.212 391.727C96.3439 392.04 97.4758 392.342 98.5969 392.698C99.1251 393.172 99.6533 393.646 100.16 394.142C99.5671 393.776 98.985 393.377 98.4029 392.989C97.5297 392.935 95.9127 392.568 94.7916 392.385C94.7161 390.951 94.6622 389.517 94.6407 388.084L95.0503 388.569C93.7998 388.386 92.5601 388.17 91.3096 387.965H91.5145L88.4206 388.58L88.5068 388.547C87.9571 388.774 87.2995 389.194 87.1593 389.571C87.1054 389.733 87.0192 390.326 86.9761 390.542C86.9437 390.736 86.7497 391.695 86.7174 391.868C85.8334 392.083 84.3673 392.331 83.548 392.654C83.0306 393.28 82.6102 394.638 82.2544 395.403L82.2437 395.446Z" fill="white"/>
<path opacity="0.1" d="M30.4244 476.415C31.8366 475.747 40.3097 485.664 40.3097 485.664L45.4841 492.229C45.4841 492.229 50.1194 493.167 52.5126 492.229C54.9058 491.291 55.3801 489.448 59.6166 489.901C63.8532 490.354 63.7885 491.184 66.408 492.65C69.0276 494.116 76.5412 502.589 76.5412 502.589L83.1601 506.351H90.7816L96.3872 501.64L101.475 503.99V509.165H106.208C108.105 505.402 106.208 503.516 106.208 503.516C106.208 503.516 111.867 499.754 113.279 499.279C114.692 498.805 121.86 499.754 121.86 499.754L133.999 506.815C133.999 506.815 140.122 503.052 141.06 501.64C141.997 500.228 143.916 495.69 143.916 495.69C143.916 495.69 148.53 492.391 150.449 492.779C152.368 493.167 154.243 497.274 156.604 495.69C158.954 494.105 163.665 495.69 164.614 492.779C165.552 489.869 170.09 485.664 170.09 485.664L173.583 483.12L179.415 485.664L176.181 514.307L169.12 526.305L167.233 544.944L147.193 549.784L144.294 542.151L140.596 538.853L133.535 537.915L130.527 539.327L125.062 541.214V549.795L121.871 552.252H114.228C114.228 552.252 109.366 551.627 110.39 554.904C111.404 558.171 110.39 562.418 110.39 562.418C110.39 562.418 101.917 569.015 101.486 567.592C101.055 566.18 97.4005 567.786 97.4005 567.786H90.7816L86.9224 574.653C86.9224 574.653 85.0359 575.57 83.6237 576.992C82.2115 578.415 80.3034 581.24 80.3034 581.24L70.4397 578.674L71.8519 571.646C71.8519 571.646 73.2641 567.118 71.8519 565.706C70.4397 564.294 66.408 561.944 66.408 561.944L59.6166 563.356L52.5126 564.768C52.5126 564.768 59.0668 569.004 52.5126 573.715L45.9584 578.426L37.9488 573.715L35.5988 563.356V554.904C35.5988 552.996 32.9469 549.805 32.9469 549.805H28.042L25.6704 526.326L18.6095 514.328L14.2544 476.674L17.2297 466.584H20.9919L24.2906 472.47L30.4136 476.437L30.4244 476.415Z" fill="white"/>
<path opacity="0.1" d="M73.5443 595.739L69.9869 594.553C68.3268 596.45 68.0896 598.348 68.0896 598.348V600.245H70.817C70.817 600.245 72.8328 602.142 73.5443 601.431C74.2558 600.719 75.6787 600.245 75.6787 599.533V595.976L73.5443 595.739Z" fill="black"/>
<path opacity="0.1" d="M141.005 477.482L137.448 476.296C135.788 478.194 135.551 480.091 135.551 480.091V481.988H138.278C138.278 481.988 140.294 483.886 141.005 483.174C141.717 482.463 143.14 481.988 143.14 481.277V477.719L141.005 477.482Z" fill="black"/>
<path opacity="0.1" d="M81.2306 446.501L77.6732 445.315C76.013 447.212 75.7759 449.109 75.7759 449.109V451.007H78.5032C78.5032 451.007 80.5191 452.904 81.2306 452.192C81.942 451.481 83.365 451.007 83.365 450.295V446.738L81.2306 446.501Z" fill="white"/>
<path opacity="0.1" d="M83.2247 585.918L80.2495 588.247L79.8506 589.853L82.8259 591.707H84.9172L86.5989 589.853L83.2247 585.918Z" fill="black"/>
<path opacity="0.1" d="M130.139 490.332L127.164 492.661L126.754 494.267L129.73 496.121H131.821L133.513 494.267L130.139 490.332Z" fill="black"/>
<path d="M12.0874 409.374C15.9898 384.72 33.6906 363.247 55.8219 352.326C63.2385 348.651 71.1726 345.934 79.3331 344.694C75.2906 345.535 71.3235 346.656 67.4643 348.09C40.4604 357.695 17.9949 381.001 12.0767 409.374H12.0874Z" fill="white"/>
<path d="M6.54663 423.83C61.6755 423.13 123.531 423.119 178.66 423.83C123.531 424.542 61.6755 424.531 6.54663 423.83Z" fill="white"/>
<path d="M909.319 364.205L873.594 363.903C829.472 371.298 796.021 406.947 796.021 449.819H985.167C985.167 407.519 952.579 372.236 909.319 364.215V364.205Z" fill="#EDA91A"/>
<path d="M899.218 298.22H883.781V475.411H899.218V298.22Z" fill="#EDA91A"/>
<path opacity="0.8" d="M883.781 379.124L899.218 364.905V341.879L883.781 355.311V377.572" fill="white"/>
<path opacity="0.8" d="M883.781 423.57L899.218 409.362V386.336L883.781 399.768V422.029" fill="white"/>
<path opacity="0.8" d="M883.781 468.016L899.218 453.808V430.782L883.781 444.214V460.017V466.475" fill="white"/>
<path opacity="0.8" d="M883.781 337.028L899.218 322.82V299.783L883.781 313.215V335.476" fill="white"/>
<path opacity="0.8" d="M909.125 364.205L873.4 363.903C829.278 371.298 795.827 406.947 795.827 449.819H984.973C984.973 407.519 952.385 372.236 909.125 364.215V364.205Z" fill="white"/>
<path d="M894.227 455.059H886.573H795.677L805.54 542.333L812.58 554.299L825.947 686.634L832.986 693.674V701.414H886.573H894.227H947.804V693.674L954.843 686.634L968.221 554.299L975.261 542.333L985.113 455.059H894.227Z" fill="#EDA91A"/>
<path opacity="0.8" d="M894.227 455.059H886.573H795.677L805.54 542.333L812.58 554.299L825.947 686.634L832.986 693.674V701.414H886.573H894.227H947.804V693.674L954.843 686.634L968.221 554.299L975.261 542.333L985.113 455.059H894.227Z" fill="white"/>
<path d="M839.26 695.151V691.076L831.962 683.778L818.67 552.305L811.62 540.307L802.694 461.322H978.096L969.181 540.307L962.12 552.305L948.839 683.778L941.541 691.076V695.151H839.26Z" fill="#EDA91A"/>
<path opacity="0.3" d="M839.26 695.151V691.076L831.962 683.778L818.67 552.305L811.62 540.307L802.694 461.322H978.096L969.181 540.307L962.12 552.305L948.839 683.778L941.541 691.076V695.151H839.26Z" fill="white"/>
<path opacity="0.1" d="M825.947 626.256L831.423 634.556L833.687 635.818V647.385C833.687 647.385 836.199 650.651 837.966 650.91C839.724 651.158 843.001 653.626 843.755 652.02C844.51 650.414 844.769 650.414 845.523 649.907C846.278 649.4 848.542 652.02 848.542 652.02C848.542 652.02 850.299 656.903 850.299 657.679C850.299 658.456 849.038 659.458 850.299 660.471C851.56 661.474 850.051 662.487 853.069 662.735C856.088 662.983 856.088 663.242 857.597 662.735C859.106 662.229 861.37 661.226 861.37 661.226C861.37 661.226 861.122 658.671 861.37 657.679C861.618 656.698 863.634 654.435 863.634 654.435C863.634 654.435 869.164 655.189 869.67 654.435C870.177 653.68 872.958 650.414 873.325 648.646C873.691 646.889 875.449 646.673 875.201 644.646C874.953 642.62 873.993 641.359 875.222 640.356C876.451 639.353 878.467 639.095 879.976 638.847C881.485 638.599 883.501 638.847 883.749 637.586C883.997 636.324 883.749 635.57 883.749 634.319C883.749 633.069 882.962 634.071 883.857 631.807C884.752 629.544 885 630.805 885.754 628.282C886.509 625.771 882.984 627.021 885.754 624.509C888.525 621.998 887.77 622.246 890.411 620.984C893.052 619.723 898.83 619.723 898.83 619.723L902.097 621.232C902.097 621.232 903.099 621.739 904.113 621.987C905.115 622.235 905.622 635.311 905.622 635.311L909.901 634.308C909.901 634.308 914.677 633.047 914.677 631.29C914.677 629.533 916.186 628.024 915.938 626.762C915.69 625.501 914.483 625.005 915.971 622.989C917.447 620.974 919.215 619.723 920.218 619.723C921.22 619.723 924.562 622.235 924.53 619.723C924.498 617.211 924.562 613.934 924.53 612.177C924.498 610.42 925.759 608.404 925.759 608.404C925.759 608.404 930.286 608.156 930.912 606.647C931.537 605.138 931.041 602.119 932.798 600.362C934.555 598.605 935.493 597.096 937.293 596.341C939.083 595.587 943.492 596.341 943.492 596.341L944.872 600.621L943.492 606.151C943.492 606.151 947.383 608.167 948.386 607.908C949.389 607.66 950.65 609.417 950.65 609.417C950.65 609.417 948.386 614.7 948.893 615.454C949.399 616.209 951.911 618.72 951.911 618.72L954.876 619.982L948.86 683.789L941.562 691.087V695.161H839.282V691.087L831.984 683.789L825.968 624.305" fill="black"/>
<path opacity="0.3" d="M805.54 542.333H975.261L968.221 554.299H812.58L805.54 542.333Z" fill="black"/>
<path opacity="0.3" d="M825.947 686.634H954.843L947.804 693.674H832.986L825.947 686.634Z" fill="black"/>
<path d="M812.202 542.527C861.801 541.816 916.941 541.827 966.583 542.527C916.941 543.228 861.823 543.239 812.202 542.527Z" fill="white"/>
<path d="M845.512 686.634C876.979 685.923 911.971 685.934 943.46 686.634C911.96 687.335 876.99 687.346 845.512 686.634Z" fill="white"/>
<path d="M976.759 454.433C976.382 452.655 975.26 447.663 975.26 447.663L970.442 443.567L966.583 440.214L960.018 431.461C960.018 431.461 954.434 429.424 951.663 431.461C948.893 433.499 946.251 429.424 943.654 429.79C941.045 430.168 941.045 427.181 939.643 426.815C938.231 426.438 939.643 424.206 939.643 424.206L938.08 422.341L930.89 417.134L925.435 416.391L920.595 416.013L916.132 413.405L910.548 410.429V406.117C910.548 406.117 906.085 405.223 904.22 406.117C902.355 407.012 900.124 406.117 900.124 406.117H895.661L891.5 399.272L886.735 398.528L881.528 396.652L874.834 399.272C874.834 399.272 872.603 402.625 871.481 404.878C870.36 407.131 868.129 408.575 868.129 408.575H863.289C863.289 408.575 859.57 409.319 856.217 410.807C852.864 412.294 856.217 410.807 852.498 412.672C852.498 412.672 852.864 414.903 852.498 416.024C852.121 417.145 852.498 418.633 852.498 418.633L849.889 420.994L842.817 421.985C842.817 421.985 834.258 419.754 831.283 421.985L827.93 424.594C827.93 424.594 826.065 423.473 825.321 424.594C824.578 425.715 824.578 426.459 823.457 427.947C822.335 429.434 823.457 433.154 823.457 433.154C823.457 433.154 819.36 434.641 816.385 436.506C813.41 438.371 816.385 436.506 815.264 438.781C814.143 441.055 813.776 440.225 812.159 441.346C810.542 442.467 812.159 444.699 812.159 444.699V449.819C812.159 449.819 810.424 449.162 808.936 449.819C807.448 450.477 807.815 452.137 806.704 455.069V459.079L802.651 461.332H978.053C978.053 461.332 977.082 456.234 976.716 454.444L976.759 454.433Z" fill="#EDA91A"/>
<path opacity="0.3" d="M976.759 454.433C976.382 452.655 975.26 447.663 975.26 447.663L970.442 443.567L966.583 440.214L960.018 431.461C960.018 431.461 954.434 429.424 951.663 431.461C948.893 433.499 946.251 429.424 943.654 429.79C941.045 430.168 941.045 427.181 939.643 426.815C938.231 426.438 939.643 424.206 939.643 424.206L938.08 422.341L930.89 417.134L925.435 416.391L920.595 416.013L916.132 413.405L910.548 410.429V406.117C910.548 406.117 906.085 405.223 904.22 406.117C902.355 407.012 900.124 406.117 900.124 406.117H895.661L891.5 399.272L886.735 398.528L881.528 396.652L874.834 399.272C874.834 399.272 872.603 402.625 871.481 404.878C870.36 407.131 868.129 408.575 868.129 408.575H863.289C863.289 408.575 859.57 409.319 856.217 410.807C852.864 412.294 856.217 410.807 852.498 412.672C852.498 412.672 852.864 414.903 852.498 416.024C852.121 417.145 852.498 418.633 852.498 418.633L849.889 420.994L842.817 421.985C842.817 421.985 834.258 419.754 831.283 421.985L827.93 424.594C827.93 424.594 826.065 423.473 825.321 424.594C824.578 425.715 824.578 426.459 823.457 427.947C822.335 429.434 823.457 433.154 823.457 433.154C823.457 433.154 819.36 434.641 816.385 436.506C813.41 438.371 816.385 436.506 815.264 438.781C814.143 441.055 813.776 440.225 812.159 441.346C810.542 442.467 812.159 444.699 812.159 444.699V449.819C812.159 449.819 810.424 449.162 808.936 449.819C807.448 450.477 807.815 452.137 806.704 455.069V459.079L802.651 461.332H978.053C978.053 461.332 977.082 456.234 976.716 454.444L976.759 454.433Z" fill="white"/>
<path d="M791.138 459.069L795.558 449.809H985.803L991.862 459.069H791.138Z" fill="#EDA91A"/>
<path opacity="0.7" d="M791.138 459.069L795.558 449.809H985.803L991.862 459.069H791.138Z" fill="white"/>
<path opacity="0.4" d="M809.615 420.153C809.615 420.153 824.793 379.749 872.344 370.694H905.73C905.73 370.694 891.834 402.948 874.112 411.453C856.39 419.959 809.615 420.164 809.615 420.164V420.153Z" fill="white"/>
<path d="M826.022 492.562C827.445 490.417 828.911 488.304 830.41 486.223C831.186 486.482 831.994 486.687 832.803 486.816C833.687 486.892 834.916 487.172 835.379 486.342C835.918 485.145 837.029 484.348 838.268 483.97L837.891 484.348L839.066 479.82L839.12 479.637L839.282 479.529L842.623 477.168L842.861 476.996C845.243 478.085 847.593 479.217 849.954 480.37L849.738 480.348C852.131 479.853 854.535 479.411 856.95 479.012C854.611 479.723 852.25 480.381 849.889 481.006C849.781 481.049 849.771 481.028 849.674 480.984C847.345 480.025 845.017 479.055 842.699 478.052L843.206 477.998L839.885 480.402L840.09 480.1L838.894 484.617L838.818 484.898C838.107 485.081 837.352 485.426 836.813 485.965C836.339 486.364 836.274 486.957 835.778 487.355C834.873 488.045 833.59 487.787 832.652 487.614C831.887 487.442 831.153 487.226 830.42 486.935L830.809 486.827C829.245 488.768 827.65 490.686 826.022 492.573V492.562Z" fill="white"/>
<path d="M865.111 507.514C866.577 505.822 869.379 502.577 870.867 500.906L871.04 500.96L875.664 502.297L875.265 502.415C876.505 500.863 877.723 499.289 878.984 497.758C878.984 497.758 879.006 497.737 879.006 497.726L881.421 495.225L881.615 495.031L881.884 495.095L888.924 496.723L889.225 496.788C889.818 498.771 890.357 500.777 890.918 502.771L890.487 502.404L894.842 502.976H894.95L895.036 503.04L899.585 505.778L899.693 505.843L899.747 505.94L901.31 508.948L900.986 508.754L907.206 508.883H907.368C908.392 511.136 909.449 513.357 910.451 515.621C909.265 513.508 908.144 511.362 906.98 509.239L907.196 509.379L900.976 509.508H900.76L900.641 509.314L898.96 506.371L899.121 506.533L894.529 503.87L894.712 503.935L890.347 503.418L890.012 503.375C889.441 501.369 888.827 499.386 888.277 497.37L888.665 497.737L881.647 496.023L882.111 495.893C879.922 497.995 877.809 500.55 875.826 502.868L875.664 503.062L875.438 502.986L870.867 501.477L871.158 501.402C869.671 502.933 866.62 505.994 865.111 507.503V507.514Z" fill="white"/>
<path d="M903.39 478.527C904.123 476.92 904.878 475.336 905.676 473.773C907.498 474.473 909.341 475.152 911.152 475.896L910.494 476.198C910.926 474.657 911.411 473.137 911.874 471.606C912.941 471.045 914.052 471.142 915.022 471.261C917.728 471.681 920.272 472.727 922.73 473.88L922.827 473.924L922.87 473.999C923.721 475.487 924.53 477.007 925.306 478.527C924.282 477.147 923.29 475.756 922.331 474.322L922.471 474.441C920.013 473.525 917.469 472.684 914.882 472.296C914.052 472.199 913.157 472.188 912.575 472.457L912.834 472.145C912.37 473.589 911.928 475.045 911.432 476.478L911.26 476.996L910.775 476.78C909.071 476.036 907.39 475.217 905.708 474.43L906.096 474.301C905.234 475.724 904.328 477.125 903.39 478.516V478.527Z" fill="white"/>
<path d="M944.15 515.836C943.977 514.09 943.837 512.333 943.74 510.576C945.67 510.263 947.599 509.918 949.54 509.659L949.119 510.252C948.72 508.7 948.375 507.147 947.998 505.595C948.634 504.582 949.658 504.097 950.542 503.719C953.097 502.728 955.814 502.35 958.519 502.113H958.627L958.703 502.146C960.179 503.008 961.646 503.913 963.079 504.841C961.505 504.161 959.942 503.45 958.401 502.695L958.584 502.728C955.997 503.17 953.377 503.719 950.941 504.679C950.176 505.013 949.399 505.455 949.022 505.983L949.087 505.584C949.41 507.072 949.755 508.549 950.057 510.037L950.165 510.576L949.637 510.64C947.782 510.845 945.928 510.985 944.074 511.158L944.344 510.845C944.311 512.516 944.225 514.176 944.117 515.847L944.15 515.836Z" fill="white"/>
<path d="M845.512 580.883C846.547 580.031 848.283 578.64 849.027 578.101L851.808 573.003L851.862 572.895C853.511 571.978 855.15 571.051 856.81 570.157C860.109 570.124 863.407 570.157 866.706 570.221C867.191 572.043 867.655 573.876 868.118 575.698L867.827 575.482C869.649 575.547 871.471 575.654 873.293 575.784C872.387 575.859 871.471 575.902 870.565 575.956C869.584 576.01 868.603 576.075 867.622 576.086C867.051 574.328 866.458 572.571 865.908 570.814L866.35 571.148C863.213 571.202 860.087 571.235 856.95 571.213L857.198 571.148C855.613 572 854.018 572.808 852.422 573.639L852.595 573.466L849.48 578.371C848.207 579.255 846.838 580.063 845.502 580.883H845.512Z" fill="white"/>
<path d="M902.625 600.19C905.74 602.475 908.802 604.836 911.842 607.207L911.432 607.175C913.135 606.205 914.828 605.192 916.542 604.254L922.643 601.677L922.331 602.152C922.32 600.244 922.298 598.336 922.331 596.427C922.762 595.349 923.193 594.261 923.905 593.312C924.077 593.118 924.207 592.902 924.584 592.73C926.826 592.32 929.068 592.665 931.311 592.73L930.858 593.096C931.429 589.895 931.947 586.682 932.561 583.491C934.006 582.586 935.439 581.68 936.905 580.807C935.569 581.821 934.21 582.791 932.852 583.783L932.938 583.642C932.572 586.844 932.119 590.035 931.72 593.226L931.677 593.603H931.267C929.187 593.592 927.02 593.355 924.972 593.635C924.228 594.304 923.743 595.727 923.344 596.708L923.377 596.524C923.398 598.508 923.376 600.502 923.366 602.497L923.053 602.626L916.909 605.116C915.378 605.968 913.286 607.024 911.562 607.93C908.554 605.386 905.557 602.82 902.625 600.179V600.19Z" fill="white"/>
<path d="M890.4 667.651C891.619 669.828 892.794 672.038 893.915 674.259L893.602 674.065C895.844 673.99 898.097 673.936 900.34 673.903L899.855 674.248C900.814 671.284 901.806 668.341 902.819 665.398C905.654 665.053 908.479 664.73 911.324 664.449L911.012 664.73C911.799 661.539 912.618 658.369 913.513 655.211C912.963 658.531 912.327 661.83 911.669 665.128C908.877 665.581 906.064 665.991 903.261 666.39L903.681 666.045C902.711 669.02 901.709 671.974 900.685 674.927C898.238 674.906 895.801 674.841 893.354 674.755C892.319 672.416 891.328 670.044 890.379 667.662L890.4 667.651Z" fill="white"/>
<path d="M903.39 440.506C904.533 439.083 906.128 437.207 907.12 436.053L908.834 432.259L908.931 432.043H909.19C911.001 431.979 912.801 431.946 914.612 431.925L914.731 431.989L917.987 433.736L917.286 433.919L919.711 429.93L919.938 429.564L920.347 429.704C922.449 430.459 924.552 431.224 926.654 432.011C927.742 433.046 928.842 434.091 929.888 435.169C930.481 436.215 931.095 437.498 931.893 438.339C933.574 438.08 935.256 437.595 936.938 437.239C935.278 437.821 933.639 438.425 931.914 438.835C931.871 438.856 931.731 438.824 931.634 438.781C930.707 438.069 929.672 436.226 929.306 435.611C928.228 434.663 927.128 433.725 926.072 432.755C924.886 432.507 921.803 431.289 919.992 430.707L920.628 430.48L918.191 434.469L917.933 434.9L917.491 434.652L914.257 432.841L914.494 432.906C912.726 432.884 910.958 432.852 909.201 432.798L909.546 432.582L907.638 436.28C906.258 437.703 904.835 439.104 903.412 440.484L903.39 440.506Z" fill="white"/>
<path d="M842.494 430.782C842.893 429.262 843.109 427.656 844.488 426.589C845.933 426.136 847.83 426.287 849.124 426.308C850.223 426.244 851.345 426.19 852.444 426.147V426.696C852.466 428.055 852.466 429.424 852.444 430.782L852.034 430.275C855.031 430.944 857.974 431.752 860.766 433.046L860.852 433.078C861.165 433.833 861.488 434.598 861.78 435.363C861.348 434.684 860.95 433.994 860.54 433.304L860.648 433.402C859.354 433.078 858.093 432.668 856.821 432.302C855.344 432.054 853.425 431.644 851.808 431.289L851.409 431.202V430.782C851.388 429.424 851.388 428.055 851.409 426.696L851.948 427.225C851.01 427.257 850.062 427.268 849.124 427.278C847.884 427.225 845.965 426.934 844.758 427.16C843.594 427.947 843.076 429.531 842.494 430.793V430.782Z" fill="white"/>
<path d="M875.244 421.446C875.502 420.358 875.599 419.312 876.203 418.331C876.526 418.072 876.742 418.051 877.001 417.932C877.464 417.76 878.779 417.35 879.275 417.188L878.984 417.512C879.081 416.811 879.103 416.013 879.265 415.302C879.642 414.386 880.375 413.954 881.205 413.588L884.288 412.92C885.733 413.07 887.199 413.426 888.632 413.685V414.095C888.611 415.42 888.557 416.757 888.492 418.083L888.212 417.727C889.344 418.04 890.476 418.342 891.597 418.698C892.125 419.172 892.653 419.646 893.16 420.142C892.567 419.776 891.985 419.377 891.403 418.989C890.53 418.935 888.913 418.568 887.792 418.385C887.716 416.951 887.662 415.517 887.641 414.084L888.05 414.569C886.8 414.386 885.56 414.17 884.31 413.965H884.514L881.421 414.58L881.507 414.547C880.957 414.774 880.299 415.194 880.159 415.571C880.105 415.733 880.019 416.326 879.976 416.542C879.944 416.736 879.75 417.695 879.717 417.868C878.833 418.083 877.367 418.331 876.548 418.654C876.031 419.28 875.61 420.638 875.254 421.403L875.244 421.446Z" fill="white"/>
<path opacity="0.1" d="M823.424 502.415C824.837 501.747 833.31 511.664 833.31 511.664L838.484 518.229C838.484 518.229 843.119 519.167 845.513 518.229C847.906 517.291 848.38 515.448 852.617 515.901C856.853 516.354 856.788 517.184 859.408 518.65C862.028 520.116 869.541 528.589 869.541 528.589L876.16 532.351H883.782L889.387 527.64L894.475 529.99V535.165H899.208C901.105 531.402 899.208 529.516 899.208 529.516C899.208 529.516 904.867 525.754 906.279 525.279C907.692 524.805 914.86 525.754 914.86 525.754L926.999 532.815C926.999 532.815 933.122 529.052 934.06 527.64C934.997 526.228 936.916 521.69 936.916 521.69C936.916 521.69 941.53 518.391 943.449 518.779C945.368 519.167 947.243 523.274 949.604 521.69C951.954 520.105 956.665 521.69 957.614 518.779C958.552 515.869 963.09 511.664 963.09 511.664L966.583 509.12L972.415 511.664L969.181 540.307L962.12 552.305L960.233 570.944L940.193 575.784L937.294 568.151L933.596 564.853L926.535 563.915L923.527 565.327L918.062 567.214V575.795L914.871 578.252H907.228C907.228 578.252 902.366 577.627 903.39 580.904C904.404 584.171 903.39 588.418 903.39 588.418C903.39 588.418 894.917 595.015 894.486 593.592C894.055 592.18 890.401 593.786 890.401 593.786H883.782L879.922 600.653C879.922 600.653 878.036 601.57 876.624 602.992C875.212 604.415 873.303 607.24 873.303 607.24L863.44 604.674L864.852 597.646C864.852 597.646 866.264 593.118 864.852 591.706C863.44 590.294 859.408 587.944 859.408 587.944L852.617 589.356L845.513 590.768C845.513 590.768 852.067 595.004 845.513 599.715L838.958 604.426L830.949 599.715L828.599 589.356V580.904C828.599 578.996 825.947 575.805 825.947 575.805H821.042L818.67 552.326L811.61 540.328L807.254 502.674L810.23 492.584H813.992L817.291 498.47L823.414 502.437L823.424 502.415Z" fill="white"/>
<path opacity="0.1" d="M866.544 621.739L862.987 620.553C861.327 622.45 861.09 624.348 861.09 624.348V626.245H863.817C863.817 626.245 865.833 628.142 866.544 627.431C867.256 626.719 868.679 626.245 868.679 625.533V621.976L866.544 621.739Z" fill="black"/>
<path opacity="0.1" d="M934.005 503.482L930.448 502.296C928.788 504.194 928.551 506.091 928.551 506.091V507.988H931.278C931.278 507.988 933.294 509.886 934.005 509.174C934.717 508.463 936.14 507.988 936.14 507.277V503.719L934.005 503.482Z" fill="black"/>
<path opacity="0.1" d="M874.231 472.501L870.673 471.315C869.013 473.212 868.776 475.109 868.776 475.109V477.007H871.503C871.503 477.007 873.519 478.904 874.231 478.192C874.942 477.481 876.365 477.007 876.365 476.295V472.738L874.231 472.501Z" fill="white"/>
<path opacity="0.1" d="M876.225 611.918L873.249 614.247L872.851 615.853L875.826 617.707H877.917L879.599 615.853L876.225 611.918Z" fill="black"/>
<path opacity="0.1" d="M923.139 516.332L920.164 518.661L919.754 520.267L922.73 522.121H924.821L926.513 520.267L923.139 516.332Z" fill="black"/>
<path d="M805.087 435.374C808.99 410.72 826.691 389.247 848.822 378.326C856.239 374.651 864.173 371.934 872.333 370.694C868.291 371.535 864.324 372.656 860.464 374.09C833.46 383.695 810.995 407.001 805.077 435.374H805.087Z" fill="white"/>
<path d="M799.547 449.83C854.676 449.13 916.531 449.119 971.66 449.83C916.531 450.542 854.676 450.531 799.547 449.83Z" fill="white"/>
</g>
<defs>
<clipPath id="clip0_53026_17866">
<rect width="1000" height="1000" fill="white"/>
</clipPath>
</defs>
</svg>
