<svg width="1000" height="1000" viewBox="0 0 1000 1000" fill="none" xmlns="http://www.w3.org/2000/svg">
<g clip-path="url(#clip0_53026_18111)">
<path d="M319.267 784.409C208.632 780.153 77.4768 694.577 62.9855 578.079C49.1561 466.971 133.906 393.261 230.451 360.236C300.497 336.336 376.239 322.932 436.285 279.6C484.132 245.062 518.765 193.503 569.993 164.142C613.664 139.484 665.239 132.859 713.724 145.679C920.006 200.95 900.763 497.915 830.647 649.637C792.067 733.157 701.833 789.893 612.686 802.919C515.952 817.079 415.978 788.12 319.267 784.409Z" fill="#EDA91A"/>
<path opacity="0.9" d="M319.267 784.409C208.632 780.153 77.4768 694.577 62.9855 578.079C49.1561 466.971 133.906 393.261 230.451 360.236C300.497 336.336 376.239 322.932 436.285 279.6C484.132 245.062 518.765 193.503 569.993 164.142C613.664 139.484 665.239 132.859 713.724 145.679C920.006 200.95 900.763 497.915 830.647 649.637C792.067 733.157 701.833 789.893 612.686 802.919C515.952 817.079 415.978 788.12 319.267 784.409Z" fill="white"/>
<path d="M778.016 343.123L505.248 347.646L508.513 544.564L781.281 540.041L778.016 343.123Z" fill="#EDA91A"/>
<path opacity="0.3" d="M669.892 344.892L504.979 347.626L508.244 544.544L673.158 541.81L669.892 344.892Z" fill="white"/>
<path opacity="0.3" d="M694.743 358.16L647.25 359.11L647.515 372.349L695.008 371.399L694.743 358.16Z" fill="white"/>
<path opacity="0.3" d="M696.154 511.287L648.667 512.074L648.887 525.311L696.373 524.523L696.154 511.287Z" fill="white"/>
<path d="M727.813 469.169C743.206 469.169 755.684 455.05 755.684 437.633C755.684 420.217 743.206 406.098 727.813 406.098C712.42 406.098 699.941 420.217 699.941 437.633C699.941 455.05 712.42 469.169 727.813 469.169Z" stroke="white" stroke-miterlimit="10"/>
<path d="M728.972 410.897V416.192" stroke="white" stroke-linecap="round" stroke-linejoin="round"/>
<path d="M730.177 459.406V464.701" stroke="white" stroke-linecap="round" stroke-linejoin="round"/>
<path d="M704.315 436.593H709.634" stroke="white" stroke-linecap="round" stroke-linejoin="round"/>
<path d="M747.009 436.617H752.328" stroke="white" stroke-linecap="round" stroke-linejoin="round"/>
<path d="M728.948 436.593L728.971 420.282" stroke="white" stroke-width="0.5" stroke-linecap="round" stroke-linejoin="round"/>
<path d="M729.988 437.657L741.525 449.193" stroke="white" stroke-width="0.5" stroke-linecap="round" stroke-linejoin="round"/>
<path d="M731.525 436.617C731.525 437.127 731.374 437.625 731.09 438.048C730.807 438.472 730.405 438.802 729.934 438.997C729.463 439.193 728.945 439.244 728.445 439.144C727.945 439.045 727.486 438.799 727.126 438.439C726.765 438.079 726.52 437.619 726.421 437.12C726.321 436.62 726.372 436.102 726.567 435.631C726.762 435.16 727.093 434.758 727.516 434.474C727.94 434.191 728.438 434.04 728.948 434.04C729.287 434.037 729.624 434.101 729.938 434.23C730.252 434.358 730.537 434.548 730.777 434.788C731.017 435.028 731.206 435.313 731.335 435.627C731.463 435.941 731.528 436.278 731.525 436.617Z" fill="white"/>
<path opacity="0.3" d="M727.813 477.514C748.194 477.514 764.715 459.659 764.715 437.633C764.715 415.608 748.194 397.753 727.813 397.753C707.433 397.753 690.911 415.608 690.911 437.633C690.911 459.659 707.433 477.514 727.813 477.514Z" fill="white"/>
<path d="M421.344 783.487C425.458 786.631 508.032 777.742 486.685 631.245C486.685 631.245 525.857 641.197 530.065 640.535C530.065 640.535 587.533 728.642 545.691 772.281C503.848 815.921 441.485 818.592 441.485 818.592L421.344 783.487Z" fill="#EDA91A"/>
<path opacity="0.3" d="M421.344 783.487C425.458 786.631 508.032 777.742 486.685 631.245C486.685 631.245 525.857 641.197 530.065 640.535C530.065 640.535 587.533 728.642 545.691 772.281C503.848 815.921 441.485 818.592 441.485 818.592L421.344 783.487Z" fill="black"/>
<path d="M512.855 653.916C513.067 653.916 489.782 654.365 481.981 644.673C474.18 634.98 468.908 617.652 483.092 605.832C497.276 594.012 580.56 542.95 619.778 538.931C658.997 534.912 700.982 560.207 700.982 560.207L649.636 598.173L539.071 624.933L512.855 653.916Z" fill="#263238"/>
<path d="M437.561 760.414L439.712 781.595L465.149 779.444L461.319 757.672L437.561 760.414Z" fill="#FFC3BD"/>
<path d="M432.62 780.059L469.523 779.539L472.147 798.167C472.147 798.167 437.585 798.64 423.377 796.749C409.17 794.857 411.392 787.458 411.392 787.458C411.392 787.458 428.034 787.86 432.62 780.059Z" fill="#263238"/>
<path d="M754.663 833.675C760.173 779.524 727.481 731.845 681.643 727.181C635.805 722.516 594.179 762.633 588.669 816.784C583.159 870.935 615.851 918.614 661.689 923.278C707.527 927.942 749.153 887.826 754.663 833.675Z" fill="#263238"/>
<path d="M613.679 523.778C613.679 523.778 617.509 611.647 566.399 614.153C515.29 616.659 460.374 611.056 460.374 611.056L476.473 768.948L428.554 771.903C428.554 771.903 394.158 637.959 388.745 604.295C383.331 570.632 388.036 546.827 423.566 531.886C459.097 516.946 613.679 523.778 613.679 523.778Z" fill="#EDA91A"/>
<path d="M327.659 802.564L391.321 617.652L476.425 523.707C476.425 523.707 402.149 523.99 366.452 544.51C330.756 565.029 329.432 589.686 322.884 619.023C316.335 648.36 290.071 787.222 290.071 787.222L327.659 802.564Z" fill="#EDA91A"/>
<path opacity="0.7" d="M613.679 523.778C613.679 523.778 534.58 520.255 476.567 523.778C476.567 523.778 402.29 524.061 366.594 544.581C330.898 565.1 329.432 589.686 322.884 619.023C316.335 648.36 290.071 787.222 290.071 787.222L327.659 802.564L391.321 617.652C402.03 668.904 428.554 771.808 428.554 771.808L476.473 768.948L460.35 611.151C460.35 611.151 515.242 616.754 566.376 614.248C617.509 611.742 613.679 523.778 613.679 523.778Z" fill="black"/>
<path d="M483.092 381.252L453.707 384.822C453.707 384.822 448.601 438.839 443.849 449.335C443.849 449.335 353.474 461.746 316.454 460.682L297.66 473.448L296.998 495.646L315.413 496.19L321.347 482.124C321.347 482.124 333.782 481.58 336.666 474.583C336.666 474.583 432.691 497.774 468.057 471.297C468.104 471.32 489.427 439.997 483.092 381.252Z" fill="#FFC3BD"/>
<path d="M567.298 236.599C567.298 236.599 576.494 248.419 572.995 258.655C572.029 261.574 570.328 264.195 568.055 266.266C565.781 268.336 563.013 269.786 560.017 270.475C560.017 270.475 558.291 286.857 548.622 287.33C538.953 287.803 542.192 251.232 542.192 251.232L567.298 236.599Z" fill="#263238"/>
<path d="M492.855 524.179L486.402 418.58L446.355 391.961C446.355 391.961 459.452 345.792 484.51 337.967C509.569 330.142 564.224 312.2 597.368 321.112C630.511 330.024 626.705 369.125 621.008 398.131L614.625 399.644C614.625 399.644 613.632 513.943 613.585 523.778L492.855 524.179Z" fill="#263238"/>
<path d="M564.91 327.637C551.79 340.331 525.029 347.896 517.63 341.584C510.231 335.272 519.569 329.48 526.519 322.341C530.277 318.417 530.159 311.065 529.285 305.202C528.824 302.248 528.144 299.332 527.252 296.479C502.69 295.131 492.501 283.642 491.484 263.383C490.468 243.123 499.64 219.602 499.64 219.602L516.992 204.803C516.992 204.803 540.632 208.349 559.544 221.351C570.796 229.01 567.463 244.093 562.806 255.227C560.833 259.967 558.46 264.53 555.714 268.867C553.066 296.597 564.91 327.637 564.91 327.637Z" fill="#FFC3BD"/>
<path d="M505.148 268.962C505.148 268.962 514.604 269.411 518.741 263.548" stroke="#263238" stroke-linecap="round" stroke-linejoin="round"/>
<path d="M520.207 245.038C520.207 246.835 519.119 248.253 517.843 248.23C516.566 248.206 515.644 246.717 515.691 244.92C515.739 243.123 516.779 241.705 518.055 241.729C519.332 241.752 520.278 243.242 520.207 245.038Z" fill="#263238"/>
<path d="M498.647 245.606C498.647 247.402 497.56 248.821 496.283 248.797C495.006 248.773 494.085 247.284 494.132 245.488C494.179 243.691 495.219 242.272 496.496 242.296C497.772 242.32 498.718 243.833 498.647 245.606Z" fill="#263238"/>
<path d="M506.141 260.286L505.172 245.795L498.245 259.553C499.326 260.472 500.664 261.035 502.077 261.167C503.49 261.298 504.909 260.99 506.141 260.286Z" fill="#ED847E"/>
<path d="M519.072 233.691C520.885 233.193 522.817 233.354 524.522 234.146C526.228 234.939 527.597 236.31 528.386 238.017" stroke="#263238" stroke-linecap="round" stroke-linejoin="round"/>
<path d="M491.98 236.362C491.98 236.362 496.33 231.634 501.436 232.84" stroke="#263238" stroke-linecap="round" stroke-linejoin="round"/>
<path d="M562.972 255.227C535.927 256.196 532.571 225.535 532.571 225.535C519.19 232.627 499.735 219.625 499.735 219.625L517.086 204.779C517.086 204.779 540.726 208.373 559.638 221.327C570.962 229.01 567.629 244.14 562.972 255.227Z" fill="#263238"/>
<path d="M491.035 228.609C491.035 228.609 477.04 219.294 483.21 212.581C489.38 205.867 527.181 218.632 555.431 234.282C555.431 234.282 490.728 190.997 473.14 204.685C458.601 216.008 490.846 231.729 489.877 231.705L491.035 228.609Z" fill="#EDA91A"/>
<path d="M569.969 225.441C569.929 230.343 569 235.197 567.227 239.767L503.682 209.035C506.315 205.995 509.469 203.449 512.997 201.517C516.757 199.366 520.847 197.848 525.1 197.025C529.611 196.163 534.228 196.004 538.788 196.553C562.026 199.224 570.087 217.096 569.969 225.441Z" fill="#EDA91A"/>
<path d="M423.992 508.104C419.855 512.43 366.358 501.343 357.02 506.308C353.072 508.388 351.346 515.764 347.375 523.848C341.961 534.841 332.34 546.897 307.187 547.701C263.5 549.096 268.772 504.771 265.32 490.374C265.32 490.374 223.95 482.833 221.775 475.576C219.601 468.318 222.272 467.231 222.272 467.231C222.272 467.231 273.311 476.687 283.192 463.779C285.106 461.909 287.351 460.41 289.811 459.359C295.483 456.865 301.584 455.492 307.778 455.316C325.768 454.371 347.706 459.429 353.852 470.824C366.334 494.062 419.855 488.838 424.772 494.937C429.689 501.036 428.129 503.778 423.992 508.104Z" fill="#EDA91A"/>
<path d="M288.558 538.387C288.558 538.387 216.787 637.675 275.887 790.508" stroke="#263238" stroke-linecap="round" stroke-linejoin="round"/>
<path d="M383.284 589.97C383.284 589.97 383.284 590.159 383.284 590.537C383.284 590.915 383.284 591.128 383.284 591.553V591.79C382.43 601.352 380.85 610.836 378.556 620.158C375.293 633.94 370.967 647.06 367.398 657.604C352.268 702.401 354.017 750.674 354.017 750.674C349.006 744.433 339.833 739.989 328.368 736.868C286.62 725.403 215.747 731.549 215.747 731.549C201.847 682.78 206.811 606.447 220.641 563.705C234.47 520.964 272.814 530.609 272.814 530.609C272.814 530.609 313.286 531.792 318.368 531.248C327.671 530.119 337.086 530.31 346.334 531.815C377.587 537.536 385.104 562.24 383.284 589.97Z" fill="#EDA91A"/>
<path d="M694.883 776.04C623.963 840.057 487.063 846.771 385.199 839.679L328.132 737.01L305.012 695.428L379.289 595.312L383.213 590.041C383.213 590.041 383.213 590.23 383.213 590.608C383.213 590.986 383.213 591.199 383.213 591.624V591.861C382.196 609.709 375.624 752.944 428.129 788.073L428.554 788.38C435.659 792.971 443.902 795.493 452.36 795.661C548.693 798.451 545.998 672.733 521.507 645.807L688.665 612.215C688.665 612.215 721.667 695.309 694.883 776.04Z" fill="#EDA91A"/>
<path d="M508.954 618.55C508.954 618.55 493.281 631.552 501.366 648.999C509.451 666.445 587.392 632.569 618.076 626.399C648.761 620.229 684.268 614.201 699.54 611.056C714.811 607.912 713.487 564.107 701.005 560.23C688.523 556.353 566.257 577.96 545.974 589.828C532.581 597.961 520.161 607.598 508.954 618.55Z" fill="#263238"/>
<path d="M548.196 266.054C546.705 264.448 545.802 262.384 545.634 260.199C545.467 258.014 546.045 255.836 547.274 254.022C551.057 248.348 558.693 239.341 566.021 246.079C576.281 255.535 558.764 272.721 551.506 268.56C550.29 267.885 549.176 267.041 548.196 266.054Z" fill="#FFC3BD"/>
<path opacity="0.2" d="M491.035 228.609C491.035 228.609 477.04 219.294 483.21 212.581C485.952 209.602 494.155 210.217 505.243 213.384C512.372 215.304 519.356 217.729 526.14 220.642C535.88 224.873 546.234 230.287 555.43 234.282C555.43 234.282 490.728 190.997 473.139 204.685C458.601 216.008 488.836 230.689 489.9 231.682L490.42 229.767L491.035 228.609Z" fill="black"/>
<path d="M497.678 224.566C497.678 224.566 483.494 226.93 493.281 242.201L497.678 224.566Z" fill="#263238"/>
<path d="M511.271 215.252C511.271 215.252 489.877 207.734 483.919 211.99C477.962 216.245 484.203 224.353 491.011 228.538L496.472 229.247L499.687 219.554L508.009 218.538L511.271 215.252Z" fill="#263238"/>
<path opacity="0.3" d="M540.419 203.692L535.289 211.28L512.997 201.588C516.757 199.437 520.847 197.919 525.1 197.096L540.419 203.692Z" fill="white"/>
<path opacity="0.1" d="M535.455 294.399C533.979 298.322 531.862 301.973 529.19 305.202C528.729 302.248 528.05 299.332 527.157 296.479C530.024 296.279 532.832 295.574 535.455 294.399Z" fill="black"/>
<path d="M323.522 502.289C322.576 518.671 315.484 532.075 306.785 535.385C305.279 535.964 303.667 536.214 302.057 536.118C291.324 535.503 283.523 519.404 284.61 500.185C285.698 480.966 295.296 465.883 306.028 466.498C310.402 466.734 314.255 469.547 317.257 474.063C321.678 480.54 324.16 490.894 323.522 502.289Z" fill="#F5F5F5"/>
<path d="M323.522 502.289C322.576 518.671 315.484 532.075 306.785 535.385C296.856 534.817 289.646 519.948 290.662 502.289C291.679 484.63 300.52 470.611 310.449 471.179C313.007 471.37 315.429 472.41 317.328 474.134C321.678 480.54 324.16 490.894 323.522 502.289Z" fill="white"/>
<path d="M706.655 734.504C688.381 721.668 617.674 709.068 617.674 709.068C574.72 709.068 537.015 747.719 531.814 799.042C527.559 840.79 545.998 878.685 575.713 895.966C575.713 895.966 578.195 897.006 582.356 898.637C598.1 904.854 638.052 919.913 661.668 923.223" fill="#263238"/>
<path opacity="0.3" d="M754.663 833.675C760.173 779.524 727.481 731.845 681.643 727.181C635.805 722.516 594.179 762.633 588.669 816.784C583.159 870.935 615.851 918.614 661.689 923.278C707.527 927.942 749.153 887.826 754.663 833.675Z" fill="black"/>
<path d="M387.157 830.523C392.667 776.372 359.975 728.693 314.137 724.029C268.299 719.365 226.673 759.482 221.163 813.633C215.653 867.784 248.346 915.463 294.184 920.127C340.022 924.791 381.647 884.674 387.157 830.523Z" fill="#263238"/>
<path d="M355.152 742.093L312.884 919.558C306.717 920.558 300.446 920.74 294.232 920.102H293.759C285.651 918.022 289.268 920.268 281.135 917.573C260.45 910.741 230.404 898.661 230.404 898.661C198.561 883.176 180.571 845.518 184.944 802.493C190.24 750.367 227.638 711.432 271.656 714.623C271.656 714.623 292.554 718.477 314.066 724.079C323.522 726.443 332.978 729.256 340.756 732.188C345.905 734.949 350.733 738.271 355.152 742.093Z" fill="#263238"/>
<path opacity="0.3" d="M387.161 830.412C382.433 877.101 350.826 913.341 312.837 919.464C306.67 920.463 300.399 920.646 294.185 920.008H293.712C285.056 919.073 276.644 916.566 268.89 912.608C236.952 896.415 216.74 857.078 221.161 813.58C226.669 759.468 268.204 719.399 314.019 723.985H314.137C323.439 724.924 332.467 727.679 340.708 732.093C345.859 734.862 350.687 738.191 355.105 742.022C377.729 761.691 390.896 794.692 387.161 830.412Z" fill="black"/>
<path d="M375.648 768.239C374.263 766.028 372.68 763.947 370.92 762.021C360.353 747.601 336.193 742.211 320.378 743.488C308.254 744.671 296.614 748.846 286.502 755.639C274.965 763.109 266.715 774.551 255.273 782.399C233.572 797.387 200.641 796.961 178.845 781.524C177.616 780.651 176.447 779.695 175.346 778.664C173.125 776.352 171.644 773.43 171.091 770.272C170.257 766.328 170.561 762.229 171.966 758.452C176.694 745.166 192.462 733.488 202.414 726.372C222.592 712.137 246.325 703.781 270.97 702.236C341.252 697.39 371.227 757.412 375.648 768.239Z" fill="#EDA91A"/>
<path opacity="0.3" d="M370.778 770.13C355.672 748.334 336.288 742.211 320.472 743.488C308.348 744.671 296.708 748.846 286.596 755.639C275.06 763.109 266.81 774.551 255.368 782.399C233.666 797.387 200.736 796.961 178.94 781.524C177.711 780.651 176.542 779.695 175.441 778.664C173.22 776.352 171.738 773.43 171.186 770.272C170.352 766.328 170.655 762.229 172.06 758.452C179.365 766.891 200.641 787.222 229.458 777.364C265.391 764.953 274.162 728.074 312.577 728.405C343.096 728.76 361.89 752.4 370.778 770.13Z" fill="black"/>
<g opacity="0.3">
<path d="M212.698 719.871C222.948 712.587 234.481 707.301 246.692 704.293C258.914 701.182 271.572 700.143 284.138 701.219C296.683 702.427 308.969 705.552 320.567 710.486L324.869 712.377L329.077 714.481C331.914 715.805 334.585 717.46 337.328 718.973C340.07 720.486 342.599 722.354 345.223 724.032C347.847 725.71 350.306 727.673 352.812 729.54C342.502 722.633 331.497 716.825 319.976 712.212C308.478 707.599 296.362 704.707 284.019 703.631C271.703 702.453 259.277 703.251 247.212 705.995C241.155 707.337 235.217 709.172 229.458 711.479C223.614 713.729 218.001 716.54 212.698 719.871Z" fill="black"/>
</g>
<g opacity="0.3">
<path d="M289.244 702.969C286.296 693.11 284.527 682.937 283.972 672.662C283.192 662.426 283.027 652.143 283.239 641.93C283.452 631.718 284.161 621.411 285.107 611.198L286.833 595.927C287.589 590.844 288.251 585.762 289.197 580.703L287.045 611.435L286.194 626.753C286.053 631.86 285.745 636.966 285.722 642.072C285.32 652.285 285.509 662.497 285.887 672.804C286.053 677.91 286.454 682.993 286.974 688.076C287.39 693.086 288.148 698.062 289.244 702.969Z" fill="black"/>
</g>
<path opacity="0.3" d="M428.011 787.86C378.65 756.111 376.688 674.199 378.367 620.158C378.674 610.867 379.052 602.428 379.336 595.17C379.854 587.906 379.854 580.615 379.336 573.351C374.348 536.236 345.98 531.768 345.98 531.768H346.098C377.516 537.536 385.033 562.24 383.213 589.97C383.213 589.97 383.213 590.159 383.213 590.537C383.213 590.915 383.213 591.128 383.213 591.553V591.79C382.149 609.638 375.577 752.873 428.011 787.86Z" fill="black"/>
<path opacity="0.2" d="M423.992 508.104C419.855 512.43 366.358 501.343 357.02 506.308C353.072 508.388 351.346 515.764 347.375 523.848C336.217 541.578 320.52 544.368 319.55 544.51C338.273 530.326 343.498 496.19 334.207 474.606C324.917 453.023 291.655 458.626 289.764 459.264C295.436 456.77 301.537 455.398 307.73 455.222C325.72 454.276 347.658 459.335 353.805 470.729C366.287 493.968 419.808 488.743 424.725 494.842C429.642 500.941 428.129 503.778 423.992 508.104Z" fill="black"/>
<path d="M382.102 487.466C378.85 493.469 377.552 500.336 378.39 507.111L423.708 512.218C426.025 509.536 427.737 506.388 428.728 502.986C429.72 499.583 429.967 496.008 429.453 492.502C429.453 492.502 384.56 487.987 382.102 487.466Z" fill="#263238"/>
<path d="M244.493 485.788C244.493 485.788 239.978 476.19 245.392 470.115C233.288 469.027 225.794 467.751 217.993 466.616C216.835 470.138 216.267 473.519 220.357 478.885C224.447 484.251 244.493 485.788 244.493 485.788Z" fill="#263238"/>
<path d="M219.317 545.857C211.468 558.647 204.755 579.119 204.164 611.813" stroke="#EDA91A" stroke-linecap="round" stroke-linejoin="round"/>
<path d="M245.155 524.77C239.446 526.095 234.196 528.928 229.955 532.973" stroke="#EDA91A" stroke-linecap="round" stroke-linejoin="round"/>
<path d="M597.699 401.535L567.865 405.176C567.865 405.176 562.664 459.997 557.842 470.659C557.842 470.659 466.095 483.282 428.484 482.171L409.406 495.126L408.744 517.678L427.443 518.222L433.472 504.038C433.472 504.038 446.095 503.494 449.003 496.379C449.003 496.379 546.494 520.019 582.404 493.069C582.38 492.975 604.058 461.179 597.699 401.535Z" fill="#FFC3BD"/>
<path opacity="0.2" d="M354.774 823.32C353.923 853.059 334.444 876.605 311.253 875.943C308.136 875.85 305.048 875.316 302.08 874.359C283.499 868.449 270.119 846.535 270.852 820.885C271.585 796.063 285.272 775.544 303.262 769.846C306.857 768.69 310.622 768.155 314.397 768.262C337.588 768.948 355.649 793.676 354.774 823.32Z" fill="#FAFAFA"/>
<path d="M333.427 823.32C332.694 848.709 319.243 869.584 302.08 874.43C283.499 868.52 270.119 846.605 270.852 820.956C271.585 796.134 285.272 775.615 303.262 769.917C321.134 774.763 334.16 797.032 333.427 823.32Z" fill="#263238"/>
<path opacity="0.2" d="M719.019 825.684C718.144 855.423 698.665 878.992 675.498 878.307C672.38 878.226 669.29 877.692 666.325 876.723C647.721 870.813 634.34 848.922 635.097 823.249C635.806 798.451 649.494 777.908 667.484 772.21C671.078 771.054 674.844 770.518 678.618 770.626C701.809 771.312 719.87 795.992 719.019 825.684Z" fill="#FAFAFA"/>
<path d="M697.672 825.684C696.916 851.05 683.488 871.924 666.325 876.77C647.721 870.86 634.34 848.969 635.097 823.296C635.806 798.498 649.494 777.955 667.484 772.258C685.379 777.104 698.428 799.373 697.672 825.684Z" fill="#263238"/>
<path d="M755.567 747.341C755.968 776.584 711.454 795.945 636.965 808.143C616.886 811.674 596.366 811.913 576.21 808.852C543.114 803.392 526.944 789.397 526.944 789.397C526.944 789.397 535.36 688.336 618.644 675.523C675.38 666.823 718.074 689.707 739.728 714.363C749.917 725.947 755.448 737.98 755.567 747.341Z" fill="#EDA91A"/>
<path opacity="0.3" d="M755.567 747.341C755.969 776.584 711.454 795.945 636.965 808.143C616.886 811.674 596.366 811.913 576.21 808.852C579.78 781.406 595.807 709.422 665.475 701.952C697.081 698.548 721.478 704.931 739.728 714.363C749.917 725.947 755.448 737.98 755.567 747.341Z" fill="black"/>
<g opacity="0.3">
<path d="M531.767 789.846C533.299 776.089 536.58 762.584 541.53 749.658C546.397 736.598 553.117 724.305 561.482 713.158C565.709 707.617 570.459 702.495 575.666 697.863C580.826 693.155 586.514 689.062 592.616 685.664C604.758 678.817 618.213 674.619 632.095 673.348C625.293 674.488 618.601 676.212 612.095 678.501C608.809 679.494 605.713 681.031 602.639 682.331C599.556 683.808 596.55 685.441 593.633 687.225C590.654 688.927 587.912 690.983 585.098 692.898C582.285 694.813 579.685 697.082 577.203 699.47C572.155 704.057 567.556 709.116 563.468 714.576C555.164 725.509 548.395 737.527 543.35 750.296C540.731 756.656 538.474 763.16 536.589 769.775C534.583 776.364 532.973 783.066 531.767 789.846Z" fill="black"/>
</g>
<path d="M419.997 756.466L424.914 773.156L476.473 768.853L477.158 745.521L419.997 756.466Z" fill="#EDA91A"/>
<path d="M726.175 257.173C726.089 256.818 725.931 256.484 725.711 256.193C725.491 255.901 725.214 255.657 724.896 255.477L487.848 122.393L722.456 260.822C722.91 261.094 723.435 261.224 723.963 261.194C724.491 261.165 724.999 260.979 725.42 260.659C725.841 260.339 726.157 259.9 726.327 259.399C726.496 258.898 726.512 258.357 726.372 257.847L726.175 257.173ZM821.18 112.295L751.46 75.1112L818.472 116.943C818.761 117.126 819.083 117.25 819.42 117.308C819.758 117.366 820.103 117.356 820.436 117.28H820.541C821.091 117.179 821.595 116.906 821.98 116.5C822.364 116.094 822.61 115.576 822.681 115.021C822.752 114.466 822.645 113.903 822.375 113.413C822.105 112.923 821.687 112.532 821.18 112.295ZM784.472 134.687L592.057 26.9463L781.463 139.591C781.94 139.872 782.493 139.998 783.045 139.95C783.597 139.902 784.12 139.683 784.542 139.323L784.902 139.021C785.231 138.745 785.487 138.393 785.649 137.996C785.811 137.599 785.873 137.168 785.831 136.741C785.789 136.314 785.643 135.903 785.406 135.545C785.169 135.188 784.849 134.893 784.472 134.687ZM731.276 212.401C731.623 212.609 732.014 212.735 732.418 212.768C732.822 212.802 733.228 212.742 733.605 212.594C733.982 212.446 734.32 212.213 734.593 211.914C734.866 211.615 735.067 211.257 735.18 210.868C735.436 209.973 735.715 209.067 735.993 208.172L569.827 115.746L731.276 212.401ZM754.516 167.211L639.234 104.045L751.576 172.266C752.159 172.61 752.852 172.718 753.513 172.57C754.173 172.421 754.752 172.025 755.132 171.464L755.445 170.999C755.65 170.697 755.79 170.355 755.857 169.996C755.923 169.637 755.915 169.268 755.832 168.912C755.749 168.557 755.593 168.222 755.375 167.929C755.156 167.636 754.88 167.392 754.562 167.211H754.516Z" fill="#F5F5F5"/>
<path d="M740.014 180.493C723.537 176.31 705.665 182.991 679.044 168.025C656.675 155.44 637.491 126.646 632.936 144.878C631.367 153.674 645.195 174.904 653.259 181.562C635.027 173.428 630.019 176.449 636.492 190.103C644.846 207.719 664.693 220.559 664.693 220.559C664.693 220.559 651.202 223.615 662.915 235.049C678.382 250.155 708.698 248.9 708.698 248.9C708.698 248.9 685.33 255.314 697.473 261.298C701.055 262.805 704.884 263.64 708.768 263.762C746.591 266.272 776.234 222.627 760.233 193.333C755.864 185.315 746.545 182.155 740.014 180.493Z" fill="#EDA91A"/>
<path opacity="0.65" d="M740.014 180.493C723.537 176.31 705.665 182.991 679.044 168.025C656.675 155.44 637.491 126.646 632.936 144.878C631.367 153.674 645.195 174.904 653.259 181.562C635.027 173.428 630.019 176.449 636.492 190.103C644.846 207.719 664.693 220.559 664.693 220.559C664.693 220.559 651.202 223.615 662.915 235.049C678.382 250.155 708.698 248.9 708.698 248.9C708.698 248.9 685.33 255.314 697.473 261.298C701.055 262.805 704.884 263.64 708.768 263.762C746.591 266.272 776.234 222.627 760.233 193.333C755.864 185.315 746.545 182.155 740.014 180.493Z" fill="white"/>
<path opacity="0.4" d="M743.953 195.715C733.658 191.974 722.735 190.358 712.196 187.418C698.135 183.491 684.854 177.239 671.653 171.011L662.276 164.469C659.452 169.489 661.184 176.751 664.135 181.69C667.087 186.628 671.781 190.265 676.627 193.31C674.221 195.889 674.221 200.084 675.871 203.198C677.522 206.313 680.519 208.532 683.552 210.275C688.083 212.838 693.026 214.592 698.159 215.458C694.231 216.84 694.568 220.315 694.928 221.895C695.36 223.45 696.096 224.904 697.093 226.172C698.09 227.441 699.329 228.499 700.738 229.285C704.364 231.423 708.675 232.051 712.87 232.504C717.199 232.823 721.548 232.788 725.872 232.4C724.443 234.538 725.942 237.536 728.057 238.988C734.134 243.194 742.593 242.962 749.391 240.836C751.919 240.033 754.345 238.937 756.619 237.57C762.208 228.669 765.218 218.49 764.637 208.706C759.152 202.745 751.657 198.527 743.953 195.715Z" fill="#EDA91A"/>
<path d="M729.509 180.284C718.982 178.811 708.554 176.692 698.287 173.939C688.073 171.174 678.637 167.107 668.818 163.33C667.514 162.692 666.05 162.458 664.612 162.656C662.427 163.191 661.393 165.666 661.277 167.909C661.279 171.391 662.222 174.807 664.008 177.797C668.265 184.279 674.725 189.001 682.193 191.09C680.846 191.591 679.7 192.518 678.93 193.731C678.16 194.944 677.808 196.375 677.928 197.807C678.381 202.362 681.542 204.651 684.122 206.301C690.617 210.461 699.309 212.111 706.978 212.913C704.05 214.156 700.773 215.76 699.902 218.827C697.926 225.799 707.153 228.054 712.01 228.96C718.505 230.122 725.198 229.657 731.764 229.134C729.788 230.564 730.242 233.864 732.031 235.525C737.527 240.65 749.67 237.919 755.015 233.62C762.313 227.728 765.566 218.955 764.521 207.428C762.894 199.294 757.258 190.219 750.181 185.815C744.279 182.143 737.086 181.353 730.195 180.377L729.509 180.284Z" fill="#EDA91A"/>
<path opacity="0.75" d="M729.509 180.284C718.982 178.811 708.554 176.692 698.287 173.939C688.073 171.174 678.637 167.107 668.818 163.33C667.514 162.692 666.05 162.458 664.612 162.656C662.427 163.191 661.393 165.666 661.277 167.909C661.279 171.391 662.222 174.807 664.008 177.797C668.265 184.279 674.725 189.001 682.193 191.09C680.846 191.591 679.7 192.518 678.93 193.731C678.16 194.944 677.808 196.375 677.928 197.807C678.381 202.362 681.542 204.651 684.122 206.301C690.617 210.461 699.309 212.111 706.978 212.913C704.05 214.156 700.773 215.76 699.902 218.827C697.926 225.799 707.153 228.054 712.01 228.96C718.505 230.122 725.198 229.657 731.764 229.134C729.788 230.564 730.242 233.864 732.031 235.525C737.527 240.65 749.67 237.919 755.015 233.62C762.313 227.728 765.566 218.955 764.521 207.428C762.894 199.294 757.258 190.219 750.181 185.815C744.279 182.143 737.086 181.353 730.195 180.377L729.509 180.284Z" fill="white"/>
<path opacity="0.4" d="M760.233 193.321C755.864 185.315 746.545 182.155 740.014 180.539C723.537 176.356 705.666 183.038 679.044 168.071C662.776 158.949 648.274 141.345 639.769 139.242L640.047 142.275C648.1 145.215 654.108 155.394 666.588 166.096C679.067 176.798 694.929 183.665 717.483 185.617C740.038 187.57 751.332 185.617 759.954 198.713C761.325 200.793 762.371 201.211 763.161 200.433C762.444 197.964 761.462 195.58 760.233 193.321Z" fill="#EDA91A"/>
<path d="M764.497 207.428C763.974 194.054 755.957 177.309 733.274 177.135C702.865 176.891 680.984 168.606 657.14 146.458C645.52 135.686 632.808 134.699 632.831 146.969C633.644 139.8 642.29 139.997 651.992 150.142C663.217 161.889 675.895 174.195 701.773 180.226C727.65 186.256 737.179 182.55 746.87 186.721C754.19 189.87 760.721 197.958 764.497 207.428Z" fill="#EDA91A"/>
<path opacity="0.9" d="M764.497 207.428C763.974 194.054 755.957 177.309 733.274 177.135C702.865 176.891 680.984 168.606 657.14 146.458C645.52 135.686 632.808 134.699 632.831 146.969C633.644 139.8 642.29 139.997 651.992 150.142C663.217 161.889 675.895 174.195 701.773 180.226C727.65 186.256 737.179 182.55 746.87 186.721C754.19 189.87 760.721 197.958 764.497 207.428Z" fill="white"/>
<path d="M857.365 124.624C864.476 110.18 880.233 101.442 885.845 73.0196C890.551 49.1289 881.674 17.4876 897.547 25.4938C904.774 29.7699 911.549 52.8937 911.363 62.8172C916.766 44.69 921.96 42.9122 927.782 56.0311C935.288 72.9382 932.314 95.1789 932.314 95.1789C932.314 95.1789 941.761 88.7414 941.935 104.277C942.156 122.869 922.007 149.014 922.007 149.014C927.573 144.076 940.761 138.092 936.125 150.815C934.266 155.94 924.249 167.455 904.019 176.321C879.78 186.942 854.692 168.315 854.146 147.12C853.925 138.568 854.541 130.434 857.365 124.624Z" fill="#EDA91A"/>
<path opacity="0.65" d="M857.365 124.624C864.476 110.18 880.233 101.442 885.845 73.0196C890.551 49.1289 881.674 17.4876 897.547 25.4938C904.774 29.7699 911.549 52.8937 911.363 62.8172C916.766 44.69 921.96 42.9122 927.782 56.0311C935.288 72.9382 932.314 95.1789 932.314 95.1789C932.314 95.1789 941.761 88.7414 941.935 104.277C942.156 122.869 922.007 149.014 922.007 149.014C927.573 144.076 940.761 138.092 936.125 150.815C934.266 155.94 924.249 167.455 904.019 176.321C879.78 186.942 854.692 168.315 854.146 147.12C853.925 138.568 854.541 130.434 857.365 124.624Z" fill="white"/>
<path opacity="0.4" d="M865.87 136.93C869.496 127.204 875.038 118.338 879.396 108.925C885.206 96.3758 888.878 82.9431 892.515 69.5917L893.584 58.7851C898.918 59.8658 903.066 65.606 904.797 70.7769C906.529 75.9478 906.25 81.5952 905.494 87.0449C908.818 86.9055 911.816 89.4968 913.047 92.6109C914.102 95.8144 914.227 99.2512 913.408 102.523C912.477 107.348 910.715 111.976 908.202 116.2C911.607 114.236 913.884 116.618 914.802 117.861C915.657 119.125 916.252 120.547 916.553 122.043C916.855 123.539 916.856 125.08 916.557 126.576C915.871 130.515 913.675 134.001 911.432 137.301C909.004 140.616 906.307 143.725 903.368 146.597C905.785 146.876 907.005 149.816 906.761 152.245C906.041 159.217 900.684 165.166 894.978 168.745C892.851 170.068 890.578 171.14 888.204 171.941C875.236 174.799 861.78 169.233 862.64 159.844C861.571 152.222 863.151 144.215 865.87 136.93Z" fill="#EDA91A"/>
<path d="M863.662 116.978C869.065 108.482 873.947 99.6655 878.28 90.5774C882.556 81.5138 885.438 72.1946 888.738 62.794C889.077 61.4486 889.809 60.2349 890.842 59.308C892.573 58.0647 894.967 58.8548 896.652 60.1562C899.158 62.3307 901.033 65.1405 902.078 68.2902C904.099 75.3651 903.518 82.9299 900.44 89.613C901.625 88.9491 902.997 88.6951 904.342 88.8905C905.686 89.0859 906.929 89.7197 907.876 90.6936C910.863 93.8426 910.561 97.5378 910.2 100.42C909.19 107.659 905.076 114.968 900.904 120.964C903.6 119.616 906.714 118.256 909.492 119.523C915.673 122.381 911.665 130.457 909.329 134.513C906.203 139.939 901.729 144.436 897.349 148.828C899.58 148.282 901.671 150.653 901.764 152.965C902.066 160.1 892.654 167.153 886.287 168.338C877.583 169.954 867.218 171.429 859.561 163.539C854.692 157.323 853.751 143.1 854.913 135.291C855.912 128.761 859.758 123.102 863.279 117.536L863.662 116.978Z" fill="#EDA91A"/>
<path opacity="0.75" d="M863.662 116.978C869.065 108.482 873.947 99.6655 878.28 90.5774C882.556 81.5138 885.438 72.1946 888.738 62.794C889.077 61.4486 889.809 60.2349 890.842 59.308C892.573 58.0647 894.967 58.8548 896.652 60.1562C899.158 62.3307 901.033 65.1405 902.078 68.2902C904.099 75.3651 903.518 82.9299 900.44 89.613C901.625 88.9491 902.997 88.6951 904.342 88.8905C905.686 89.0859 906.929 89.7197 907.876 90.6936C910.863 93.8426 910.561 97.5378 910.2 100.42C909.19 107.659 905.076 114.968 900.904 120.964C903.6 119.616 906.714 118.256 909.492 119.523C915.673 122.381 911.665 130.457 909.329 134.513C906.203 139.939 901.729 144.436 897.349 148.828C899.58 148.282 901.671 150.653 901.764 152.965C902.066 160.1 892.654 167.153 886.287 168.338C877.583 169.954 867.218 171.429 859.561 163.539C854.692 157.323 853.751 143.1 854.913 135.291C855.912 128.761 859.758 123.102 863.279 117.536L863.662 116.978Z" fill="white"/>
<path opacity="0.4" d="M852.949 148.375C851.357 139.858 854.541 130.399 857.365 124.67C864.476 110.227 880.233 101.489 885.845 73.0661C889.262 55.7406 885.532 34.3366 889.273 26.9463L891.283 29.0146C888.448 36.6374 892.062 47.2697 892.074 62.8753C892.085 78.481 889.052 95.1789 876.607 112.621C864.162 130.062 859.177 135.396 858.155 150.281C857.876 154.162 857.83 158.02 856.784 158.113C854.867 155.156 853.564 151.845 852.949 148.375Z" fill="#EDA91A"/>
<path d="M859.572 163.528C850.276 154.871 845.291 134.187 859.084 117.745C877.572 95.667 883.486 74.6464 883.823 43.9464C884.009 26.9463 890.331 19.1493 899.115 26.7604C893.468 22.9025 888.657 29.8629 888.983 44.0626C889.296 60.4235 888.855 78.9226 880.639 96.9801C870.24 119.906 860.583 123.915 857.62 133.467C855.378 140.694 855.087 154.952 859.572 163.528Z" fill="#EDA91A"/>
<path opacity="0.9" d="M859.572 163.528C850.276 154.871 845.291 134.187 859.084 117.745C877.572 95.667 883.486 74.6464 883.823 43.9464C884.009 26.9463 890.331 19.1493 899.115 26.7604C893.468 22.9025 888.657 29.8629 888.983 44.0626C889.296 60.4235 888.855 78.9226 880.639 96.9801C870.24 119.906 860.583 123.915 857.62 133.467C855.378 140.694 855.087 154.952 859.572 163.528Z" fill="white"/>
<path d="M888.983 146.458L858.538 128.9C846.349 121.928 829.581 123.09 811.059 133.746C773.794 155.254 743.593 207.579 743.593 250.608C743.593 272.001 751.053 287.048 763.126 294.16L793.559 311.706L797.847 300.423C804.401 298.736 810.684 296.13 816.509 292.684C853.774 271.175 883.986 218.851 883.986 175.822C884.048 169.126 883.176 162.453 881.395 155.998L888.983 146.458Z" fill="#EDA91A"/>
<path opacity="0.1" d="M744.174 240.092C743.798 243.585 743.604 247.095 743.593 250.608C743.593 272 751.053 287.048 763.126 294.16L793.559 311.706L797.847 300.423C799.253 300.074 800.671 299.656 802.112 299.191L808.491 277.195L744.174 240.092Z" fill="black"/>
<path d="M889.208 256.765C915.558 211.124 915.559 161.793 889.21 146.58C862.86 131.367 820.139 156.034 793.788 201.674C767.438 247.314 767.437 296.646 793.786 311.858C820.136 327.071 862.857 302.405 889.208 256.765Z" fill="#EDA91A"/>
<path opacity="0.3" d="M889.208 256.765C915.558 211.124 915.559 161.793 889.21 146.58C862.86 131.367 820.139 156.034 793.788 201.674C767.438 247.314 767.437 296.646 793.786 311.858C820.136 327.071 862.857 302.405 889.208 256.765Z" fill="white"/>
<path d="M892.701 164.876C884.335 150.386 867.137 148.747 846.814 160.507C813.116 179.97 784.635 229.274 784.647 268.189C784.647 278.38 786.599 287.165 790.306 293.579C798.672 308.081 815.87 309.707 836.193 297.948C869.891 278.496 898.36 229.181 898.36 190.265C898.36 180.075 896.408 171.29 892.701 164.876Z" fill="#EDA91A"/>
<path d="M893.63 165.41C884.149 150.304 865.743 147.98 844.524 159.182C809.327 177.774 780.858 227.089 782.357 266.864C782.752 277.322 785.169 286.34 789.329 293.044C798.811 308.15 817.159 310.474 838.435 299.273C873.632 280.681 902.101 231.365 900.602 191.59C900.207 181.132 897.779 172.115 893.63 165.41Z" fill="#EDA91A"/>
<path d="M831.627 295.438C818.078 302.596 805.726 304.223 796.093 300.574C793.43 298.486 791.156 295.945 789.376 293.068C785.17 286.363 782.753 277.311 782.404 266.888C780.905 227.112 809.374 177.809 844.571 159.205C858.109 152.059 870.461 150.42 880.105 154.069C882.768 156.161 885.042 158.706 886.822 161.587C891.016 168.28 893.445 177.344 893.794 187.755C895.281 227.519 866.824 276.846 831.627 295.438Z" fill="#FAFAFA"/>
<path d="M837.32 168.989C836.896 169.279 836.547 169.664 836.3 170.115C836.054 170.565 835.917 171.067 835.902 171.58V178.889C835.902 179.866 836.541 180.284 837.32 179.831C837.744 179.538 838.095 179.15 838.343 178.698C838.591 178.247 838.73 177.743 838.749 177.228V169.942C838.784 168.943 838.145 168.524 837.32 168.989Z" fill="#EDA91A"/>
<path d="M885.845 196.982C885.806 197.493 885.647 197.988 885.381 198.426C885.114 198.865 884.748 199.234 884.311 199.503L877.99 203.164C877.153 203.652 876.468 203.315 876.468 202.408C876.51 201.895 876.671 201.398 876.94 200.958C877.208 200.518 877.576 200.147 878.013 199.875L884.335 196.215C885.171 195.727 885.845 196.064 885.845 196.982Z" fill="#EDA91A"/>
<path d="M787.11 256.035C787.149 255.522 787.308 255.025 787.575 254.585C787.841 254.145 788.208 253.774 788.644 253.501L794.977 249.841C795.814 249.353 796.499 249.702 796.499 250.608C796.456 251.121 796.293 251.617 796.025 252.057C795.757 252.496 795.39 252.868 794.954 253.141L788.633 256.802C787.784 257.29 787.11 256.941 787.11 256.035Z" fill="#EDA91A"/>
<path d="M835.589 284.027C836.012 283.734 836.36 283.346 836.606 282.894C836.853 282.442 836.99 281.939 837.007 281.424V274.115C837.007 273.139 836.367 272.721 835.589 273.186C835.163 273.475 834.812 273.86 834.564 274.31C834.316 274.76 834.177 275.263 834.16 275.777V283.086C834.171 284.062 834.81 284.48 835.589 284.027Z" fill="#EDA91A"/>
<path d="M840.237 231.865L804.459 226.729H843.037L840.237 231.865Z" fill="#EDA91A"/>
<path d="M841.608 187.442C841.608 187.442 844.919 218.177 845.954 225.3C846.054 225.714 846.105 226.14 846.105 226.566C846.013 228.169 845.545 229.727 844.737 231.115C843.929 232.502 842.805 233.679 841.457 234.549C840.992 234.887 840.445 235.095 839.873 235.15C839.301 235.205 838.724 235.106 838.203 234.863L835.74 233.445C835.258 233.119 834.875 232.667 834.631 232.139C834.387 231.61 834.293 231.026 834.357 230.447C833.939 223.092 836.681 187.732 836.681 187.732L839.086 186.001L841.608 187.442Z" fill="#37474F"/>
<path d="M846.105 226.566C846.014 228.169 845.545 229.727 844.738 231.115C843.93 232.502 842.806 233.679 841.457 234.549C838.912 236.013 836.809 234.828 836.809 231.888C836.391 224.533 839.133 189.173 839.133 189.173L841.538 187.442C841.538 187.442 846.093 223.615 846.105 226.566Z" fill="#455A64"/>
<path d="M843.583 228.042C843.54 228.763 843.33 229.464 842.969 230.089C842.608 230.714 842.106 231.247 841.503 231.644C840.341 232.307 839.423 231.772 839.423 230.482C839.466 229.762 839.677 229.061 840.038 228.435C840.399 227.81 840.901 227.278 841.503 226.88C842.654 226.16 843.583 226.694 843.583 228.042Z" fill="#263238"/>
<path d="M878.713 225.212L871.306 226.104L871.38 226.716L878.786 225.823L878.713 225.212Z" fill="#37474F"/>
<path d="M854.099 256.655L853.532 256.897L856.464 263.757L857.03 263.515L854.099 256.655Z" fill="#37474F"/>
<path d="M816.228 190.718L815.662 190.958L818.571 197.821L819.138 197.581L816.228 190.718Z" fill="#37474F"/>
<path d="M801.833 226.51L794.427 227.402L794.5 228.014L801.907 227.121L801.833 226.51Z" fill="#37474F"/>
<path d="M883.721 174.784L877.07 182.242L877.529 182.652L884.181 175.194L883.721 174.784Z" fill="#37474F"/>
<path d="M857.096 159.525L853.956 169.012L854.541 169.206L857.68 159.719L857.096 159.525Z" fill="#37474F"/>
<path d="M818.338 283.855L815.198 293.342L815.783 293.536L818.922 284.048L818.338 283.855Z" fill="#37474F"/>
<path d="M798.263 270.469L791.567 277.964L792.029 278.377L798.725 270.882L798.263 270.469Z" fill="#37474F"/>
<path d="M835.856 128.11C835.815 127.709 835.67 127.326 835.436 126.998C835.201 126.67 834.886 126.408 834.52 126.239C833.515 125.729 832.405 125.463 831.278 125.463C830.151 125.463 829.04 125.729 828.036 126.239C827.668 126.407 827.35 126.668 827.114 126.996C826.877 127.324 826.73 127.708 826.688 128.11V145.679C826.73 146.082 826.877 146.466 827.114 146.794C827.35 147.122 827.668 147.383 828.036 147.55C829.04 148.061 830.151 148.327 831.278 148.327C832.405 148.327 833.515 148.061 834.52 147.55C834.89 147.387 835.209 147.127 835.444 146.798C835.68 146.469 835.822 146.082 835.856 145.679V128.11Z" fill="#455A64"/>
<path d="M828.024 129.923C827.633 129.79 827.294 129.538 827.053 129.203C826.812 128.867 826.683 128.465 826.683 128.052C826.683 127.639 826.812 127.237 827.053 126.901C827.294 126.565 827.633 126.314 828.024 126.181C829.029 125.671 830.14 125.405 831.266 125.405C832.393 125.405 833.504 125.671 834.508 126.181C834.899 126.314 835.239 126.565 835.479 126.901C835.72 127.237 835.849 127.639 835.849 128.052C835.849 128.465 835.72 128.867 835.479 129.203C835.239 129.538 834.899 129.79 834.508 129.923C833.504 130.433 832.393 130.699 831.266 130.699C830.14 130.699 829.029 130.433 828.024 129.923Z" fill="#37474F"/>
<path d="M844.374 117.292C844.374 115.363 843.095 113.434 840.539 111.958C837.671 110.503 834.5 109.744 831.284 109.744C828.067 109.744 824.897 110.503 822.028 111.958C819.472 113.434 818.194 115.363 818.194 117.292V133.327C818.194 135.268 819.472 137.197 822.028 138.673C824.897 140.128 828.067 140.887 831.284 140.887C834.5 140.887 837.671 140.128 840.539 138.673C843.095 137.197 844.374 135.268 844.374 133.327V117.292Z" fill="#EDA91A"/>
<path opacity="0.3" d="M822.028 122.637C819.472 121.161 818.194 119.232 818.194 117.303C818.194 115.374 819.472 113.434 822.028 111.958C824.897 110.503 828.067 109.744 831.284 109.744C834.5 109.744 837.671 110.503 840.539 111.958C843.095 113.434 844.374 115.363 844.374 117.292C844.374 119.221 843.095 121.161 840.539 122.637C837.671 124.093 834.5 124.851 831.284 124.851C828.067 124.851 824.897 124.093 822.028 122.637Z" fill="white"/>
<path opacity="0.2" d="M822.598 122.927V138.94C822.958 139.126 823.353 139.312 823.76 139.474V123.462C823.362 123.309 822.973 123.13 822.598 122.927ZM826.607 124.345V140.381C826.967 140.45 827.362 140.52 827.769 140.567V124.543C827.362 124.496 826.967 124.426 826.607 124.345ZM819.402 120.441V136.465C819.753 136.887 820.142 137.276 820.564 137.627V121.603C820.125 121.271 819.734 120.88 819.402 120.441ZM838.68 123.52V139.532C839.079 139.385 839.467 139.21 839.842 139.01V122.997C839.467 123.198 839.079 123.373 838.68 123.52ZM841.875 121.719V137.731C842.299 137.382 842.688 136.993 843.037 136.569V120.65C842.694 121.051 842.304 121.41 841.875 121.719ZM834.671 124.566V140.59C835.054 140.59 835.45 140.474 835.833 140.404V124.368C835.426 124.45 835.054 124.519 834.671 124.624V124.566ZM830.709 124.822V140.892H831.871V124.856C831.483 124.893 831.093 124.882 830.709 124.822Z" fill="black"/>
<path d="M791.816 191.799C784.844 203.826 771.772 209.229 761.93 203.582C756.296 200.171 752.223 194.687 750.586 188.308C748.949 181.928 749.878 175.161 753.173 169.459C756.469 163.756 761.868 159.573 768.213 157.806C774.557 156.039 781.342 156.829 787.11 160.007C796.929 165.759 798.777 179.761 791.816 191.799Z" fill="#455A64"/>
<path d="M761.93 203.64C771.772 209.322 784.868 203.884 791.816 191.857C793.399 189.172 794.573 186.266 795.302 183.235C794.896 183.758 783.322 198.516 768.937 194.367C754.296 190.138 751.507 178.855 752.797 169.256C749.449 175.027 748.53 181.892 750.243 188.34C751.955 194.788 756.159 200.291 761.93 203.64Z" fill="#37474F"/>
<path d="M757.874 166.747L754.226 164.632C753.198 164.015 751.967 163.832 750.805 164.123C749.642 164.414 748.643 165.155 748.026 166.183C747.41 167.211 747.227 168.441 747.518 169.604C747.809 170.766 748.55 171.766 749.578 172.382L753.319 174.555C754.911 175.485 757.223 174.485 758.478 172.336C759.733 170.186 759.466 167.676 757.874 166.747Z" fill="#EDA91A"/>
<path d="M897.744 125.937L902.055 118.477C902.36 117.968 902.562 117.404 902.649 116.817C902.737 116.23 902.707 115.632 902.563 115.056C902.419 114.48 902.163 113.939 901.81 113.462C901.457 112.985 901.013 112.583 900.504 112.278C899.995 111.973 899.431 111.771 898.844 111.683C898.257 111.596 897.659 111.625 897.083 111.77C896.507 111.914 895.966 112.17 895.489 112.523C895.012 112.876 894.61 113.32 894.305 113.829L889.935 121.382C889.006 122.974 890.005 125.286 892.167 126.541C894.328 127.796 896.791 127.529 897.744 125.937Z" fill="#EDA91A"/>
<path d="M863.187 126.274C866.527 120.497 872.026 116.284 878.473 114.561C884.92 112.839 891.787 113.748 897.564 117.088C903.341 120.429 907.554 125.928 909.277 132.375C911 138.822 910.091 145.689 906.75 151.466L863.187 126.274Z" fill="#455A64"/>
<path d="M901.288 119.732C902.718 122.707 906.564 135.268 901.288 138.394C896.013 141.52 871.623 131.143 871.623 131.143L906.761 151.466C909.704 146.371 910.768 140.407 909.768 134.609C908.768 128.811 905.767 123.547 901.288 119.732Z" fill="#37474F"/>
</g>
<defs>
<clipPath id="clip0_53026_18111">
<rect width="1000" height="1000" fill="white"/>
</clipPath>
</defs>
</svg>
