<?xml version="1.0" encoding="utf-8"?>
<!-- Uploaded to: SVG Repo, www.svgrepo.com, Generator: SVG Repo Mixer Tools -->
<svg version="1.1" id="Uploaded to svgrepo.com" xmlns="http://www.w3.org/2000/svg" xmlns:xlink="http://www.w3.org/1999/xlink" 
	 width="800px" height="800px" viewBox="0 0 32 32" xml:space="preserve">
<style type="text/css">
	.isometric_vijf{fill:#F29227;}
	.isometric_zeven{fill:#FF7344;}
	.isometric_acht{fill:#F05A28;}
	.isometric_twaalf{fill:#569080;}
	.isometric_dertien{fill:#225B49;}
	.st0{fill:#7BD6C4;}
	.st1{fill:#FFBB33;}
	.st2{fill:#BE1E2D;}
	.st3{fill:#F29227;}
	.st4{fill:#F8F7C5;}
	.st5{fill:#F5DF89;}
	.st6{fill:#6B9086;}
	.st7{fill:none;}
	.st8{fill:#72C0AB;}
	.st9{fill:#AD9A74;}
	.st10{fill:#F2D76C;}
	.st11{fill:#F28103;}
	.st12{fill:#225B49;}
	.st13{fill:#FF7344;}
	.st14{fill:#F05A28;}
</style>
<g>
	<path class="isometric_vijf" d="M22,5.779c0.001-0.965-0.638-1.933-1.918-2.672c-2.546-1.47-6.662-1.478-9.192-0.017
		c-1.282,0.74-1.905,1.715-1.883,2.688H9v4.868c0,2.486,1.397,4.411,3.448,5.504C10.397,17.244,9,19.403,9,21.889v4.481h0.005
		c0.061,0.915,0.699,1.822,1.913,2.522c2.546,1.47,6.662,1.478,9.192,0.017c1.216-0.702,1.84-1.616,1.882-2.539H22v-4.481
		c0-2.486-1.397-4.645-3.448-5.738C20.603,15.058,22,13.134,22,10.647V5.779z"/>
	<path class="isometric_zeven" d="M17.66,16.39c-1.185,0.684-3.113,0.681-4.306-0.008s-1.199-1.802-0.013-2.486
		c1.185-0.684,3.113-0.681,4.306,0.008C18.839,14.593,18.845,15.706,17.66,16.39z"/>
	<path class="isometric_twaalf" d="M22,5.779l-0.005,1.455c0.019,0.971-0.606,1.942-1.884,2.68c-2.53,1.461-6.646,1.453-9.192-0.017
		C9.642,9.161,9.002,8.197,9,7.234V5.779h0.007c-0.022-0.973,0.601-1.948,1.883-2.688c2.53-1.461,6.646-1.454,9.192,0.017
		C21.362,3.846,22.001,4.814,22,5.779z M20.082,22.102c-2.546-1.47-6.662-1.478-9.192-0.017c-1.282,0.74-1.905,1.715-1.883,2.688H9
		v1.455c0.002,0.963,0.642,1.927,1.918,2.664c2.546,1.47,6.662,1.478,9.192,0.017c1.279-0.738,1.903-1.71,1.884-2.68L22,24.774
		C22.001,23.808,21.362,22.841,20.082,22.102z"/>
	<path class="isometric_dertien" d="M20.111,8.415c-2.53,1.461-6.646,1.454-9.192-0.017s-2.559-3.846-0.029-5.307
		s6.646-1.454,9.192,0.017S22.641,6.954,20.111,8.415z M20.082,22.102c-2.546-1.47-6.662-1.478-9.192-0.017
		c-2.53,1.461-2.518,3.837,0.029,5.307c2.546,1.47,6.662,1.478,9.192,0.017C22.641,25.948,22.628,23.572,20.082,22.102z"/>
	<path class="isometric_acht" d="M16.5,16.808v0.294h-0.007c-0.044,1.281-1.942,1.281-1.987,0H14.5v-0.301
		C15.147,16.932,15.854,16.935,16.5,16.808z M21.197,23.911c-0.545-0.71-2.17-2.792-2.557-3.288
		c-1.51-1.936-4.427-1.967-5.978-0.064c-0.348,0.427-2.349,2.881-2.838,3.491c-0.333,0.417-0.565,0.897-0.699,1.406
		c0.243,0.708,0.841,1.386,1.794,1.936c2.546,1.47,6.662,1.478,9.192,0.017c0.966-0.558,1.561-1.249,1.786-1.972
		C21.779,24.886,21.543,24.364,21.197,23.911z"/>
</g>
</svg>